<svg xmlns="http://www.w3.org/2000/svg" width="32" height="32" id="car"><g transform="translate(-239 -1516.362)"><rect width="26" height="18" x="242" y="1522.362" fill="#576d7e" rx="1" ry="1"></rect><path fill="#e9eded" d="M251 1538.362h8v1h-8z"></path><rect width="24" height="14" x="243" y="1523.362" fill="#4bbfeb" rx="0" ry="0"></rect><path fill="#8fb6d7" d="M253.09 1524.226c-.76 0-1.16-.01-1.967.801l-2.234 2.2h5.744c.483 0 .875-.461.875-1.02v-1.98z"></path><path fill="#f8b84e" d="m250.573 1532.236 9.022-.01m2.957.01h2.07c.484 0 .875-.46.875-1.02v-2.98c0-.558-.391-1.024-.875-1.02h-1.77l-2.476-2.266c-.476-.497-.989-.723-1.563-.723h-5.657c-.76 0-1.162-.01-1.97.8l-2.237 2.2-3.577.985c-.466.129-.875.462-.875 1.02v1.985c0 .558.39 1.02.875 1.02h2.128"></path><path style="line-height:normal;-inkscape-font-specification:Sans;text-indent:0;text-align:start;text-decoration-line:none;text-transform:none;block-progression:tb;marker:none" fill="#34485c" d="M175 1554.362c.83 0 1.5.67 1.5 1.5s-.67 1.5-1.5 1.5-1.5-.67-1.5-1.5.67-1.5 1.5-1.5z" color="#000" font-family="Sans" font-weight="400" overflow="visible" transform="translate(74.008 -23.864)"></path><path fill="#4bbfeb" d="M253.168 1524.226c-.759 0-1.16-.01-1.967.801l-2.234 2.2h5.666c.483 0 .875-.461.875-1.02v-1.98h-2.34z"></path><path fill="#8fb6d7" d="M257.508 1524.226v1.981c0 .559.392 1.02.875 1.02h6.283c-.015-.001-.027-.01-.043-.01h-1.767l-2.475-2.268c-.476-.497-.987-.723-1.56-.723h-1.313z"></path><path fill="none" stroke="#2b4255" stroke-linecap="round" stroke-linejoin="round" d="M254.008 1529.226h1m2.507 0h1"></path><path style="line-height:normal;-inkscape-font-specification:Sans;text-indent:0;text-align:start;text-decoration-line:none;text-transform:none;block-progression:tb;marker:none" fill="#34485c" d="M187 1554.362c.83 0 1.5.67 1.5 1.5s-.67 1.5-1.5 1.5-1.5-.67-1.5-1.5.67-1.5 1.5-1.5z" color="#000" font-family="Sans" font-weight="400" overflow="visible" transform="translate(74.008 -23.864)"></path><path style="line-height:normal;text-indent:0;text-align:start;text-decoration-line:none;text-decoration-style:solid;text-decoration-color:#000;text-transform:none;block-progression:tb;isolation:auto;mix-blend-mode:normal" fill="#576d7e" fill-rule="evenodd" d="M170.489 1554.362v.73c-.005.133.021.185.035.27h.46c.677.01.677-1.01 0-1z" color="#000" font-family="sans-serif" font-weight="400" overflow="visible" transform="translate(74.008 -23.864)"></path><path fill="#f8b84e" d="M253.239 1524.226c-.36 0-.7-.01-1.074.118-.375.124-.73.372-1.145.789l-2.043 2.011h-.006l-.082.08h1.367l1.44-1.418h.002c.356-.358.578-.492.77-.556.191-.064.406-.066.77-.066h2.27v-.957h-2.27z"></path><path fill="#4bbfeb" d="M257.508 1524.226v1.981c0 .559.392 1.02.875 1.02h6.283c-.015-.001-.027-.01-.043-.01h-1.767l-2.475-2.268c-.476-.497-.987-.723-1.56-.723h-1.313z"></path><path style="line-height:normal;text-indent:0;text-align:start;text-decoration-line:none;text-decoration-style:solid;text-decoration-color:#000;text-transform:none;block-progression:tb;isolation:auto;mix-blend-mode:normal" fill="#f8b84e" d="M183.5 1548.092v.957h1.131c.423 0 .76.14 1.147.544l.011.011 1.624 1.487h3.246c-.015-.001-.028-.01-.043-.01h-1.768l-.143-.131s-1.48-1.408-2.248-2.069l.021.023c-.49-.512-.885-.812-1.75-.812z" color="#000" font-family="sans-serif" font-weight="400" overflow="visible" transform="translate(74.008 -23.864)"></path><path style="line-height:normal;-inkscape-font-specification:Sans;text-indent:0;text-align:start;text-decoration-line:none;text-transform:none;block-progression:tb;marker:none" fill="#cad1d8" d="M175 1555.362a.5.5 0 1 1 0 1 .5.5 0 0 1 0-1zm12 0a.5.5 0 1 1 0 1 .5.5 0 0 1 0-1z" color="#000" font-family="Sans" font-weight="400" overflow="visible" transform="translate(74.008 -23.864)"></path><path style="line-height:normal;text-indent:0;text-align:start;text-decoration-line:none;text-decoration-style:solid;text-decoration-color:#000;text-transform:none;block-progression:tb;isolation:auto;mix-blend-mode:normal" fill="#f05542" fill-rule="evenodd" d="M191.488 1554.362v.73c.005.133-.022.185-.035.27h-.461c-.676.01-.676-1.01 0-1z" color="#000" font-family="sans-serif" font-weight="400" overflow="visible" transform="translate(74.008 -23.864)"></path><rect width="21" height="2" x="244.5" y="1534.362" fill="#34485c" rx="1" ry="1"></rect><path fill="#2b4255" d="M241 1538.362h11.063v1h6.875v-1H269c.554 0 1 .446 1 1v1c0 .554-.446 1-1 1h-28c-.554 0-1-.446-1-1v-1c0-.554.446-1 1-1z"></path><path fill="#25b39e" d="M245.5 1534.362H256v2h-10.5c-.554 0-1-.446-1-1s.446-1 1-1z"></path></g></svg>