<?xml version="1.0" encoding="utf-8"?>
<!-- Generator: Adobe Illustrator 27.5.0, SVG Export Plug-In . SVG Version: 6.00 Build 0)  -->
<svg version="1.1" xmlns="http://www.w3.org/2000/svg" xmlns:xlink="http://www.w3.org/1999/xlink" x="0px" y="0px"
	 viewBox="0 0 3710 3710" style="enable-background:new 0 0 3710 3710;" xml:space="preserve">
<g id="Background">
	<g>
		<g>
			<rect style="fill:#FFFFFF;" width="3710" height="3710"/>
		</g>
	</g>
</g>
<g id="Illustration">
	<g>
		
			<linearGradient id="SVGID_1_" gradientUnits="userSpaceOnUse" x1="1293.4659" y1="3603.1382" x2="-744.4096" y2="1403.5261" gradientTransform="matrix(-1 0 0 1 1601.9641 0)">
			<stop  offset="0" style="stop-color:#DAE3FE"/>
			<stop  offset="1" style="stop-color:#E9EFFD"/>
		</linearGradient>
		<path style="fill:url(#SVGID_1_);" d="M590.096,2348.793c280.561,653.415,1021.153,934.072,1601.417,886.22
			c158.436-13.065,477.212-39.354,726.116-273.885c478.002-450.402,404.385-1391.868-53.2-1946.151
			c-58.927-71.38-466.814-549.62-1102.43-543.219c-465.363,4.687-791.997,266.617-831.715,299.248
			c-50.174,41.222-160.837,139.18-260.571,294.582C435.373,1430.732,414.773,1940.474,590.096,2348.793z"/>
		<g>
			<g>
				<g style="opacity:0.3;">
					<path style="fill:#91B3FA;" d="M1146.819,710.413c-3.709,4.257-10.168,4.698-14.422,0.989
						c-8.268-7.206-16.971-14.16-25.87-20.669c-4.502-3.293-5.522-9.578-2.329-14.122c0.038-0.054,0.076-0.108,0.115-0.163
						c3.333-4.556,9.728-5.546,14.285-2.212c9.365,6.852,18.529,14.172,27.232,21.758c3.98,3.467,4.623,9.343,1.653,13.57
						C1147.278,709.856,1147.059,710.14,1146.819,710.413z M1061.043,662.022c-9.698-5.234-19.711-10.101-29.771-14.471
						c-5.174-2.247-7.55-8.268-5.302-13.446c2.275-5.189,8.272-7.55,13.45-5.3c10.583,4.597,21.125,9.72,31.329,15.225
						c4.967,2.681,6.821,8.883,4.141,13.85c-0.195,0.361-0.408,0.706-0.638,1.033
						C1071.315,663.091,1065.65,664.507,1061.043,662.022z M980.594,629.613c-10.59-2.935-21.436-5.445-32.243-7.46
						c-5.548-1.034-9.208-6.373-8.174-11.922c1.04-5.542,6.371-9.206,11.922-8.174c11.381,2.122,22.806,4.766,33.955,7.857
						c5.44,1.508,8.626,7.14,7.121,12.58c-0.322,1.159-0.831,2.217-1.485,3.148C989.274,629.079,984.873,630.8,980.594,629.613z
						 M894.917,616.011c-10.992-0.495-22.132-0.516-33.113-0.069c-5.64,0.228-10.4-4.158-10.629-9.796
						c-0.224-5.64,4.161-10.394,9.796-10.629c11.563-0.47,23.292-0.446,34.859,0.07c5.638,0.254,10.006,5.03,9.752,10.669
						c-0.091,2.018-0.759,3.872-1.841,5.411C901.801,614.429,898.537,616.171,894.917,616.011z M808.344,621.835
						c-10.801,1.955-21.673,4.399-32.308,7.27c-5.452,1.468-11.061-1.758-12.531-7.207c-1.472-5.453,1.757-11.062,7.208-12.528
						c11.188-3.02,22.628-5.592,33.993-7.648c5.553-1.007,10.871,2.682,11.876,8.238c0.507,2.799-0.178,5.538-1.694,7.696
						C813.396,619.778,811.1,621.337,808.344,621.835z M725.219,646.669c-10.117,4.3-20.172,9.089-29.891,14.234
						c-4.989,2.641-11.176,0.737-13.815-4.249c-2.642-4.99-0.742-11.174,4.249-13.817c10.227-5.415,20.814-10.455,31.46-14.981
						c5.196-2.207,11.195,0.213,13.405,5.409c1.435,3.375,0.914,7.088-1.05,9.883C728.518,644.655,727.041,645.896,725.219,646.669z
						 M484.077,939.766c-5.547-1.043-9.199-6.386-8.155-11.935c2.14-11.364,4.806-22.79,7.923-33.955
						c1.518-5.438,7.156-8.615,12.593-7.095c5.435,1.515,8.611,7.154,7.094,12.59c-2.96,10.602-5.489,21.451-7.52,32.242
						c-0.279,1.481-0.862,2.824-1.676,3.982C492.103,938.774,488.145,940.533,484.077,939.766z M649.713,689.286
						c-8.902,6.439-17.632,13.343-25.948,20.523c-4.275,3.688-10.73,3.215-14.418-1.058c-3.691-4.275-3.195-10.709,1.059-14.417
						c8.758-7.56,17.951-14.831,27.326-21.611c4.574-3.307,10.963-2.282,14.272,2.293c2.624,3.627,2.521,8.398,0.083,11.867
						C651.454,687.787,650.657,688.601,649.713,689.286z M508.115,853.99c-5.172-2.258-7.534-8.285-5.275-13.458
						c4.63-10.595,9.778-21.13,15.296-31.316c2.67-4.98,8.894-6.803,13.857-4.116c4.961,2.689,6.804,8.893,4.116,13.857
						c-5.245,9.679-10.138,19.692-14.536,29.761c-0.281,0.642-0.622,1.239-1.01,1.791
						C517.828,854.403,512.643,855.969,508.115,853.99z M585.635,747.698c-7.232,8.264-14.203,16.948-20.717,25.816
						c-3.341,4.552-9.737,5.53-14.288,2.188c-4.489-3.298-5.502-9.573-2.313-14.11c0.041-0.059,0.084-0.119,0.128-0.176
						c6.855-9.339,14.193-18.483,21.803-27.181c3.721-4.246,10.177-4.677,14.425-0.96c3.968,3.471,4.604,9.337,1.638,13.557
						C586.104,747.129,585.876,747.418,585.635,747.698z"/>
					<path style="fill:#91B3FA;" d="M487.499,1007.039c1.157-1.646,1.843-3.651,1.853-5.817c0.024-5.27,0.162-10.626,0.401-15.924
						c0.258-5.637-4.106-10.419-9.744-10.675c-5.639-0.259-10.427,4.104-10.674,9.746c-0.255,5.571-0.398,11.205-0.425,16.75
						c-0.028,5.643,4.527,10.245,10.169,10.271C482.559,1011.409,485.639,1009.685,487.499,1007.039z"/>
				</g>
				<g style="opacity:0.3;">
					<path style="fill:#91B3FA;" d="M607.782,1294.498c2.836-4.036,2.406-9.645-1.243-13.195
						c-3.778-3.672-7.543-7.487-11.187-11.335c-3.883-4.099-10.352-4.275-14.45-0.394c-4.115,3.898-4.274,10.353-0.394,14.45
						c3.838,4.051,7.802,8.069,11.779,11.937c4.047,3.935,10.518,3.844,14.454-0.203
						C607.127,1295.36,607.473,1294.938,607.782,1294.498z"/>
					<path style="fill:#91B3FA;" d="M1199.016,1254.69c-3.467,4.454-9.89,5.255-14.346,1.784c-4.453-3.468-5.247-9.879-1.783-14.343
						c6.602-8.479,12.945-17.373,18.93-26.53c3.058-4.713,9.424-6.05,14.149-2.962s6.051,9.422,2.965,14.148
						c-2.593,3.967-5.242,7.876-7.946,11.724C1207.126,1244.002,1203.1,1249.446,1199.016,1254.69z M1232.554,1183.052
						c-5.097-2.42-7.269-8.516-4.848-13.614c4.645-9.791,8.93-19.882,12.729-29.997c1.966-5.284,7.877-7.96,13.162-5.975
						c5.282,1.984,7.957,7.878,5.972,13.16c-3.999,10.65-8.508,21.274-13.399,31.575c-0.254,0.534-0.548,1.037-0.876,1.504
						C1242.484,1183.706,1237.121,1185.219,1232.554,1183.052z M1161.871,1296.191c-8.147,7.933-16.745,15.628-25.558,22.866
						c-4.362,3.583-10.803,2.951-14.388-1.412c-3.581-4.361-2.944-10.796,1.413-14.386c8.372-6.872,16.535-14.177,24.269-21.712
						c4.045-3.937,10.515-3.854,14.456,0.192c3.483,3.577,3.816,9.054,1.046,12.997
						C1162.748,1295.248,1162.336,1295.737,1161.871,1296.191z M1263.318,1100.968c-5.505-1.241-8.966-6.712-7.722-12.218
						c2.381-10.555,4.337-21.339,5.817-32.048c0.771-5.597,5.928-9.499,11.523-8.725c5.591,0.772,9.497,5.929,8.725,11.52
						c-1.558,11.28-3.619,22.636-6.125,33.75c-0.304,1.343-0.856,2.565-1.602,3.627
						C1271.624,1100.161,1267.48,1101.907,1263.318,1100.968z M1090.976,1351.339c-9.686,5.944-19.763,11.555-29.951,16.68
						c-5.042,2.537-11.184,0.507-13.722-4.534c-2.54-5.044-0.507-11.189,4.536-13.725c9.677-4.87,19.249-10.199,28.446-15.844
						c4.812-2.952,11.107-1.445,14.059,3.367c2.2,3.585,1.923,7.992-0.35,11.226
						C1093.216,1349.617,1092.202,1350.588,1090.976,1351.339z M1009.706,1389.603c-10.777,3.692-21.836,6.971-32.868,9.748
						c-5.476,1.376-11.029-1.943-12.408-7.418c-1.379-5.482,1.942-11.035,7.419-12.405c10.482-2.64,20.991-5.756,31.234-9.262
						c5.34-1.83,11.152,1.017,12.982,6.358c1.101,3.218,0.504,6.608-1.312,9.193
						C1013.554,1387.522,1011.826,1388.877,1009.706,1389.603z M922.025,1409.248c-11.331,1.258-22.842,2.05-34.209,2.358
						c-5.645,0.152-10.34-4.299-10.494-9.941c-0.153-5.65,4.3-10.341,9.94-10.493c10.802-0.29,21.737-1.046,32.507-2.241
						c5.61-0.623,10.664,3.421,11.285,9.03c0.287,2.578-0.411,5.035-1.792,7.001C927.634,1407.278,925.058,1408.91,922.025,1409.248
						z M832.147,1409.297c-11.331-1.25-22.74-2.999-33.909-5.2c-5.538-1.09-9.145-6.465-8.053-12.004
						c1.089-5.529,6.467-9.14,12.005-8.05c10.604,2.089,21.436,3.75,32.201,4.937c5.61,0.619,9.656,5.667,9.036,11.278
						c-0.196,1.772-0.833,3.387-1.79,4.749C839.564,1407.958,835.988,1409.72,832.147,1409.297z M744.41,1389.585
						c-10.75-3.707-21.484-7.924-31.907-12.535c-5.163-2.284-7.498-8.321-5.213-13.483c2.278-5.145,8.318-7.496,13.481-5.213
						c9.901,4.381,20.096,8.385,30.307,11.908c5.335,1.839,8.169,7.658,6.328,12.993c-0.32,0.929-0.76,1.784-1.298,2.55
						C753.555,1389.438,748.817,1391.105,744.41,1389.585z M663.227,1351.13c-7.137-4.391-14.228-9.056-21.072-13.865
						c-2.479-1.742-4.929-3.505-7.358-5.292c-4.544-3.344-5.65-9.75-2.174-14.288c3.342-4.548,9.741-5.522,14.29-2.177
						c2.307,1.696,4.639,3.377,6.994,5.032c6.507,4.573,13.243,9.006,20.03,13.182c4.807,2.957,6.307,9.253,3.349,14.06
						c-0.112,0.18-0.227,0.358-0.347,0.529C673.858,1352.696,667.853,1353.978,663.227,1351.13z"/>
					<path style="fill:#91B3FA;" d="M1283.624,1009.524c1.168-1.663,1.854-3.687,1.855-5.87c-0.001-5.534-0.118-11.172-0.35-16.758
						c-0.233-5.641-4.994-10.024-10.633-9.79c-5.64,0.235-10.025,4.989-9.79,10.634c0.219,5.307,0.33,10.662,0.332,15.916
						c-0.002,5.642,4.574,10.219,10.22,10.219C1278.718,1013.874,1281.777,1012.153,1283.624,1009.524z"/>
				</g>
				<g>
					<path style="fill:#91B3FA;" d="M1159.839,885.508c-0.552-1.962-2.286-3.359-4.321-3.477l-58.042-3.384
						c-13.11-23.777-30.106-45.635-50.708-64.51l10.375-57.17c0.364-2.006-0.585-4.02-2.362-5.018l-60.81-34.14
						c-1.777-0.999-3.992-0.759-5.514,0.596l-43.408,38.625c-26.842-7.762-54.353-10.892-81.479-9.704l-33.11-47.791
						c-1.161-1.675-3.257-2.429-5.219-1.878l-67.141,18.858c-1.961,0.551-3.359,2.286-3.477,4.321l-3.384,58.042
						c-23.778,13.109-45.636,30.105-64.511,50.709l-57.17-10.375c-2.006-0.364-4.021,0.584-5.018,2.361l-34.142,60.811
						c-0.997,1.778-0.757,3.991,0.597,5.514l38.625,43.408c-7.762,26.842-10.892,54.353-9.703,81.479l-47.792,33.11
						c-1.675,1.161-2.43,3.256-1.878,5.218l18.858,67.141c0.551,1.962,2.287,3.358,4.32,3.477l58.044,3.384
						c13.109,23.778,30.105,45.634,50.708,64.51l-10.374,57.17c-0.365,2.005,0.584,4.021,2.361,5.018l60.812,34.141
						c1.777,0.998,3.991,0.758,5.513-0.597l43.408-38.625c26.842,7.761,54.354,10.892,81.479,9.704l33.11,47.791
						c1.16,1.675,3.255,2.43,5.219,1.879l67.141-18.859c1.962-0.551,3.358-2.286,3.477-4.321l3.384-58.043
						c23.778-13.109,45.635-30.105,64.511-50.708l57.17,10.375c2.004,0.363,4.02-0.585,5.018-2.362l34.141-60.811
						c0.997-1.777,0.759-3.991-0.597-5.514l-38.624-43.407c7.762-26.842,10.891-54.353,9.703-81.479l47.792-33.11
						c1.675-1.16,2.429-3.257,1.879-5.218L1159.839,885.508z"/>
					<g>
						<path style="fill:#BDD0FB;" d="M925.338,1050.116c-26.598,28.047-71.052,29.229-99.103,2.63
							c-13.589-12.883-21.345-30.289-21.84-49.006c-0.498-18.714,6.321-36.508,19.21-50.094
							c26.598-28.047,71.052-29.229,99.103-2.631c25.517,24.198,28.797,63.175,9.15,91.134
							C929.911,1044.921,927.735,1047.587,925.338,1050.116z M820.743,1003.307c0.381,14.353,6.328,27.695,16.747,37.576
							c21.503,20.39,55.592,19.487,75.983-2.018c20.405-21.504,19.487-55.592-2.018-75.985
							c-21.503-20.39-55.592-19.487-75.983,2.018c-1.849,1.951-3.531,4.011-5.048,6.17
							C823.834,980.444,820.434,991.643,820.743,1003.307z"/>
					</g>
					<g>
						<path style="fill:#BDD0FB;" d="M1013.876,1101.534c3.374-4.802,6.527-9.801,9.439-14.988l0,0
							c0.917-1.632,1.807-3.28,2.672-4.942c4.259-8.194,7.86-16.713,10.748-25.427c0.039-0.119,0.079-0.237,0.119-0.356
							c0.11-0.337,0.22-0.675,0.327-1.014c0.213-0.658,0.419-1.318,0.623-1.977c0.536-1.736-0.141-3.556-1.551-4.55
							c-0.343-0.241-0.73-0.433-1.152-0.563c-2.157-0.666-4.441,0.549-5.109,2.702c-3.425,11.103-8.07,21.909-13.807,32.121
							c-28.475,50.738-80.067,80.494-134.253,83.526c-30.139,1.69-61.081-4.891-89.297-20.735
							c-4.949-2.777-9.721-5.784-14.299-9.004c-30.821-21.663-53.07-53.006-63.393-89.764
							c-11.861-42.223-6.568-86.538,14.902-124.779c44.349-78.974,144.61-107.111,223.549-62.791
							c4.868,2.732,9.579,5.702,14.115,8.891c19.66,13.82,36.077,31.787,48.011,52.672c0.309,0.539,0.72,0.982,1.198,1.316
							c1.254,0.881,2.959,1.018,4.379,0.205c1.958-1.127,2.647-3.615,1.52-5.58c-12.529-21.925-29.764-40.792-50.404-55.3
							c-4.762-3.348-9.706-6.464-14.814-9.334c-82.88-46.533-188.169-16.934-234.685,65.916
							c-22.541,40.147-28.094,86.668-15.643,130.994c10.836,38.59,34.194,71.494,66.549,94.237
							c4.808,3.379,9.818,6.535,15.009,9.452c40.15,22.54,86.671,28.097,130.996,15.647
							C958.224,1157.268,991.133,1133.9,1013.876,1101.534z"/>
					</g>
				</g>
			</g>
			<g>
				<g style="opacity:0.3;">
					<path style="fill:#91B3FA;" d="M1568.394,579.046c1.57-2.234,1.559-5.317-0.232-7.562c-3.339-4.192-6.851-8.34-10.438-12.327
						c-2.331-2.591-6.319-2.802-8.915-0.47c-2.605,2.325-2.801,6.324-0.47,8.915c3.418,3.799,6.766,7.752,9.953,11.752
						c2.169,2.725,6.141,3.173,8.871,1.004C1567.646,579.971,1568.055,579.528,1568.394,579.046z"/>
					<path style="fill:#91B3FA;" d="M1534.378,544.516c-2.286,2.632-6.27,2.918-8.906,0.632c-6.65-5.762-13.673-11.25-20.871-16.308
						c-1.518-1.067-3.054-2.119-4.606-3.161c-2.89-1.945-3.661-5.866-1.718-8.76c1.947-2.663,5.866-3.661,8.765-1.719
						c1.622,1.091,3.229,2.193,4.817,3.31c7.546,5.302,14.909,11.057,21.881,17.102c2.469,2.137,2.874,5.775,1.034,8.393
						C1534.653,544.178,1534.519,544.347,1534.378,544.516z M1472.345,509.454c-9.514-4.828-19.411-9.112-29.417-12.725
						c-3.28-1.186-4.975-4.799-3.792-8.082c1.183-3.26,4.802-4.979,8.082-3.792c10.487,3.787,20.865,8.276,30.839,13.34
						c3.11,1.579,4.351,5.378,2.774,8.49c-0.138,0.272-0.299,0.532-0.471,0.776C1478.584,509.989,1475.178,510.891,1472.345,509.454
						z M1412.153,487.739c-10.391-2.347-21.037-4.064-31.651-5.107c-3.467-0.341-6.005-3.432-5.663-6.899
						c0.344-3.48,3.424-6.01,6.899-5.667c11.129,1.092,22.299,2.898,33.194,5.355c3.4,0.769,5.539,4.148,4.77,7.548
						c-0.19,0.828-0.532,1.582-0.992,2.238C1417.282,487.237,1414.723,488.317,1412.153,487.739z M1348.464,481.476
						c-10.665,0.274-21.414,1.212-31.928,2.794c-3.452,0.516-6.666-1.859-7.181-5.306c-0.514-3.439,1.855-6.66,5.302-7.181
						c11.035-1.657,22.297-2.641,33.484-2.929c3.485-0.09,6.384,2.667,6.475,6.151c0.031,1.404-0.393,2.714-1.145,3.784
						C1352.36,480.371,1350.543,481.423,1348.464,481.476z M1285.176,490.952c-10.274,2.858-20.463,6.378-30.295,10.462
						c-3.216,1.338-6.911-0.189-8.25-3.409s0.181-6.917,3.409-8.251c10.302-4.282,20.986-7.97,31.751-10.969
						c3.359-0.931,6.84,1.032,7.773,4.388c0.528,1.897,0.131,3.834-0.918,5.327C1287.836,489.653,1286.638,490.543,1285.176,490.952
						z M1226.106,515.503c-9.261,5.266-18.276,11.159-26.801,17.522c-2.791,2.085-6.75,1.51-8.833-1.283
						c-2.083-2.794-1.512-6.737,1.282-8.837c8.938-6.672,18.399-12.855,28.112-18.379c3.032-1.72,6.885-0.662,8.606,2.367
						c1.246,2.194,1.036,4.82-0.323,6.754C1227.63,514.386,1226.946,515.027,1226.106,515.503z M1174.856,553.74
						c-7.661,7.354-14.962,15.288-21.698,23.586c-2.201,2.703-6.175,3.116-8.88,0.918c-2.706-2.195-3.08-6.135-0.923-8.883
						c7.067-8.694,14.721-17.014,22.755-24.727c2.517-2.413,6.514-2.332,8.928,0.182c2.123,2.211,2.314,5.574,0.613,7.995
						C1175.421,553.139,1175.157,553.451,1174.856,553.74z M1110.815,634.627c-3.16-1.475-4.524-5.228-3.049-8.389
						c4.081-8.746,8.714-17.418,13.75-25.754c0.759-1.272,1.533-2.524,2.315-3.776c1.756-2.992,5.748-3.849,8.705-1.987
						c2.954,1.854,3.842,5.747,1.991,8.704c-0.738,1.169-1.463,2.351-2.187,3.564c-4.823,7.977-9.241,16.25-13.135,24.589
						c-0.159,0.344-0.349,0.667-0.557,0.965C1116.918,635.002,1113.628,635.941,1110.815,634.627z"/>
				</g>
				<g style="opacity:0.3;">
					<path style="fill:#91B3FA;" d="M1575.771,901.299c-6.441,8.919-13.486,17.519-20.93,25.572
						c-2.368,2.555-6.361,2.715-8.923,0.345c-2.563-2.369-2.675-6.358-0.345-8.922c7.103-7.675,13.819-15.881,19.964-24.39
						c2.039-2.827,5.989-3.462,8.812-1.421c2.803,2.026,3.453,5.926,1.472,8.746
						C1575.805,901.251,1575.787,901.277,1575.771,901.299z M1584.904,875.842c-3.049-1.687-4.154-5.53-2.464-8.578
						c5.077-9.177,9.651-18.752,13.591-28.465c1.312-3.208,4.992-4.788,8.226-3.472c3.231,1.31,4.783,4.988,3.476,8.221
						c-4.13,10.178-8.922,20.214-14.247,29.828c-0.113,0.203-0.232,0.394-0.363,0.581
						C1591.293,876.561,1587.757,877.422,1584.904,875.842z M1530.937,949.726c-8.411,7.102-17.326,13.751-26.499,19.761
						c-2.917,1.91-6.833,1.094-8.741-1.821c-1.914-2.916-1.097-6.813,1.817-8.74c8.752-5.732,17.254-12.073,25.283-18.845
						c2.665-2.249,6.647-1.911,8.892,0.748c1.891,2.241,1.954,5.411,0.345,7.701
						C1531.729,948.964,1531.364,949.366,1530.937,949.726z M1610.526,816.647c-3.366-0.904-5.361-4.37-4.457-7.736
						c2.723-10.127,4.849-20.519,6.316-30.895c0.493-3.447,3.689-5.85,7.132-5.367c3.453,0.49,5.858,3.683,5.368,7.136
						c-1.536,10.882-3.766,21.786-6.624,32.405c-0.199,0.734-0.519,1.402-0.931,1.99
						C1615.849,816.288,1613.157,817.354,1610.526,816.647z M1475.748,985.869c-9.849,4.859-20.1,9.165-30.47,12.804
						c-3.29,1.154-6.894-0.58-8.048-3.87c-1.155-3.29,0.572-6.895,3.869-8.048c9.894-3.464,19.668-7.574,29.06-12.212
						c3.125-1.541,6.911-0.26,8.455,2.871c1.058,2.141,0.785,4.598-0.5,6.426C1477.529,984.675,1476.73,985.384,1475.748,985.869z
						 M1413.491,1007.721c-10.748,2.363-21.736,4.094-32.655,5.147c-3.468,0.335-6.551-2.204-6.885-5.674
						c-0.337-3.466,2.203-6.555,5.678-6.89c10.411-1.006,20.893-2.659,31.151-4.915c3.404-0.75,6.772,1.406,7.521,4.811
						c0.394,1.799-0.019,3.588-1.003,4.988C1416.423,1006.433,1415.094,1007.368,1413.491,1007.721z M1347.787,1014.038
						c-11.009-0.277-22.097-1.235-32.95-2.84c-3.452-0.512-5.831-3.721-5.321-7.171c0.509-3.448,3.724-5.826,7.167-5.32
						c10.351,1.535,20.922,2.447,31.418,2.705c3.486,0.088,6.243,2.985,6.152,6.471c-0.029,1.295-0.45,2.483-1.141,3.467
						C1351.939,1013.019,1349.981,1014.091,1347.787,1014.038z"/>
					<path style="fill:#91B3FA;" d="M1626.383,750.033c0.7-0.996,1.119-2.205,1.143-3.514c0.097-5.402,0.031-10.831-0.187-16.139
						c-0.146-3.482-3.086-6.192-6.57-6.049c-3.476,0.154-6.185,3.087-6.048,6.57c0.211,5.061,0.271,10.241,0.182,15.396
						c-0.062,3.486,2.717,6.362,6.201,6.422C1623.279,752.757,1625.219,751.69,1626.383,750.033z"/>
				</g>
				<g>
					<path style="fill:#91B3FA;" d="M1544.023,662.512c-0.37-1.313-1.53-2.247-2.892-2.327l-38.839-2.265
						c-8.773-15.91-20.146-30.536-33.932-43.167l6.942-38.256c0.243-1.342-0.391-2.69-1.581-3.358l-40.692-22.845
						c-1.189-0.669-2.672-0.508-3.689,0.398l-29.046,25.846c-17.962-5.194-36.371-7.289-54.522-6.494l-22.156-31.979
						c-0.777-1.121-2.179-1.625-3.492-1.257l-44.927,12.619c-1.313,0.368-2.248,1.53-2.327,2.892l-2.264,38.839
						c-15.911,8.772-30.537,20.146-43.168,33.933l-38.255-6.943c-1.342-0.243-2.69,0.391-3.358,1.58l-22.846,40.692
						c-0.668,1.19-0.506,2.671,0.4,3.689l25.846,29.047c-5.194,17.962-7.289,36.371-6.493,54.522l-31.981,22.156
						c-1.12,0.776-1.626,2.179-1.257,3.492l12.619,44.928c0.369,1.312,1.53,2.246,2.891,2.326l38.84,2.265
						c8.772,15.911,20.144,30.537,33.932,43.167l-6.942,38.256c-0.244,1.341,0.39,2.69,1.58,3.358l40.692,22.846
						c1.189,0.667,2.671,0.507,3.689-0.399l29.046-25.846c17.962,5.194,36.371,7.288,54.523,6.493l22.156,31.98
						c0.776,1.121,2.178,1.626,3.492,1.257l44.928-12.619c1.313-0.369,2.247-1.53,2.327-2.891l2.264-38.839
						c15.911-8.772,30.536-20.145,43.168-33.932l38.255,6.943c1.342,0.243,2.69-0.391,3.358-1.581l22.845-40.692
						c0.667-1.189,0.507-2.671-0.4-3.689l-25.845-29.046c5.194-17.962,7.287-36.371,6.493-54.522l31.98-22.156
						c1.121-0.776,1.625-2.179,1.257-3.492L1544.023,662.512z"/>
					<g>
						<path style="fill:#BDD0FB;" d="M1387.718,773.237c-8.776,9.26-20.633,14.544-33.384,14.881
							c-12.747,0.341-24.867-4.306-34.122-13.085c-19.104-18.115-19.901-48.345-1.793-67.508
							c18.124-19.102,48.404-19.904,67.502-1.79c9.256,8.776,14.542,20.631,14.88,33.38c0.275,10.364-2.746,20.313-8.601,28.645
							C1390.855,769.673,1389.356,771.506,1387.718,773.237z M1328.896,765.869c6.81,6.458,15.724,9.877,25.106,9.628
							c9.375-0.25,18.098-4.138,24.554-10.945l0,0c6.447-6.817,9.872-15.723,9.624-25.105c-0.245-9.375-4.138-18.097-10.943-24.551
							c-14.054-13.326-36.326-12.736-49.657,1.314c-1.201,1.27-2.289,2.603-3.266,3.993
							C1314.47,734.213,1316.113,753.748,1328.896,765.869z"/>
					</g>
					<g>
						<path style="fill:#BDD0FB;" d="M1449.342,809.02c2.297-3.268,4.444-6.679,6.444-10.232c3.965-7.058,7.216-14.526,9.668-22.218
							c0.108-0.346,0.215-0.693,0.323-1.039c0.829-2.681-0.218-5.491-2.395-7.025c-0.529-0.372-1.128-0.668-1.777-0.869
							c-3.331-1.029-6.852,0.851-7.89,4.172c-2.22,7.203-5.23,14.197-8.937,20.792l-0.002,0.003
							c-0.202,0.362-0.411,0.724-0.617,1.081c-8.915,15.529-21.364,28.247-36.223,37.385c-8.066,4.959-16.85,8.861-26.177,11.571
							c-0.076,0.022-0.151,0.044-0.227,0.067c-0.235,0.065-0.464,0.134-0.696,0.197c-27.334,7.675-56.023,4.251-80.779-9.649
							c-3.206-1.796-6.291-3.743-9.257-5.827c-19.952-14.024-34.354-34.316-41.042-58.115c-7.676-27.335-4.246-56.02,9.652-80.773
							c13.899-24.734,36.608-42.618,63.939-50.3c27.334-7.676,56.023-4.251,80.779,9.649c3.151,1.766,6.2,3.69,9.135,5.753
							c12.729,8.949,23.356,20.578,31.08,34.098c0.477,0.833,1.112,1.516,1.85,2.031c1.937,1.361,4.569,1.572,6.762,0.317
							c3.022-1.738,4.081-5.583,2.347-8.617c-8.644-15.126-20.535-28.142-34.77-38.153c-3.289-2.311-6.697-4.462-10.221-6.44
							c-27.702-15.552-59.796-19.384-90.38-10.793c-30.577,8.591-55.993,28.548-71.532,56.27
							c-15.552,27.697-19.387,59.79-10.793,90.373c7.475,26.624,23.59,49.325,45.913,65.015c3.314,2.329,6.77,4.509,10.352,6.52
							C1347.501,874.368,1414.717,858.294,1449.342,809.02z"/>
					</g>
				</g>
			</g>
		</g>
		<g>
			
				<linearGradient id="SVGID_00000003088640120766243790000009009229753511652737_" gradientUnits="userSpaceOnUse" x1="2273.1802" y1="1960.2485" x2="2403.3113" y2="1960.2485">
				<stop  offset="0" style="stop-color:#FE7062"/>
				<stop  offset="1" style="stop-color:#FF928E"/>
			</linearGradient>
			<path style="fill:url(#SVGID_00000003088640120766243790000009009229753511652737_);" d="M2403.311,679.256v2510.122
				c0,16.579-6.711,31.552-18.129,40.788c-8.667,7.03-19.609,11.498-31.663,11.043l-27.489-1.014
				c-27.788-1.048-52.85-26.478-52.85-55.528V683.508L2403.311,679.256z"/>
			<g>
				
					<linearGradient id="SVGID_00000072241558976132494010000006612995135044208823_" gradientUnits="userSpaceOnUse" x1="-599.3334" y1="362.6288" x2="-886.8785" y2="843.9543" gradientTransform="matrix(-1 0 0 1 1601.9641 0)">
					<stop  offset="0" style="stop-color:#E1473D"/>
					<stop  offset="1" style="stop-color:#E9605A"/>
				</linearGradient>
				<path style="fill:url(#SVGID_00000072241558976132494010000006612995135044208823_);" d="M2455.638,589.206
					c0,42.36-21.522,80.279-53.936,102.581c-18.241,12.564-39.926,20.159-63.131,20.853c-11.519,0.344-22.669-1.019-33.166-3.911
					c-7.905-2.158-15.447-5.174-22.554-8.938c-1.794-0.977-3.589-1.954-5.348-3.042c-33.155-19.966-55.197-56.865-55.197-99.744
					c0-65.826,51.968-121.068,116.264-123.444C2403.112,471.177,2455.638,522.926,2455.638,589.206z"/>
				
					<linearGradient id="SVGID_00000070825175763472678500000004874597381956926104_" gradientUnits="userSpaceOnUse" x1="-602.3337" y1="408.7039" x2="-825.8922" y2="782.9213" gradientTransform="matrix(-1 0 0 1 1601.9641 0)">
					<stop  offset="0" style="stop-color:#FE7062"/>
					<stop  offset="1" style="stop-color:#FF928E"/>
				</linearGradient>
				<path style="fill:url(#SVGID_00000070825175763472678500000004874597381956926104_);" d="M2402.041,584.862
					c0,32.934-16.733,62.415-41.934,79.754c-14.182,9.768-31.041,15.673-49.082,16.212c-8.956,0.268-17.625-0.792-25.785-3.041
					c-6.146-1.678-12.01-4.022-17.536-6.949c-1.395-0.76-2.79-1.519-4.157-2.365c-25.777-15.523-42.914-44.211-42.914-77.548
					c0-51.178,40.404-94.127,90.392-95.974C2361.203,493.097,2402.041,533.331,2402.041,584.862z"/>
			</g>
			<g>
				
					<linearGradient id="SVGID_00000139996070978929246750000002694025054871488900_" gradientUnits="userSpaceOnUse" x1="2529.2974" y1="190.6433" x2="2529.2974" y2="1058.4601" gradientTransform="matrix(0.946 0.1287 -0.1364 0.9906 -220.249 -129.6694)">
					<stop  offset="0" style="stop-color:#E1473D"/>
					<stop  offset="1" style="stop-color:#E9605A"/>
				</linearGradient>
				<path style="fill:url(#SVGID_00000139996070978929246750000002694025054871488900_);" d="M1462.69,768.959l9.991,5.165
					l189.31-116.073l927.106,137.053l129.675,14.837l-7.653,24.206c-1.035,2.604-148.573,110.112-148.573,110.112l114.828,150.708
					l-5.524,15.499c-0.656,1.839-2.455,2.957-4.3,2.671l-119.219-18.468l-927.626-143.698c-2.595-0.402-4.989-1.66-6.834-3.591
					l-149.179-156.172c-1.956-2.047-2.979-4.877-2.815-7.788L1462.69,768.959z"/>
				
					<linearGradient id="SVGID_00000137118293613851373060000006432855225574039985_" gradientUnits="userSpaceOnUse" x1="-723.2485" y1="425.5417" x2="-781.5465" y2="1154.91" gradientTransform="matrix(-0.9434 -0.1461 -0.1531 0.9882 1485.7129 119.4275)">
					<stop  offset="0" style="stop-color:#FE7062"/>
					<stop  offset="1" style="stop-color:#FF928E"/>
				</linearGradient>
				<path style="fill:url(#SVGID_00000137118293613851373060000006432855225574039985_);" d="M1672.454,647.857l1046.318,162.084
					c0.972,0.151,1.255,1.466,0.443,2.061l-147.44,107.855c-1.998,1.461-2.533,4.308-1.205,6.405l105.445,166.559
					c0.521,0.822-0.151,1.913-1.088,1.768L1627.95,932.403c-2.985-0.462-5.747-1.884-7.903-4.068L1464.01,770.297
					c-0.659-0.668-0.51-1.82,0.298-2.301l198.71-118.276C1665.889,648.011,1669.213,647.355,1672.454,647.857z"/>
			</g>
			<g>
				<path style="fill:#7D97F4;" d="M1553.707,1747.422l10.615,2.596l152.078-153.338l906.563-83.047l120.987-15.115
					c2.513-0.314,4.698,1.721,4.564,4.249l-1.046,19.784c-0.38,2.703-115.362,138.383-115.362,138.383l142.953,116.32l-1.659,15.941
					c-0.197,1.891-1.639,3.363-3.446,3.515l-116.771,9.88l-908.578,76.876c-2.542,0.215-5.09-0.426-7.274-1.831l-176.632-113.608
					c-2.316-1.489-3.93-3.933-4.443-6.727L1553.707,1747.422z"/>
				<path style="fill:#91B3FA;" d="M1723.939,1584.628l1021.794-86.455c2.096-0.177,3.362,2.267,2.007,3.876l-112.508,133.653
					c-1.54,1.829-1.395,4.687,0.322,6.351l137.779,133.526c0.675,0.654,0.266,1.797-0.669,1.877l-1025.478,86.767
					c-2.924,0.247-5.857-0.464-8.393-2.037l-183.529-113.798c-0.793-0.491-0.915-1.596-0.25-2.249l160.445-157.582
					C1717.777,1586.28,1720.764,1584.896,1723.939,1584.628z"/>
				<g>
					<path style="opacity:0.56;fill:#FFFFFF;" d="M2330.808,1649.203l-569.528,44.517c-2.102,0.164-3.956-1.421-4.12-3.523
						l-2.05-26.231c-0.164-2.102,1.421-3.956,3.523-4.12l569.528-44.517c2.102-0.164,3.956,1.421,4.12,3.523l2.05,26.231
						C2334.495,1647.184,2332.91,1649.038,2330.808,1649.203z"/>
					<path style="opacity:0.56;fill:#FFFFFF;" d="M2331.212,1739.088l-564.979,44.162c-2.102,0.164-3.956-1.421-4.12-3.523
						l-1.914-24.48c-0.164-2.102,1.421-3.956,3.523-4.12l564.979-44.162c2.102-0.164,3.956,1.421,4.12,3.523l1.914,24.48
						C2334.899,1737.069,2333.314,1738.923,2331.212,1739.088z"/>
				</g>
			</g>
			<g>
				
					<linearGradient id="SVGID_00000070811361438530339990000015873958528351179181_" gradientUnits="userSpaceOnUse" x1="2521.9661" y1="-419.3396" x2="2528.6653" y2="337.7258">
					<stop  offset="0" style="stop-color:#4F52FF"/>
					<stop  offset="1" style="stop-color:#4042E2"/>
				</linearGradient>
				<path style="fill:url(#SVGID_00000070811361438530339990000015873958528351179181_);" d="M3203.158,1235.297l-11.01,4.383
					l-190.85-123.551l-993.247,76.21l-138.303,7.895l5.645,21.637c0.88,2.578,148.388,116.11,148.388,116.11l-134.129,138.581
					l4.563,15.302c0.541,1.815,2.354,3.004,4.332,2.839l127.794-10.615l994.35-82.595c2.782-0.231,5.422-1.301,7.535-3.054
					l170.962-141.778c2.241-1.859,3.56-4.529,3.628-7.35L3203.158,1235.297z"/>
				
					<linearGradient id="SVGID_00000013162063900359701410000014470320940495084678_" gradientUnits="userSpaceOnUse" x1="3213.5754" y1="696.8133" x2="4453.0137" y2="-261.2404">
					<stop  offset="0" style="stop-color:#4F52FF"/>
					<stop  offset="1" style="stop-color:#4042E2"/>
				</linearGradient>
				<path style="fill:url(#SVGID_00000013162063900359701410000014470320940495084678_);" d="M2991.064,1105.651l-1119.25,92.97
					c-1.842,0.153-2.531,2.494-1.065,3.62l145.284,111.617c1.974,1.516,2.305,4.338,0.735,6.27l-125.456,154.393
					c-0.623,0.767-0.022,1.906,0.963,1.825l1122.286-93.223c3.2-0.266,6.243-1.471,8.708-3.45l178.383-143.167
					c0.737-0.592,0.672-1.734-0.128-2.237l-200.621-126.248C2998.004,1106.197,2994.538,1105.362,2991.064,1105.651z"/>
				<g>
					<path style="opacity:0.56;fill:#FFFFFF;" d="M2975.49,1214.624l-556.267,43.481c-2.102,0.164-3.956-1.421-4.121-3.523
						l-2.133-27.284c-0.164-2.102,1.421-3.956,3.523-4.12l556.267-43.481c2.102-0.164,3.956,1.421,4.12,3.523l2.133,27.284
						C2979.178,1212.605,2977.592,1214.459,2975.49,1214.624z"/>
					<path style="opacity:0.56;fill:#FFFFFF;" d="M2976.263,1307.275l-551.823,43.133c-2.102,0.164-3.956-1.421-4.12-3.523
						l-1.991-25.478c-0.164-2.102,1.421-3.956,3.523-4.12l551.823-43.133c2.102-0.164,3.956,1.421,4.12,3.523l1.992,25.478
						C2979.95,1305.256,2978.365,1307.111,2976.263,1307.275z"/>
				</g>
			</g>
			<g>
				
					<linearGradient id="SVGID_00000172413666647207412690000016493002516161818510_" gradientUnits="userSpaceOnUse" x1="2363.2168" y1="785.8243" x2="2247.6191" y2="1318.657">
					<stop  offset="0" style="stop-color:#E1473D"/>
					<stop  offset="1" style="stop-color:#E9605A"/>
				</linearGradient>
				
					<circle style="fill:url(#SVGID_00000172413666647207412690000016493002516161818510_);" cx="2338.012" cy="902.003" r="39.737"/>
				
					<linearGradient id="SVGID_00000111902287979882719850000005896812866644143530_" gradientUnits="userSpaceOnUse" x1="2338.7249" y1="804.7278" x2="2341.2986" y2="921.9813">
					<stop  offset="0" style="stop-color:#E1473D"/>
					<stop  offset="1" style="stop-color:#E9605A"/>
				</linearGradient>
				
					<circle style="fill:url(#SVGID_00000111902287979882719850000005896812866644143530_);" cx="2340.721" cy="895.681" r="24.384"/>
			</g>
			<g>
				
					<linearGradient id="SVGID_00000114058421109539306780000005317015110667513250_" gradientUnits="userSpaceOnUse" x1="2355.9954" y1="1193.7128" x2="2244.6536" y2="1706.9279">
					<stop  offset="0" style="stop-color:#E1473D"/>
					<stop  offset="1" style="stop-color:#E9605A"/>
				</linearGradient>
				
					<circle style="fill:url(#SVGID_00000114058421109539306780000005317015110667513250_);" cx="2331.718" cy="1305.614" r="38.274"/>
				
					<linearGradient id="SVGID_00000133512331554626969310000005886703706321360027_" gradientUnits="userSpaceOnUse" x1="2332.4048" y1="1211.9204" x2="2334.884" y2="1324.8568">
					<stop  offset="0" style="stop-color:#E1473D"/>
					<stop  offset="1" style="stop-color:#E9605A"/>
				</linearGradient>
				
					<circle style="fill:url(#SVGID_00000133512331554626969310000005886703706321360027_);" cx="2334.328" cy="1299.525" r="23.486"/>
			</g>
			<g>
				
					<linearGradient id="SVGID_00000099662156692744456480000006756920639348493708_" gradientUnits="userSpaceOnUse" x1="2359.2903" y1="1551.3737" x2="2243.6238" y2="2084.5227">
					<stop  offset="0" style="stop-color:#E1473D"/>
					<stop  offset="1" style="stop-color:#E9605A"/>
				</linearGradient>
				<circle style="fill:url(#SVGID_00000099662156692744456480000006756920639348493708_);" cx="2334.07" cy="1667.621" r="39.76"/>
				
					<linearGradient id="SVGID_00000116942247616542066890000018122413775923160193_" gradientUnits="userSpaceOnUse" x1="2334.7837" y1="1570.2885" x2="2337.3589" y2="1687.6115">
					<stop  offset="0" style="stop-color:#E1473D"/>
					<stop  offset="1" style="stop-color:#E9605A"/>
				</linearGradient>
				
					<circle style="fill:url(#SVGID_00000116942247616542066890000018122413775923160193_);" cx="2336.781" cy="1661.296" r="24.398"/>
			</g>
			<g>
				<path style="opacity:0.56;fill:#FFFFFF;" d="M2219.027,839.201l-509.036-80.32c-2.083-0.329-3.518-2.301-3.189-4.384
					l3.854-24.425c0.329-2.083,2.301-3.518,4.384-3.189l509.036,80.32c2.083,0.329,3.518,2.301,3.189,4.384l-3.854,24.425
					C2223.083,838.095,2221.11,839.53,2219.027,839.201z"/>
				<path style="opacity:0.56;fill:#FFFFFF;" d="M2199.816,922.69l-504.965-79.678c-2.083-0.329-3.518-2.301-3.189-4.384
					l3.593-22.771c0.329-2.083,2.301-3.518,4.384-3.189l504.964,79.678c2.083,0.329,3.518,2.301,3.189,4.384l-3.593,22.77
					C2203.871,921.584,2201.898,923.019,2199.816,922.69z"/>
			</g>
		</g>
		<g>
			<g>
				
					<linearGradient id="SVGID_00000106853596660946929430000012789072893303234975_" gradientUnits="userSpaceOnUse" x1="437.8372" y1="1927.4977" x2="-284.3116" y2="4707.7661" gradientTransform="matrix(-1 0 0 1 1601.9641 0)">
					<stop  offset="0" style="stop-color:#4F52FF"/>
					<stop  offset="1" style="stop-color:#4042E2"/>
				</linearGradient>
				<path style="fill:url(#SVGID_00000106853596660946929430000012789072893303234975_);" d="M1484.705,1971
					c-315.106-8.214-663.683,76.426-663.683,76.426c-82.987,457.933-46.476,975.903-32.347,1132.778
					c2.646,29.378,24.621,53.234,53.633,58.565c162.833,29.925,334.554,11.772,420.938-1.377
					c33.606-5.115,60.478-30.49,67.618-63.725c57.081-265.703,220.155-851.889,220.155-851.889
					c154.165-17.641,281.439-60.858,386.46-118.595c-78.799-93.124-115.243-211.009-130.894-280.637
					C1694.825,1956.113,1581.896,1973.535,1484.705,1971z"/>
				
					<linearGradient id="SVGID_00000104691585942919573070000017599059870486327175_" gradientUnits="userSpaceOnUse" x1="12765.9463" y1="1780.3458" x2="13375.4902" y2="1780.3458" gradientTransform="matrix(1 0.0095 -0.0095 1 -10941.6475 -63.4747)">
					<stop  offset="0" style="stop-color:#FEBBBA"/>
					<stop  offset="1" style="stop-color:#FF928E"/>
				</linearGradient>
				<path style="fill:url(#SVGID_00000104691585942919573070000017599059870486327175_);" d="M2420.048,1515.675
					c-30.602-37.69-59.341-36.055-59.341-36.055c-48.247,195.463-303.551,367.668-554.123,442.927
					c15.651,69.628,52.095,187.513,130.894,280.637C2354.32,1974.016,2420.048,1515.675,2420.048,1515.675z"/>
			</g>
			<g>
				
					<linearGradient id="SVGID_00000101080334405159243370000016250476280512368550_" gradientUnits="userSpaceOnUse" x1="-2792.9766" y1="1683.0625" x2="-2383.9668" y2="2613.6516" gradientTransform="matrix(-1 -0.0095 -0.0095 1 -494.9213 36.7017)">
					<stop  offset="0" style="stop-color:#FEBBBA"/>
					<stop  offset="1" style="stop-color:#FF928E"/>
				</linearGradient>
				<path style="fill:url(#SVGID_00000101080334405159243370000016250476280512368550_);" d="M2412.443,1525.111
					c3.141,10.33-34.522,25.654-56.208-16.676c-0.578-20.195-12.03-106.791,0.189-123.122
					c65.078-86.971,190.678-195.576,190.678-195.576c20.853,20.973,3.317,41.211,3.317,41.211l-61.024,62.368
					c12.421,22.957,27.654,42.384,34.615,70.077c5.271,20.971,1.712,43.296-9.037,62.235
					c-10.789,19.007-25.496,43.707-39.361,63.015C2449.367,1525.187,2412.443,1525.111,2412.443,1525.111z"/>
				
					<linearGradient id="SVGID_00000141455660206447891000000000820911616272678319_" gradientUnits="userSpaceOnUse" x1="13372.5684" y1="1374.0756" x2="13543.2334" y2="1111.6769" gradientTransform="matrix(1 0.0095 -0.0095 1 -10941.6475 -63.4747)">
					<stop  offset="0" style="stop-color:#FEBBBA"/>
					<stop  offset="1" style="stop-color:#FF928E"/>
				</linearGradient>
				<path style="fill:url(#SVGID_00000141455660206447891000000000820911616272678319_);" d="M2462.579,1333.904l-55.507,46.152
					l-17.731,46.308l48.573,54.93c0,0,17.386-92.053,29.845-111.895C2480.217,1349.56,2473.946,1339.849,2462.579,1333.904z"/>
			</g>
			
				<linearGradient id="SVGID_00000120519213263958959470000011524177030300479384_" gradientUnits="userSpaceOnUse" x1="987.6614" y1="2070.9871" x2="281.408" y2="4790.0581" gradientTransform="matrix(-1 0 0 1 1601.9641 0)">
				<stop  offset="0" style="stop-color:#4F52FF"/>
				<stop  offset="1" style="stop-color:#4042E2"/>
			</linearGradient>
			<path style="fill:url(#SVGID_00000120519213263958959470000011524177030300479384_);" d="M938.991,2353.743l-117.968-306.316
				c0,0-296.283,197.204-347.113,450.338c55.583,4.627,156.658,20.061,255.251,71.029
				C752.073,2449.258,938.991,2353.743,938.991,2353.743z"/>
			
				<linearGradient id="SVGID_00000055706046724990355170000001442201636259955608_" gradientUnits="userSpaceOnUse" x1="11432.1436" y1="2649.4736" x2="12203.502" y2="2649.4736" gradientTransform="matrix(1 0.0095 -0.0095 1 -10941.6475 -63.4747)">
				<stop  offset="0" style="stop-color:#FEBBBA"/>
				<stop  offset="1" style="stop-color:#FF928E"/>
			</linearGradient>
			<path style="fill:url(#SVGID_00000055706046724990355170000001442201636259955608_);" d="M1193.502,2643.347
				c0,0-332.289,183.633-442.286,23.075c-22.836-33.339-28.06-66.304-22.055-97.628c-98.593-50.969-199.667-66.402-255.251-71.029
				c-15.324,76.312-8.385,157.696,35.755,240.304c191.934,359.2,726.799-12.816,726.799-12.816L1193.502,2643.347z"/>
			
				<linearGradient id="SVGID_00000134249601442999832800000016275674412071477942_" gradientUnits="userSpaceOnUse" x1="12024.4668" y1="1824.8593" x2="12329.4492" y2="1824.8593" gradientTransform="matrix(1 0.0095 -0.0095 1 -10941.6475 -63.4747)">
				<stop  offset="0" style="stop-color:#FEBBBA"/>
				<stop  offset="1" style="stop-color:#FF928E"/>
			</linearGradient>
			<path style="fill:url(#SVGID_00000134249601442999832800000016275674412071477942_);" d="M1167.92,1712.097l-103.045,289.041
				c-1.706,4.787,0.216,10.126,4.643,12.629c27.191,15.372,125.254,59.996,244.652-14.115c12.438-7.721,20.977-20.425,22.993-34.924
				l34.866-250.683L1167.92,1712.097z"/>
			<g>
				
					<linearGradient id="SVGID_00000160874621297419177660000009925374811648747410_" gradientUnits="userSpaceOnUse" x1="3807.3994" y1="6661.7871" x2="3693.4321" y2="6285.8955" gradientTransform="matrix(0.7523 -0.6588 0.6588 0.7523 -5808.2441 -818.1582)">
					<stop  offset="0" style="stop-color:#FEBBBA"/>
					<stop  offset="1" style="stop-color:#FF928E"/>
				</linearGradient>
				<path style="fill:url(#SVGID_00000160874621297419177660000009925374811648747410_);" d="M1388.67,1445.635
					c0,0,108.14,208.33,93.225,291.927c-14.913,83.595-151.327,76.281-269.849,7.142l-81.139-224.611L1388.67,1445.635z"/>
				
					<linearGradient id="SVGID_00000016062653570062235840000005437382768935474084_" gradientUnits="userSpaceOnUse" x1="3704.5862" y1="6006.8511" x2="3799.918" y2="6550.5957" gradientTransform="matrix(0.7523 -0.6588 0.6588 0.7523 -5808.2441 -818.1582)">
					<stop  offset="0" style="stop-color:#09005D"/>
					<stop  offset="1" style="stop-color:#1A0F91"/>
				</linearGradient>
				<path style="fill:url(#SVGID_00000016062653570062235840000005437382768935474084_);" d="M1218.363,1634.838
					c4.863-2.099,6.707-8.01,3.849-12.47c-8.695-13.561-24.969-41.214-30.017-65.337c0,0-19.673-12.867,50.664-28.995
					c70.34-16.128,175.244-41.203,197.81-100.727c22.003-58.037-32.951-205.038-123.967-89.195
					c-3.462,4.408-10.163,4.442-13.537-0.035c-14.553-19.322-52.921-59.507-106.947-35.883
					c-50.556,22.109-56.579,58.943-56.065,77.544c0.151,5.471-4.78,9.677-10.146,8.601c-25.405-5.098-86.444-9.849-115.551,52.535
					c-23.973,51.384-8.989,80.746,4.774,95.165c4.459,4.673,2.412,12.277-3.781,14.107c-16.778,4.962-38.51,18.94-36.724,58.151
					c2.473,54.208,63.094,50.013,80.363,47.706c2.829-0.376,5.668,0.62,7.561,2.756c14.632,16.505,80.595,86.626,152.625,95.69
					c6.238,0.785,11.136-5.334,9.147-11.299l-30.342-91.012c-1.41-4.226,0.651-8.83,4.74-10.595L1218.363,1634.838z"/>
				
					<linearGradient id="SVGID_00000164510224677450033880000015142980874060315812_" gradientUnits="userSpaceOnUse" x1="3690.8992" y1="6660.0322" x2="3588.3606" y2="6321.8359" gradientTransform="matrix(0.7523 -0.6588 0.6588 0.7523 -5808.2441 -818.1582)">
					<stop  offset="0" style="stop-color:#FEBBBA"/>
					<stop  offset="1" style="stop-color:#FF928E"/>
				</linearGradient>
				<path style="fill:url(#SVGID_00000164510224677450033880000015142980874060315812_);" d="M1230.785,1647.833
					c0,0-77.89-54.54-84.051-9.294c-6.159,45.244,69.976,66.289,107.945,49.76L1230.785,1647.833z"/>
			</g>
			<g>
				<g>
					
						<linearGradient id="SVGID_00000165948564817495614570000010728405063746882944_" gradientUnits="userSpaceOnUse" x1="12116.8789" y1="2204.4812" x2="12542.5127" y2="3977.9617" gradientTransform="matrix(1 0 0 1 -10673.3584 0)">
						<stop  offset="0" style="stop-color:#09005D"/>
						<stop  offset="1" style="stop-color:#1A0F91"/>
					</linearGradient>
					<path style="fill:url(#SVGID_00000165948564817495614570000010728405063746882944_);" d="M1125.591,2933.558l181.011-632.133
						c2.055-7.176,8.177-12.409,15.591-13.273c32.796-3.826,127.828-14.57,237.55-23.85
						c132.164-11.18,285.647-20.237,377.362-12.532c13.039,1.095,20.918,14.886,15.12,26.616
						c-52.154,105.517-266.688,534.734-374.121,675.34c-3.559,4.658-9.064,7.382-14.926,7.327l-419.977-3.907
						C1130.98,2957.031,1122.228,2945.307,1125.591,2933.558z"/>
					
						<linearGradient id="SVGID_00000129207200252955344190000016484182988492204473_" gradientUnits="userSpaceOnUse" x1="11825.2217" y1="2673.6609" x2="12066.377" y2="2673.6609" gradientTransform="matrix(1 0 0 1 -10673.3584 0)">
						<stop  offset="0" style="stop-color:#FEBBBA"/>
						<stop  offset="1" style="stop-color:#FF928E"/>
					</linearGradient>
					<path style="fill:url(#SVGID_00000129207200252955344190000016484182988492204473_);" d="M1169.325,2780.835
						c0,0-25.216-103.683-15.045-140.468c10.172-36.786,29.879-84.081,95.564-73.57c65.689,10.509,143.173,38.181,143.173,38.181
						s-3.914,47.914-53.838,32.455l30.959,23.955c0,0-4.425,38.364-46.594,17.868l28.794,31.767c0,0-18.111,31.509-49.135,11.3
						C1272.18,2702.113,1257.307,2793.32,1169.325,2780.835z"/>
				</g>
				<path style="fill:#91B3FA;" d="M1547.675,2453.007c0,29.346,23.789,53.134,53.136,53.134c29.345,0,53.134-23.788,53.134-53.134
					c0-29.348-23.789-53.135-53.134-53.135C1571.464,2399.871,1547.675,2423.659,1547.675,2453.007z"/>
				<path style="fill:#BDD0FB;" d="M1327.085,2488.033l36.854-125.019c4.521-15.353,16.866-26.879,32.209-30.087
					c115.511-24.1,431.671-29.211,434.85-29.258l-0.209-14.125c-13.04,0.2-320.7,5.187-437.525,29.563
					c-20.445,4.264-36.873,19.56-42.879,39.909l-36.854,125.019L1327.085,2488.033z"/>
			</g>
		</g>
		<g>
			<path style="fill:#91B3FA;" d="M2389.58,3237.342c-3.728-0.629-7.017-2.71-9.171-5.816
				c-31.396-45.268-258.906-398.946,68.726-705.107c311.025-290.642,449.629-347.928,473.444-523.776
				c2.781-20.536,30.793-24.59,39.364-5.722c64.05,141.007,160.398,468.348-199.534,669.666
				c-397.044,222.074-373.342,480.193-356.84,553.857C2407.749,3230.179,2399.418,3239.003,2389.58,3237.342L2389.58,3237.342z"/>
			<path style="fill:#91B3FA;" d="M2437.681,3245.463c-8.825-1.49-15.629-8.55-16.713-17.434
				c-7.375-60.472-23.019-286.058,144.542-340.387c184.46-59.808,326.253,114.737,464.552-13.906
				c7.277-6.769,18.942-0.294,16.946,9.442c-14.159,69.056-72.44,228.194-309.913,252.994
				c-254.179,26.545-283.586,54.666-279.628,90.843C2458.687,3238.168,2448.744,3247.331,2437.681,3245.463L2437.681,3245.463z"/>
			<path style="opacity:0.47;fill:#FFFFFF;" d="M2906.018,2181.632c-3.779,12.62-8.62,24.601-14.162,36.366
				c-5.509,11.753-11.587,23.237-18.13,34.454c-6.53,11.224-13.517,22.2-21.084,32.765c-7.521,10.595-15.346,20.996-23.691,30.968
				c-33.175,40.103-72.519,74.983-115.416,104.399c-21.421,14.679-44.062,27.948-66.742,40.091
				c-22.34,12.015-43.882,25.555-64.566,40.3c-41.346,29.525-79.287,63.905-112.651,102.254
				c-33.387,38.333-61.985,80.809-84.724,126.229c-22.775,45.393-39.207,94.016-48.059,144.082
				c-8.888,50.058-10.184,101.448-4.38,152.101c5.696,50.711,18.928,100.486,37.022,148.376c0.527,1.369-0.16,2.905-1.528,3.43
				c-1.341,0.514-2.849-0.147-3.402-1.46c-19.824-47.645-34.218-97.799-41.163-149.205c-3.585-25.676-5.231-51.65-4.979-77.624
				c0.412-25.965,2.542-51.948,6.834-77.596c8.371-51.339,24.538-101.387,47.254-148.211
				c22.723-46.855,52.116-90.327,86.023-129.731c33.976-39.381,72.617-74.694,114.83-105.105
				c21.12-15.188,43.139-29.159,66.035-41.598l16.854-9.198c5.617-2.976,11.083-6.211,16.55-9.448l8.211-4.833l8.054-5.088
				l8.054-5.087l7.903-5.314c21.041-14.211,41.376-29.494,60.523-46.183c19.164-16.654,37.411-34.412,54.124-53.566
				c16.913-18.976,32.301-39.309,46.289-60.579c13.838-21.294,26.318-43.852,35.474-67.406l0.059-0.157
				c0.488-1.248,1.891-1.867,3.14-1.382C2905.759,2179.137,2906.374,2180.435,2906.018,2181.632z"/>
			<path style="opacity:0.47;fill:#FFFFFF;" d="M2430.052,3204.273c0.416-2.108,0.347-4.152,0.334-6.222l0.033-6.189
				c0.049-4.125,0.157-8.247,0.304-12.368c0.311-8.241,0.788-16.475,1.446-24.697c1.328-16.44,3.327-32.834,6.121-49.108
				c5.666-32.486,14.247-64.742,28.47-94.791c7.089-15.002,15.755-29.348,26.262-42.327c10.458-13.006,23.089-24.384,37.385-33.208
				c14.345-8.723,30.381-14.741,46.934-17.529c8.263-1.434,16.641-2.244,25.012-2.271c8.371-0.175,16.73,0.416,25.016,1.383
				c8.332,1.02,16.37,2.483,24.509,3.849l24.325,4.301c16.203,2.95,32.37,6.07,48.511,9.293
				c32.288,6.403,64.442,13.421,96.714,19.361c16.137,2.934,32.324,5.559,48.569,7.191c16.229,1.589,32.579,2.171,48.651,0.31
				c16.062-1.739,31.787-6.29,45.975-13.981c14.237-7.62,26.819-18.157,38-29.961c0.821-0.868,2.188-0.908,3.059-0.088
				c0.86,0.814,0.903,2.172,0.101,3.042c-11.27,12.173-24.093,23.201-38.817,31.304c-14.666,8.177-31.074,13.125-47.673,15.109
				c-16.635,1.978-33.361,1.406-49.842-0.159c-16.494-1.611-32.815-4.216-49.044-7.12c-32.448-5.88-64.602-12.808-96.864-19.112
				c-32.209-6.301-64.655-12.374-96.939-17.18c-8.031-0.994-16.118-1.625-24.195-1.511c-8.077-0.034-16.137,0.692-24.077,2.011
				c-15.905,2.563-31.258,8.207-45.073,16.465c-13.756,8.362-26.01,19.214-36.246,31.766
				c-10.295,12.517-18.849,26.475-25.938,41.137c-14.26,29.355-23.095,61.201-29.033,93.381
				c-2.931,16.121-5.077,32.392-6.559,48.725c-0.736,8.167-1.289,16.351-1.681,24.542c-0.187,4.096-0.334,8.194-0.422,12.291
				l-0.095,6.145c-0.02,2.041-0.069,4.109,0.438,6.113c0.255,1.006-0.354,2.031-1.358,2.288c-1.008,0.257-2.031-0.351-2.287-1.358
				C2430.006,3204.824,2430.003,3204.535,2430.052,3204.273z"/>
		</g>
	</g>
</g>
</svg>
