<svg width="1577" height="422" viewBox="0 0 1577 422" fill="none" xmlns="http://www.w3.org/2000/svg">
<rect x="1100" y="16" width="864" height="406" rx="30" fill="url(#paint0_linear_117_2968)"/>
<path d="M41.025 65H5.775V9.5H41.025V20.75H17.925V31.625H38.4V42.275H17.925V53.75H41.025V65ZM59.0654 65H45.9404L58.5404 46.85L45.9404 27.5H59.2904L66.1904 38.9L72.6404 27.5H85.5404L73.1654 46.625L85.0904 65H71.8154L65.3654 54.2L59.0654 65ZM90.6293 83V27.5H101.504L102.104 32.075C104.204 28.625 108.929 26.3 114.254 26.3C124.679 26.3 131.954 33.575 131.954 45.65C131.954 57.5 125.504 66.05 114.329 66.05C109.154 66.05 104.354 64.1 102.179 61.25V83H90.6293ZM102.254 46.25C102.254 51.875 106.004 55.625 111.404 55.625C116.879 55.625 120.329 51.8 120.329 46.25C120.329 40.7 116.879 36.875 111.404 36.875C106.004 36.875 102.254 40.625 102.254 46.25ZM150.153 65H138.603V8.45H150.153V65ZM156.793 46.175C156.793 34.325 165.493 26.375 177.493 26.375C189.418 26.375 198.118 34.325 198.118 46.175C198.118 58.025 189.418 65.9 177.493 65.9C165.493 65.9 156.793 58.025 156.793 46.175ZM168.418 46.1C168.418 51.8 172.093 55.55 177.493 55.55C182.818 55.55 186.493 51.8 186.493 46.1C186.493 40.475 182.818 36.725 177.493 36.725C172.093 36.725 168.418 40.475 168.418 46.1ZM230.614 27.5V38.375H226.939C220.339 38.375 216.364 41.3 216.364 48.725V65H204.814V27.575H215.689L216.289 33.125C217.864 29.45 221.164 26.975 226.189 26.975C227.539 26.975 229.039 27.125 230.614 27.5ZM252.756 65.975C241.431 65.975 233.331 57.725 233.331 46.175C233.331 34.475 241.206 26.3 252.531 26.3C264.306 26.3 271.656 34.025 271.656 46.25V49.175L244.431 49.325C245.106 54.275 247.881 56.6 252.981 56.6C257.331 56.6 260.406 55.025 261.231 52.325H271.806C270.456 60.65 263.031 65.975 252.756 65.975ZM252.606 35.675C248.031 35.675 245.481 37.7 244.581 42.2H260.181C260.181 38.225 257.256 35.675 252.606 35.675ZM313.494 65H301.944V37.1H294.819V27.5H301.944V15.875H313.494V27.5H320.619V37.1H313.494V65ZM337.36 65H325.81V8.45H337.435V31.4C339.76 28.175 344.035 26.3 348.91 26.3C357.835 26.3 363.01 32 363.01 41.825V65H351.46V44.6C351.46 39.875 348.835 36.8 344.86 36.8C340.285 36.8 337.36 39.8 337.36 44.45V65ZM388.693 65.975C377.368 65.975 369.268 57.725 369.268 46.175C369.268 34.475 377.143 26.3 388.468 26.3C400.243 26.3 407.593 34.025 407.593 46.25V49.175L380.368 49.325C381.043 54.275 383.818 56.6 388.918 56.6C393.268 56.6 396.343 55.025 397.168 52.325H407.743C406.393 60.65 398.968 65.975 388.693 65.975ZM388.543 35.675C383.968 35.675 381.418 37.7 380.518 42.2H396.118C396.118 38.225 393.193 35.675 388.543 35.675ZM430.757 27.5H435.932V24.5C435.932 13.325 441.782 8.45 451.307 8.45C452.882 8.45 454.682 8.6 456.482 8.9V18.8H453.257C448.532 18.8 447.482 21.275 447.482 24.5V27.5H456.482V37.1H447.482V65H435.932V37.1H430.757V27.5ZM487.474 27.5V38.375H483.799C477.199 38.375 473.224 41.3 473.224 48.725V65H461.674V27.575H472.549L473.149 33.125C474.724 29.45 478.024 26.975 483.049 26.975C484.399 26.975 485.899 27.125 487.474 27.5ZM509.616 65.975C498.291 65.975 490.191 57.725 490.191 46.175C490.191 34.475 498.066 26.3 509.391 26.3C521.166 26.3 528.516 34.025 528.516 46.25V49.175L501.291 49.325C501.966 54.275 504.741 56.6 509.841 56.6C514.191 56.6 517.266 55.025 518.091 52.325H528.666C527.316 60.65 519.891 65.975 509.616 65.975ZM509.466 35.675C504.891 35.675 502.341 37.7 501.441 42.2H517.041C517.041 38.225 514.116 35.675 509.466 35.675ZM552.756 65.975C541.431 65.975 533.331 57.725 533.331 46.175C533.331 34.475 541.206 26.3 552.531 26.3C564.306 26.3 571.656 34.025 571.656 46.25V49.175L544.431 49.325C545.106 54.275 547.881 56.6 552.981 56.6C557.331 56.6 560.406 55.025 561.231 52.325H571.806C570.456 60.65 563.031 65.975 552.756 65.975ZM552.606 35.675C548.031 35.675 545.481 37.7 544.581 42.2H560.181C560.181 38.225 557.256 35.675 552.606 35.675ZM594.246 65.975C583.446 65.975 576.471 58.325 576.471 46.475C576.471 34.55 583.596 26.3 594.996 26.3C599.646 26.3 604.071 28.175 606.246 30.95V8.45H617.796V65H606.921L606.321 60.2C604.296 63.65 599.646 65.975 594.246 65.975ZM597.021 55.4C602.421 55.4 606.171 51.65 606.171 46.025C606.171 40.4 602.421 36.65 597.021 36.65C591.546 36.65 588.096 40.475 588.096 46.025C588.096 51.575 591.546 55.4 597.021 55.4ZM624.444 46.175C624.444 34.325 633.144 26.375 645.144 26.375C657.069 26.375 665.769 34.325 665.769 46.175C665.769 58.025 657.069 65.9 645.144 65.9C633.144 65.9 624.444 58.025 624.444 46.175ZM636.069 46.1C636.069 51.8 639.744 55.55 645.144 55.55C650.469 55.55 654.144 51.8 654.144 46.1C654.144 40.475 650.469 36.725 645.144 36.725C639.744 36.725 636.069 40.475 636.069 46.1ZM684.015 65H672.465V27.5H683.265L684.015 31.4C685.89 28.775 689.565 26.3 694.965 26.3C700.59 26.3 704.19 28.925 706.365 32.9C708.315 28.925 712.74 26.3 718.14 26.3C727.815 26.3 732.615 31.925 732.615 40.475V65H721.065V43.7C721.065 38.975 718.59 36.725 714.915 36.725C711.615 36.725 708.315 38.525 708.315 44.9V65H696.765V43.7C696.765 39.05 694.365 36.8 690.69 36.8C687.39 36.8 684.015 38.6 684.015 44.9V65ZM2.325 118.175C2.325 106.325 11.025 98.375 23.025 98.375C34.95 98.375 43.65 106.325 43.65 118.175C43.65 130.025 34.95 137.9 23.025 137.9C11.025 137.9 2.325 130.025 2.325 118.175ZM13.95 118.1C13.95 123.8 17.625 127.55 23.025 127.55C28.35 127.55 32.025 123.8 32.025 118.1C32.025 112.475 28.35 108.725 23.025 108.725C17.625 108.725 13.95 112.475 13.95 118.1ZM46.8211 99.5H51.9961V96.5C51.9961 85.325 57.8461 80.45 67.3711 80.45C68.9461 80.45 70.7461 80.6 72.5461 80.9V90.8H69.3211C64.5961 90.8 63.5461 93.275 63.5461 96.5V99.5H72.5461V109.1H63.5461V137H51.9961V109.1H46.8211V99.5ZM95.5623 118.1C95.5623 106.55 103.512 98.3 114.762 98.3C125.862 98.3 133.212 104.375 133.962 114.2H122.337C121.512 110.45 119.187 108.65 115.212 108.65C110.337 108.65 107.187 112.325 107.187 118.1C107.187 124.1 110.112 127.625 115.062 127.625C119.112 127.625 121.587 125.75 122.337 122.075H133.962C133.212 131.525 125.562 137.975 115.062 137.975C103.212 137.975 95.5623 130.1 95.5623 118.1ZM151.613 137.975C143.663 137.975 138.713 133.325 138.713 125.975C138.713 119.075 143.588 114.8 152.588 114.125L163.088 113.3V112.7C163.088 109.025 160.838 107.075 156.713 107.075C151.838 107.075 149.213 108.95 149.213 112.325H139.613C139.613 103.85 146.588 98.3 157.313 98.3C168.188 98.3 174.338 104.375 174.338 115.1V137H164.138L163.388 132.05C162.188 135.5 157.238 137.975 151.613 137.975ZM155.663 129.425C160.088 129.425 163.163 127.25 163.163 122.975V120.95L157.313 121.475C152.288 121.925 150.488 123.05 150.488 125.45C150.488 128.15 152.138 129.425 155.663 129.425ZM208.421 99.5V110.375H204.746C198.146 110.375 194.171 113.3 194.171 120.725V137H182.621V99.575H193.496L194.096 105.125C195.671 101.45 198.971 98.975 203.996 98.975C205.346 98.975 206.846 99.125 208.421 99.5ZM259.911 99.5V110.375H256.236C249.636 110.375 245.661 113.3 245.661 120.725V137H234.111V99.575H244.986L245.586 105.125C247.161 101.45 250.461 98.975 255.486 98.975C256.836 98.975 258.336 99.125 259.911 99.5ZM282.053 137.975C270.728 137.975 262.628 129.725 262.628 118.175C262.628 106.475 270.503 98.3 281.828 98.3C293.603 98.3 300.953 106.025 300.953 118.25V121.175L273.728 121.325C274.403 126.275 277.178 128.6 282.278 128.6C286.628 128.6 289.703 127.025 290.528 124.325H301.103C299.753 132.65 292.328 137.975 282.053 137.975ZM281.903 107.675C277.328 107.675 274.778 109.7 273.878 114.2H289.478C289.478 110.225 286.553 107.675 281.903 107.675ZM319.342 137H307.792V99.5H318.667L319.417 103.4C321.742 100.175 326.017 98.3 330.892 98.3C339.817 98.3 344.992 104 344.992 113.825V137H333.442V116.6C333.442 111.875 330.817 108.8 326.842 108.8C322.267 108.8 319.342 111.8 319.342 116.45V137ZM368.426 137H356.876V109.1H349.751V99.5H356.876V87.875H368.426V99.5H375.551V109.1H368.426V137ZM392.067 137.975C384.117 137.975 379.167 133.325 379.167 125.975C379.167 119.075 384.042 114.8 393.042 114.125L403.542 113.3V112.7C403.542 109.025 401.292 107.075 397.167 107.075C392.292 107.075 389.667 108.95 389.667 112.325H380.067C380.067 103.85 387.042 98.3 397.767 98.3C408.642 98.3 414.792 104.375 414.792 115.1V137H404.592L403.842 132.05C402.642 135.5 397.692 137.975 392.067 137.975ZM396.117 129.425C400.542 129.425 403.617 127.25 403.617 122.975V120.95L397.767 121.475C392.742 121.925 390.942 123.05 390.942 125.45C390.942 128.15 392.592 129.425 396.117 129.425ZM434.626 137H423.076V80.45H434.626V137ZM471.614 137L459.539 99.5H471.689L475.139 111.725C476.039 114.95 476.864 118.625 477.464 122.375C478.139 118.4 478.514 116.975 480.164 111.725L483.989 99.5H495.839L499.364 111.725C499.739 113 501.539 119.975 501.914 122.375C502.364 119.675 504.164 113.075 504.539 111.725L508.139 99.5H520.364L507.239 137H496.514L492.914 125.075C491.039 118.925 490.064 114.5 489.839 112.925C489.539 114.5 488.864 117.425 486.464 125.3L482.864 137H471.614ZM531.168 93.65C527.493 93.65 524.568 90.725 524.568 87.05C524.568 83.375 527.493 80.525 531.168 80.525C534.768 80.525 537.693 83.375 537.693 87.05C537.693 90.725 534.768 93.65 531.168 93.65ZM525.468 137V99.5H537.018V137H525.468ZM560.833 137H549.283V109.1H542.158V99.5H549.283V87.875H560.833V99.5H567.958V109.1H560.833V137ZM584.699 137H573.149V80.45H584.774V103.4C587.099 100.175 591.374 98.3 596.249 98.3C605.174 98.3 610.349 104 610.349 113.825V137H598.799V116.6C598.799 111.875 596.174 108.8 592.199 108.8C587.624 108.8 584.699 111.8 584.699 116.45V137Z" fill="#2E709E"/>
<path d="M27.525 209H5.775V153.5H26.775C43.05 153.5 54.375 164.9 54.375 181.4C54.375 197.6 43.35 209 27.525 209ZM25.575 164.75H17.925V197.75H26.325C35.925 197.75 41.55 191.675 41.55 181.4C41.55 170.9 35.625 164.75 25.575 164.75ZM87.2057 171.5V182.375H83.5307C76.9307 182.375 72.9557 185.3 72.9557 192.725V209H61.4057V171.575H72.2807L72.8807 177.125C74.4557 173.45 77.7557 170.975 82.7807 170.975C84.1307 170.975 85.6307 171.125 87.2057 171.5ZM98.7463 165.65C95.0713 165.65 92.1463 162.725 92.1463 159.05C92.1463 155.375 95.0713 152.525 98.7463 152.525C102.346 152.525 105.271 155.375 105.271 159.05C105.271 162.725 102.346 165.65 98.7463 165.65ZM93.0463 209V171.5H104.596V209H93.0463ZM123.911 209L109.286 171.5H121.736L126.311 184.625C128.186 190.1 129.686 194.825 129.986 196.55C130.436 194.375 132.086 189.5 133.961 184.625L138.986 171.5H150.986L135.311 209H123.911ZM171.237 209.975C159.912 209.975 151.812 201.725 151.812 190.175C151.812 178.475 159.687 170.3 171.012 170.3C182.787 170.3 190.137 178.025 190.137 190.25V193.175L162.912 193.325C163.587 198.275 166.362 200.6 171.462 200.6C175.812 200.6 178.887 199.025 179.712 196.325H190.287C188.937 204.65 181.512 209.975 171.237 209.975ZM171.087 179.675C166.512 179.675 163.962 181.7 163.062 186.2H178.662C178.662 182.225 175.737 179.675 171.087 179.675ZM203.548 209L191.473 171.5H203.623L207.073 183.725C207.973 186.95 208.798 190.625 209.398 194.375C210.073 190.4 210.448 188.975 212.098 183.725L215.923 171.5H227.773L231.298 183.725C231.673 185 233.473 191.975 233.848 194.375C234.298 191.675 236.098 185.075 236.473 183.725L240.073 171.5H252.298L239.173 209H228.448L224.848 197.075C222.973 190.925 221.998 186.5 221.773 184.925C221.473 186.5 220.798 189.425 218.398 197.3L214.798 209H203.548ZM263.102 165.65C259.427 165.65 256.502 162.725 256.502 159.05C256.502 155.375 259.427 152.525 263.102 152.525C266.702 152.525 269.627 155.375 269.627 159.05C269.627 162.725 266.702 165.65 263.102 165.65ZM257.402 209V171.5H268.952V209H257.402ZM274.917 197.15H285.867C286.017 199.775 287.967 201.35 291.492 201.35C295.092 201.35 296.742 200.075 296.742 198.125C296.742 197 296.142 195.8 293.367 195.2L286.467 193.7C279.567 192.2 276.192 189.2 276.192 182.6C276.192 174.8 282.867 170.3 291.867 170.3C300.567 170.3 306.642 175.4 306.642 182.975H295.692C295.692 180.425 294.117 178.7 291.342 178.7C288.717 178.7 287.067 180.05 287.067 182.075C287.067 183.8 288.492 184.775 291.117 185.375L298.092 186.875C304.242 188.225 307.617 191.075 307.617 197.075C307.617 205.1 300.792 209.975 291.042 209.975C281.142 209.975 274.917 204.725 274.917 197.15ZM331.052 209.975C319.727 209.975 311.627 201.725 311.627 190.175C311.627 178.475 319.502 170.3 330.827 170.3C342.602 170.3 349.952 178.025 349.952 190.25V193.175L322.727 193.325C323.402 198.275 326.177 200.6 331.277 200.6C335.627 200.6 338.702 199.025 339.527 196.325H350.102C348.752 204.65 341.327 209.975 331.052 209.975ZM330.902 179.675C326.327 179.675 323.777 181.7 322.877 186.2H338.477C338.477 182.225 335.552 179.675 330.902 179.675Z" fill="#28A99E"/>
<path d="M361.721 209.975C357.896 209.975 354.821 206.9 354.821 203.225C354.821 199.475 357.896 196.4 361.721 196.4C365.396 196.4 368.621 199.475 368.621 203.225C368.621 206.9 365.396 209.975 361.721 209.975Z" fill="#E6A43B"/>
<path d="M4.14 270L0.27 256.986H2.106L4.482 264.942C4.662 265.626 4.842 266.31 5.022 267.3C5.238 266.256 5.436 265.626 5.634 264.942L8.1 256.986H10.008L12.456 264.942C12.672 265.644 12.852 266.328 13.05 267.3C13.266 266.202 13.446 265.536 13.626 264.96L16.02 256.986H17.82L13.896 270H12.204L9.054 259.704L5.868 270H4.14ZM21.0039 269.982H19.3119V256.752H21.0039V262.548C21.5619 261.594 22.6239 260.946 23.9919 260.946C26.2419 260.946 27.3219 262.368 27.3219 264.618V270H25.6299V264.996C25.6299 263.214 24.7839 262.494 23.5239 262.494C21.8859 262.494 21.0039 263.682 21.0039 265.194V269.982ZM33.4634 270.216C30.8714 270.216 29.0894 268.344 29.0894 265.608C29.0894 262.854 30.8354 260.946 33.3914 260.946C35.8934 260.946 37.5314 262.674 37.5314 265.284V265.914L30.7274 265.932C30.8534 267.786 31.8254 268.812 33.4994 268.812C34.8134 268.812 35.6774 268.272 35.9654 267.264H37.5494C37.1174 269.154 35.6414 270.216 33.4634 270.216ZM33.3914 262.368C31.9154 262.368 30.9794 263.25 30.7634 264.798H35.8394C35.8394 263.34 34.8854 262.368 33.3914 262.368ZM41.8174 270H40.1254V262.62H38.3974V261.198H40.1254V258.444H41.8174V261.198H43.5454V262.62H41.8174V270ZM46.7558 269.982H45.0638V256.752H46.7558V262.548C47.3138 261.594 48.3758 260.946 49.7438 260.946C51.9938 260.946 53.0738 262.368 53.0738 264.618V270H51.3818V264.996C51.3818 263.214 50.5358 262.494 49.2758 262.494C47.6378 262.494 46.7558 263.682 46.7558 265.194V269.982ZM59.2154 270.216C56.6234 270.216 54.8414 268.344 54.8414 265.608C54.8414 262.854 56.5874 260.946 59.1434 260.946C61.6454 260.946 63.2834 262.674 63.2834 265.284V265.914L56.4794 265.932C56.6054 267.786 57.5774 268.812 59.2514 268.812C60.5654 268.812 61.4294 268.272 61.7174 267.264H63.3014C62.8694 269.154 61.3934 270.216 59.2154 270.216ZM59.1434 262.368C57.6674 262.368 56.7314 263.25 56.5154 264.798H61.5914C61.5914 263.34 60.6374 262.368 59.1434 262.368ZM70.2132 261.126V262.674H69.4572C67.8552 262.674 66.8652 263.646 66.8652 265.338V270H65.1732V261.216H66.7572L66.8652 262.548C67.2252 261.63 68.1072 261.018 69.3132 261.018C69.6192 261.018 69.8712 261.054 70.2132 261.126ZM75.876 273.942V272.556H77.01C77.82 272.556 78.468 272.43 78.882 271.314L79.188 270.468L75.642 261.198H77.424L79.98 268.29L82.59 261.198H84.336L80.178 271.98C79.584 273.492 78.702 274.122 77.352 274.122C76.794 274.122 76.326 274.05 75.876 273.942ZM84.7769 265.59C84.7769 262.872 86.7209 260.964 89.3669 260.964C91.9949 260.964 93.9389 262.872 93.9389 265.59C93.9389 268.308 91.9949 270.216 89.3669 270.216C86.7209 270.216 84.7769 268.308 84.7769 265.59ZM86.4869 265.59C86.4869 267.426 87.6569 268.704 89.3669 268.704C91.0589 268.704 92.2469 267.426 92.2469 265.59C92.2469 263.754 91.0589 262.476 89.3669 262.476C87.6569 262.476 86.4869 263.754 86.4869 265.59ZM101.685 261.198H103.359V270H101.847L101.667 268.668C101.163 269.586 99.993 270.216 98.697 270.216C96.645 270.216 95.493 268.83 95.493 266.67V261.198H97.185V266.112C97.185 268.002 97.995 268.722 99.291 268.722C100.839 268.722 101.685 267.732 101.685 265.842V261.198ZM107.398 258.084L106.966 261.81H105.994L105.526 258.084C105.418 257.274 105.976 256.932 106.498 256.932C106.948 256.932 107.506 257.274 107.398 258.084ZM114.598 261.126V262.674H113.842C112.24 262.674 111.25 263.646 111.25 265.338V270H109.558V261.216H111.142L111.25 262.548C111.61 261.63 112.492 261.018 113.698 261.018C114.004 261.018 114.256 261.054 114.598 261.126ZM119.667 270.216C117.075 270.216 115.293 268.344 115.293 265.608C115.293 262.854 117.039 260.946 119.595 260.946C122.097 260.946 123.735 262.674 123.735 265.284V265.914L116.931 265.932C117.057 267.786 118.029 268.812 119.703 268.812C121.017 268.812 121.881 268.272 122.169 267.264H123.753C123.321 269.154 121.845 270.216 119.667 270.216ZM119.595 262.368C118.119 262.368 117.183 263.25 116.967 264.798H122.043C122.043 263.34 121.089 262.368 119.595 262.368ZM130.546 273.942V261.198H132.076L132.202 262.782C132.796 261.576 133.984 260.946 135.388 260.946C137.908 260.946 139.474 262.836 139.474 265.536C139.474 268.218 137.998 270.234 135.388 270.234C133.984 270.234 132.814 269.64 132.238 268.56V273.942H130.546ZM132.256 265.608C132.256 267.408 133.3 268.704 135.028 268.704C136.756 268.704 137.782 267.408 137.782 265.608C137.782 263.79 136.756 262.494 135.028 262.494C133.3 262.494 132.256 263.772 132.256 265.608ZM143.067 270H141.375V256.752H143.067V270ZM148.132 270.216C146.242 270.216 145.126 269.154 145.126 267.552C145.126 265.932 146.332 264.924 148.402 264.762L151.174 264.546V264.294C151.174 262.818 150.292 262.296 149.104 262.296C147.682 262.296 146.872 262.926 146.872 263.988H145.396C145.396 262.152 146.908 260.946 149.176 260.946C151.354 260.946 152.83 262.098 152.83 264.474V270H151.39L151.21 268.578C150.76 269.586 149.554 270.216 148.132 270.216ZM148.618 268.902C150.22 268.902 151.192 267.858 151.192 266.202V265.734L148.942 265.914C147.448 266.058 146.836 266.634 146.836 267.498C146.836 268.434 147.52 268.902 148.618 268.902ZM156.865 270H155.173V261.198H156.703L156.883 262.548C157.441 261.54 158.557 260.946 159.799 260.946C162.121 260.946 163.183 262.368 163.183 264.618V270H161.491V264.996C161.491 263.214 160.663 262.494 159.367 262.494C157.783 262.494 156.865 263.628 156.865 265.338V270ZM167.219 270H165.527V261.198H167.057L167.237 262.548C167.795 261.54 168.911 260.946 170.153 260.946C172.475 260.946 173.537 262.368 173.537 264.618V270H171.845V264.996C171.845 263.214 171.017 262.494 169.721 262.494C168.137 262.494 167.219 263.628 167.219 265.338V270ZM176.708 259.11C176.096 259.11 175.592 258.606 175.592 257.994C175.592 257.364 176.096 256.878 176.708 256.878C177.32 256.878 177.824 257.364 177.824 257.994C177.824 258.606 177.32 259.11 176.708 259.11ZM175.88 270V261.198H177.572V270H175.88ZM181.721 270H180.029V261.198H181.559L181.739 262.548C182.297 261.54 183.413 260.946 184.655 260.946C186.977 260.946 188.039 262.368 188.039 264.618V270H186.347V264.996C186.347 263.214 185.519 262.494 184.223 262.494C182.639 262.494 181.721 263.628 181.721 265.338V270ZM189.824 265.374C189.824 262.89 191.426 260.946 193.982 260.946C195.404 260.946 196.502 261.594 197.06 262.692L197.186 261.198H198.698V269.64C198.698 272.412 196.988 274.176 194.288 274.176C191.894 274.176 190.256 272.826 189.932 270.594H191.624C191.84 271.89 192.812 272.646 194.288 272.646C195.944 272.646 197.024 271.566 197.024 269.892V268.128C196.448 269.154 195.296 269.766 193.91 269.766C191.408 269.766 189.824 267.84 189.824 265.374ZM191.516 265.338C191.516 266.994 192.542 268.29 194.198 268.29C195.908 268.29 196.952 267.066 196.952 265.338C196.952 263.646 195.944 262.422 194.216 262.422C192.524 262.422 191.516 263.718 191.516 265.338ZM208.636 270.216C206.746 270.216 205.63 269.154 205.63 267.552C205.63 265.932 206.836 264.924 208.906 264.762L211.678 264.546V264.294C211.678 262.818 210.796 262.296 209.608 262.296C208.186 262.296 207.376 262.926 207.376 263.988H205.9C205.9 262.152 207.412 260.946 209.68 260.946C211.858 260.946 213.334 262.098 213.334 264.474V270H211.894L211.714 268.578C211.264 269.586 210.058 270.216 208.636 270.216ZM209.122 268.902C210.724 268.902 211.696 267.858 211.696 266.202V265.734L209.446 265.914C207.952 266.058 207.34 266.634 207.34 267.498C207.34 268.434 208.024 268.902 209.122 268.902ZM225.639 261.126V262.674H224.883C223.281 262.674 222.291 263.646 222.291 265.338V270H220.599V261.216H222.183L222.291 262.548C222.651 261.63 223.533 261.018 224.739 261.018C225.045 261.018 225.297 261.054 225.639 261.126ZM226.334 265.59C226.334 262.872 228.278 260.964 230.924 260.964C233.552 260.964 235.496 262.872 235.496 265.59C235.496 268.308 233.552 270.216 230.924 270.216C228.278 270.216 226.334 268.308 226.334 265.59ZM228.044 265.59C228.044 267.426 229.214 268.704 230.924 268.704C232.616 268.704 233.804 267.426 233.804 265.59C233.804 263.754 232.616 262.476 230.924 262.476C229.214 262.476 228.044 263.754 228.044 265.59ZM239.943 270.216C238.053 270.216 236.937 269.154 236.937 267.552C236.937 265.932 238.143 264.924 240.213 264.762L242.985 264.546V264.294C242.985 262.818 242.103 262.296 240.915 262.296C239.493 262.296 238.683 262.926 238.683 263.988H237.207C237.207 262.152 238.719 260.946 240.987 260.946C243.165 260.946 244.641 262.098 244.641 264.474V270H243.201L243.021 268.578C242.571 269.586 241.365 270.216 239.943 270.216ZM240.429 268.902C242.031 268.902 243.003 267.858 243.003 266.202V265.734L240.753 265.914C239.259 266.058 238.647 266.634 238.647 267.498C238.647 268.434 239.331 268.902 240.429 268.902ZM250.512 270.216C247.956 270.216 246.408 268.308 246.408 265.626C246.408 262.926 247.974 260.946 250.584 260.946C251.934 260.946 253.068 261.54 253.662 262.62V256.752H255.336V270H253.824L253.68 268.398C253.104 269.604 251.916 270.216 250.512 270.216ZM250.854 268.686C252.582 268.686 253.644 267.408 253.644 265.572C253.644 263.772 252.582 262.476 250.854 262.476C249.126 262.476 248.118 263.772 248.118 265.572C248.118 267.39 249.126 268.686 250.854 268.686ZM265.183 270H263.491V262.62H261.763V261.198H263.491V258.444H265.183V261.198H266.911V262.62H265.183V270ZM273.469 261.126V262.674H272.713C271.111 262.674 270.121 263.646 270.121 265.338V270H268.429V261.216H270.013L270.121 262.548C270.481 261.63 271.363 261.018 272.569 261.018C272.875 261.018 273.127 261.054 273.469 261.126ZM275.884 259.11C275.272 259.11 274.768 258.606 274.768 257.994C274.768 257.364 275.272 256.878 275.884 256.878C276.496 256.878 277 257.364 277 257.994C277 258.606 276.496 259.11 275.884 259.11ZM275.056 270V261.198H276.748V270H275.056ZM279.204 273.942V261.198H280.734L280.86 262.782C281.454 261.576 282.642 260.946 284.046 260.946C286.566 260.946 288.132 262.836 288.132 265.536C288.132 268.218 286.656 270.234 284.046 270.234C282.642 270.234 281.472 269.64 280.896 268.56V273.942H279.204ZM280.914 265.608C280.914 267.408 281.958 268.704 283.686 268.704C285.414 268.704 286.44 267.408 286.44 265.608C286.44 263.79 285.414 262.494 283.686 262.494C281.958 262.494 280.914 263.772 280.914 265.608ZM291.991 269.298C291.991 270.594 291.019 271.674 289.741 271.836V271.08C290.479 270.954 291.001 270.468 291.001 269.91C290.875 269.982 290.731 270.018 290.515 270.018C289.921 270.018 289.417 269.586 289.417 268.92C289.417 268.2 289.903 267.678 290.623 267.678C291.379 267.678 291.991 268.308 291.991 269.298ZM301.041 270H299.349V261.198H300.879L301.059 262.548C301.617 261.54 302.733 260.946 303.975 260.946C306.297 260.946 307.359 262.368 307.359 264.618V270H305.667V264.996C305.667 263.214 304.839 262.494 303.543 262.494C301.959 262.494 301.041 263.628 301.041 265.338V270ZM313.501 270.216C310.909 270.216 309.127 268.344 309.127 265.608C309.127 262.854 310.873 260.946 313.429 260.946C315.931 260.946 317.569 262.674 317.569 265.284V265.914L310.765 265.932C310.891 267.786 311.863 268.812 313.537 268.812C314.851 268.812 315.715 268.272 316.003 267.264H317.587C317.155 269.154 315.679 270.216 313.501 270.216ZM313.429 262.368C311.953 262.368 311.017 263.25 310.801 264.798H315.877C315.877 263.34 314.923 262.368 313.429 262.368ZM323.256 270.216C320.664 270.216 318.882 268.344 318.882 265.608C318.882 262.854 320.628 260.946 323.184 260.946C325.686 260.946 327.324 262.674 327.324 265.284V265.914L320.52 265.932C320.646 267.786 321.618 268.812 323.292 268.812C324.606 268.812 325.47 268.272 325.758 267.264H327.342C326.91 269.154 325.434 270.216 323.256 270.216ZM323.184 262.368C321.708 262.368 320.772 263.25 320.556 264.798H325.632C325.632 263.34 324.678 262.368 323.184 262.368ZM332.742 270.216C330.186 270.216 328.638 268.308 328.638 265.626C328.638 262.926 330.204 260.946 332.814 260.946C334.164 260.946 335.298 261.54 335.892 262.62V256.752H337.566V270H336.054L335.91 268.398C335.334 269.604 334.146 270.216 332.742 270.216ZM333.084 268.686C334.812 268.686 335.874 267.408 335.874 265.572C335.874 263.772 334.812 262.476 333.084 262.476C331.356 262.476 330.348 263.772 330.348 265.572C330.348 267.39 331.356 268.686 333.084 268.686ZM347.503 270.216C345.613 270.216 344.497 269.154 344.497 267.552C344.497 265.932 345.703 264.924 347.773 264.762L350.545 264.546V264.294C350.545 262.818 349.663 262.296 348.475 262.296C347.053 262.296 346.243 262.926 346.243 263.988H344.767C344.767 262.152 346.279 260.946 348.547 260.946C350.725 260.946 352.201 262.098 352.201 264.474V270H350.761L350.581 268.578C350.131 269.586 348.925 270.216 347.503 270.216ZM347.989 268.902C349.591 268.902 350.563 267.858 350.563 266.202V265.734L348.313 265.914C346.819 266.058 346.207 266.634 346.207 267.498C346.207 268.434 346.891 268.902 347.989 268.902ZM364.506 261.126V262.674H363.75C362.148 262.674 361.158 263.646 361.158 265.338V270H359.466V261.216H361.05L361.158 262.548C361.518 261.63 362.4 261.018 363.606 261.018C363.912 261.018 364.164 261.054 364.506 261.126ZM369.575 270.216C366.983 270.216 365.201 268.344 365.201 265.608C365.201 262.854 366.947 260.946 369.503 260.946C372.005 260.946 373.643 262.674 373.643 265.284V265.914L366.839 265.932C366.965 267.786 367.937 268.812 369.611 268.812C370.925 268.812 371.789 268.272 372.077 267.264H373.661C373.229 269.154 371.753 270.216 369.575 270.216ZM369.503 262.368C368.027 262.368 367.091 263.25 366.875 264.798H371.951C371.951 263.34 370.997 262.368 369.503 262.368ZM377.261 270H375.569V256.752H377.261V270ZM380.579 259.11C379.967 259.11 379.463 258.606 379.463 257.994C379.463 257.364 379.967 256.878 380.579 256.878C381.191 256.878 381.695 257.364 381.695 257.994C381.695 258.606 381.191 259.11 380.579 259.11ZM379.751 270V261.198H381.443V270H379.751ZM386.474 270.216C384.584 270.216 383.468 269.154 383.468 267.552C383.468 265.932 384.674 264.924 386.744 264.762L389.516 264.546V264.294C389.516 262.818 388.634 262.296 387.446 262.296C386.024 262.296 385.214 262.926 385.214 263.988H383.738C383.738 262.152 385.25 260.946 387.518 260.946C389.696 260.946 391.172 262.098 391.172 264.474V270H389.732L389.552 268.578C389.102 269.586 387.896 270.216 386.474 270.216ZM386.96 268.902C388.562 268.902 389.534 267.858 389.534 266.202V265.734L387.284 265.914C385.79 266.058 385.178 266.634 385.178 267.498C385.178 268.434 385.862 268.902 386.96 268.902ZM395.045 270H393.515V256.752H395.207V262.71C395.783 261.558 396.971 260.946 398.411 260.946C400.931 260.946 402.443 262.926 402.443 265.644C402.443 268.308 400.859 270.216 398.303 270.216C396.917 270.216 395.747 269.604 395.171 268.398L395.045 270ZM395.225 265.572C395.225 267.408 396.269 268.686 397.997 268.686C399.725 268.686 400.751 267.39 400.751 265.572C400.751 263.772 399.725 262.476 397.997 262.476C396.269 262.476 395.225 263.772 395.225 265.572ZM406.036 270H404.344V256.752H406.036V270ZM412.325 270.216C409.733 270.216 407.951 268.344 407.951 265.608C407.951 262.854 409.697 260.946 412.253 260.946C414.755 260.946 416.393 262.674 416.393 265.284V265.914L409.589 265.932C409.715 267.786 410.687 268.812 412.361 268.812C413.675 268.812 414.539 268.272 414.827 267.264H416.411C415.979 269.154 414.503 270.216 412.325 270.216ZM412.253 262.368C410.777 262.368 409.841 263.25 409.625 264.798H414.701C414.701 263.34 413.747 262.368 412.253 262.368ZM425.67 270L422.124 261.198H423.924L425.85 266.112C426.156 266.94 426.408 267.678 426.552 268.218C426.696 267.642 426.984 266.886 427.29 266.112L429.252 261.198H431.016L427.344 270H425.67ZM435.756 270.216C433.164 270.216 431.382 268.344 431.382 265.608C431.382 262.854 433.128 260.946 435.684 260.946C438.186 260.946 439.824 262.674 439.824 265.284V265.914L433.02 265.932C433.146 267.786 434.118 268.812 435.792 268.812C437.106 268.812 437.97 268.272 438.258 267.264H439.842C439.41 269.154 437.934 270.216 435.756 270.216ZM435.684 262.368C434.208 262.368 433.272 263.25 433.056 264.798H438.132C438.132 263.34 437.178 262.368 435.684 262.368ZM443.406 269.982H441.714V256.752H443.406V262.548C443.964 261.594 445.026 260.946 446.394 260.946C448.644 260.946 449.724 262.368 449.724 264.618V270H448.032V264.996C448.032 263.214 447.186 262.494 445.926 262.494C444.288 262.494 443.406 263.682 443.406 265.194V269.982ZM452.896 259.11C452.284 259.11 451.78 258.606 451.78 257.994C451.78 257.364 452.284 256.878 452.896 256.878C453.508 256.878 454.012 257.364 454.012 257.994C454.012 258.606 453.508 259.11 452.896 259.11ZM452.068 270V261.198H453.76V270H452.068ZM455.64 265.608C455.64 262.854 457.386 260.946 459.96 260.946C462.174 260.946 463.722 262.206 464.028 264.168H462.336C462.048 263.052 461.148 262.458 460.014 262.458C458.412 262.458 457.314 263.682 457.314 265.59C457.314 267.48 458.34 268.704 459.942 268.704C461.148 268.704 462.048 268.074 462.354 267.03H464.046C463.704 268.938 462.066 270.216 459.942 270.216C457.35 270.216 455.64 268.38 455.64 265.608ZM467.559 270H465.867V256.752H467.559V270ZM473.848 270.216C471.256 270.216 469.474 268.344 469.474 265.608C469.474 262.854 471.22 260.946 473.776 260.946C476.278 260.946 477.916 262.674 477.916 265.284V265.914L471.112 265.932C471.238 267.786 472.21 268.812 473.884 268.812C475.198 268.812 476.062 268.272 476.35 267.264H477.934C477.502 269.154 476.026 270.216 473.848 270.216ZM473.776 262.368C472.3 262.368 471.364 263.25 471.148 264.798H476.224C476.224 263.34 475.27 262.368 473.776 262.368ZM483.792 261.198H485.088V259.794C485.088 257.634 486.276 256.752 487.878 256.752C488.202 256.752 488.58 256.77 488.922 256.824V258.282H488.166C487.068 258.282 486.78 258.84 486.78 259.794V261.198H488.868V262.62H486.78V270H485.088V262.62H483.792V261.198ZM489.601 265.59C489.601 262.872 491.545 260.964 494.191 260.964C496.819 260.964 498.763 262.872 498.763 265.59C498.763 268.308 496.819 270.216 494.191 270.216C491.545 270.216 489.601 268.308 489.601 265.59ZM491.311 265.59C491.311 267.426 492.481 268.704 494.191 268.704C495.883 268.704 497.071 267.426 497.071 265.59C497.071 263.754 495.883 262.476 494.191 262.476C492.481 262.476 491.311 263.754 491.311 265.59ZM505.676 261.126V262.674H504.92C503.318 262.674 502.328 263.646 502.328 265.338V270H500.636V261.216H502.22L502.328 262.548C502.688 261.63 503.57 261.018 504.776 261.018C505.082 261.018 505.334 261.054 505.676 261.126ZM514.759 270.216C512.869 270.216 511.753 269.154 511.753 267.552C511.753 265.932 512.959 264.924 515.029 264.762L517.801 264.546V264.294C517.801 262.818 516.919 262.296 515.731 262.296C514.309 262.296 513.499 262.926 513.499 263.988H512.023C512.023 262.152 513.535 260.946 515.803 260.946C517.981 260.946 519.457 262.098 519.457 264.474V270H518.017L517.837 268.578C517.387 269.586 516.181 270.216 514.759 270.216ZM515.245 268.902C516.847 268.902 517.819 267.858 517.819 266.202V265.734L515.569 265.914C514.075 266.058 513.463 266.634 513.463 267.498C513.463 268.434 514.147 268.902 515.245 268.902ZM2.754 294H1.224V280.752H2.916V286.71C3.492 285.558 4.68 284.946 6.12 284.946C8.64 284.946 10.152 286.926 10.152 289.644C10.152 292.308 8.568 294.216 6.012 294.216C4.626 294.216 3.456 293.604 2.88 292.398L2.754 294ZM2.934 289.572C2.934 291.408 3.978 292.686 5.706 292.686C7.434 292.686 8.46 291.39 8.46 289.572C8.46 287.772 7.434 286.476 5.706 286.476C3.978 286.476 2.934 287.772 2.934 289.572ZM17.89 285.198H19.564V294H18.052L17.872 292.668C17.368 293.586 16.198 294.216 14.902 294.216C12.85 294.216 11.698 292.83 11.698 290.67V285.198H13.39V290.112C13.39 292.002 14.2 292.722 15.496 292.722C17.044 292.722 17.89 291.732 17.89 289.842V285.198ZM21.1231 291.444H22.7431C22.7431 292.344 23.4271 292.884 24.5431 292.884C25.7311 292.884 26.4151 292.398 26.4151 291.588C26.4151 290.994 26.1271 290.634 25.2091 290.4L23.6611 290.04C22.0951 289.662 21.3571 288.888 21.3571 287.592C21.3571 285.972 22.7251 284.946 24.6691 284.946C26.5951 284.946 27.8551 286.026 27.8911 287.7H26.2711C26.2351 286.818 25.6411 286.26 24.6151 286.26C23.5531 286.26 22.9591 286.728 22.9591 287.538C22.9591 288.132 23.3911 288.528 24.2551 288.744L25.8031 289.122C27.2971 289.482 28.0351 290.166 28.0351 291.48C28.0351 293.154 26.5951 294.216 24.5071 294.216C22.4371 294.216 21.1231 293.118 21.1231 291.444ZM30.7395 283.11C30.1275 283.11 29.6235 282.606 29.6235 281.994C29.6235 281.364 30.1275 280.878 30.7395 280.878C31.3515 280.878 31.8555 281.364 31.8555 281.994C31.8555 282.606 31.3515 283.11 30.7395 283.11ZM29.9115 294V285.198H31.6035V294H29.9115ZM35.7519 294H34.0599V285.198H35.5899L35.7699 286.548C36.3279 285.54 37.4439 284.946 38.6859 284.946C41.0079 284.946 42.0699 286.368 42.0699 288.618V294H40.3779V288.996C40.3779 287.214 39.5499 286.494 38.2539 286.494C36.6699 286.494 35.7519 287.628 35.7519 289.338V294ZM48.2115 294.216C45.6195 294.216 43.8375 292.344 43.8375 289.608C43.8375 286.854 45.5835 284.946 48.1395 284.946C50.6415 284.946 52.2795 286.674 52.2795 289.284V289.914L45.4755 289.932C45.6015 291.786 46.5735 292.812 48.2475 292.812C49.5615 292.812 50.4255 292.272 50.7135 291.264H52.2975C51.8655 293.154 50.3895 294.216 48.2115 294.216ZM48.1395 286.368C46.6635 286.368 45.7275 287.25 45.5115 288.798H50.5875C50.5875 287.34 49.6335 286.368 48.1395 286.368ZM53.4493 291.444H55.0693C55.0693 292.344 55.7533 292.884 56.8693 292.884C58.0573 292.884 58.7413 292.398 58.7413 291.588C58.7413 290.994 58.4533 290.634 57.5353 290.4L55.9873 290.04C54.4213 289.662 53.6833 288.888 53.6833 287.592C53.6833 285.972 55.0513 284.946 56.9953 284.946C58.9213 284.946 60.1813 286.026 60.2173 287.7H58.5973C58.5613 286.818 57.9673 286.26 56.9413 286.26C55.8793 286.26 55.2853 286.728 55.2853 287.538C55.2853 288.132 55.7173 288.528 56.5813 288.744L58.1293 289.122C59.6233 289.482 60.3613 290.166 60.3613 291.48C60.3613 293.154 58.9213 294.216 56.8333 294.216C54.7633 294.216 53.4493 293.118 53.4493 291.444ZM61.5177 291.444H63.1377C63.1377 292.344 63.8217 292.884 64.9377 292.884C66.1257 292.884 66.8097 292.398 66.8097 291.588C66.8097 290.994 66.5217 290.634 65.6037 290.4L64.0557 290.04C62.4897 289.662 61.7517 288.888 61.7517 287.592C61.7517 285.972 63.1197 284.946 65.0637 284.946C66.9897 284.946 68.2497 286.026 68.2857 287.7H66.6657C66.6297 286.818 66.0357 286.26 65.0097 286.26C63.9477 286.26 63.3537 286.728 63.3537 287.538C63.3537 288.132 63.7857 288.528 64.6497 288.744L66.1977 289.122C67.6917 289.482 68.4297 290.166 68.4297 291.48C68.4297 293.154 66.9897 294.216 64.9017 294.216C62.8317 294.216 61.5177 293.118 61.5177 291.444ZM77.7119 294H76.0199V286.62H74.2919V285.198H76.0199V282.444H77.7119V285.198H79.4399V286.62H77.7119V294ZM85.9984 285.126V286.674H85.2424C83.6404 286.674 82.6504 287.646 82.6504 289.338V294H80.9584V285.216H82.5424L82.6504 286.548C83.0104 285.63 83.8924 285.018 85.0984 285.018C85.4044 285.018 85.6564 285.054 85.9984 285.126ZM88.4133 283.11C87.8013 283.11 87.2973 282.606 87.2973 281.994C87.2973 281.364 87.8013 280.878 88.4133 280.878C89.0253 280.878 89.5293 281.364 89.5293 281.994C89.5293 282.606 89.0253 283.11 88.4133 283.11ZM87.5853 294V285.198H89.2773V294H87.5853ZM91.7338 297.942V285.198H93.2638L93.3898 286.782C93.9838 285.576 95.1718 284.946 96.5758 284.946C99.0958 284.946 100.662 286.836 100.662 289.536C100.662 292.218 99.1858 294.234 96.5758 294.234C95.1718 294.234 94.0018 293.64 93.4258 292.56V297.942H91.7338ZM93.4438 289.608C93.4438 291.408 94.4878 292.704 96.2158 292.704C97.9438 292.704 98.9698 291.408 98.9698 289.608C98.9698 287.79 97.9438 286.494 96.2158 286.494C94.4878 286.494 93.4438 287.772 93.4438 289.608ZM104.52 293.298C104.52 294.594 103.548 295.674 102.27 295.836V295.08C103.008 294.954 103.53 294.468 103.53 293.91C103.404 293.982 103.26 294.018 103.044 294.018C102.45 294.018 101.946 293.586 101.946 292.92C101.946 292.2 102.432 291.678 103.152 291.678C103.908 291.678 104.52 292.308 104.52 293.298ZM111.302 289.59C111.302 286.872 113.246 284.964 115.892 284.964C118.52 284.964 120.464 286.872 120.464 289.59C120.464 292.308 118.52 294.216 115.892 294.216C113.246 294.216 111.302 292.308 111.302 289.59ZM113.012 289.59C113.012 291.426 114.182 292.704 115.892 292.704C117.584 292.704 118.772 291.426 118.772 289.59C118.772 287.754 117.584 286.476 115.892 286.476C114.182 286.476 113.012 287.754 113.012 289.59ZM127.377 285.126V286.674H126.621C125.019 286.674 124.029 287.646 124.029 289.338V294H122.337V285.216H123.921L124.029 286.548C124.389 285.63 125.271 285.018 126.477 285.018C126.783 285.018 127.035 285.054 127.377 285.126ZM134.732 283.11C134.102 283.11 133.616 282.606 133.616 281.994C133.616 281.364 134.102 280.878 134.732 280.878C135.326 280.878 135.848 281.364 135.848 281.994C135.848 282.606 135.326 283.11 134.732 283.11ZM131.654 297.996L131.942 296.466C132.284 296.556 132.482 296.592 132.752 296.592C133.562 296.592 133.886 296.124 133.886 295.134V285.198H135.578V295.296C135.578 297.06 134.606 298.158 132.896 298.158C132.446 298.158 132.158 298.14 131.654 297.996ZM144.119 285.198H145.793V294H144.281L144.101 292.668C143.597 293.586 142.427 294.216 141.131 294.216C139.079 294.216 137.927 292.83 137.927 290.67V285.198H139.619V290.112C139.619 292.002 140.429 292.722 141.725 292.722C143.273 292.722 144.119 291.732 144.119 289.842V285.198ZM147.352 291.444H148.972C148.972 292.344 149.656 292.884 150.772 292.884C151.96 292.884 152.644 292.398 152.644 291.588C152.644 290.994 152.356 290.634 151.438 290.4L149.89 290.04C148.324 289.662 147.586 288.888 147.586 287.592C147.586 285.972 148.954 284.946 150.898 284.946C152.824 284.946 154.084 286.026 154.12 287.7H152.5C152.464 286.818 151.87 286.26 150.844 286.26C149.782 286.26 149.188 286.728 149.188 287.538C149.188 288.132 149.62 288.528 150.484 288.744L152.032 289.122C153.526 289.482 154.264 290.166 154.264 291.48C154.264 293.154 152.824 294.216 150.736 294.216C148.666 294.216 147.352 293.118 147.352 291.444ZM158.624 294H156.932V286.62H155.204V285.198H156.932V282.444H158.624V285.198H160.352V286.62H158.624V294ZM168.682 294L165.802 285.198H167.548L169.006 289.77C169.204 290.418 169.384 291.084 169.546 291.858C169.69 291.084 169.924 290.346 170.122 289.77L171.598 285.198H173.326L174.784 289.77C174.928 290.202 175.216 291.228 175.36 291.858C175.504 291.156 175.666 290.544 175.918 289.77L177.394 285.198H179.158L176.152 294H174.55L173.02 289.284C172.732 288.402 172.552 287.718 172.462 287.232C172.372 287.664 172.21 288.24 171.886 289.302L170.356 294H168.682ZM182.778 294.216C180.888 294.216 179.772 293.154 179.772 291.552C179.772 289.932 180.978 288.924 183.048 288.762L185.82 288.546V288.294C185.82 286.818 184.938 286.296 183.75 286.296C182.328 286.296 181.518 286.926 181.518 287.988H180.042C180.042 286.152 181.554 284.946 183.822 284.946C186 284.946 187.476 286.098 187.476 288.474V294H186.036L185.856 292.578C185.406 293.586 184.2 294.216 182.778 294.216ZM183.264 292.902C184.866 292.902 185.838 291.858 185.838 290.202V289.734L183.588 289.914C182.094 290.058 181.482 290.634 181.482 291.498C181.482 292.434 182.166 292.902 183.264 292.902ZM191.512 294H189.82V285.198H191.35L191.53 286.548C192.088 285.54 193.204 284.946 194.446 284.946C196.768 284.946 197.83 286.368 197.83 288.618V294H196.138V288.996C196.138 287.214 195.31 286.494 194.014 286.494C192.43 286.494 191.512 287.628 191.512 289.338V294ZM202.657 294H200.965V286.62H199.237V285.198H200.965V282.444H202.657V285.198H204.385V286.62H202.657V294ZM213.31 294H211.618V286.62H209.89V285.198H211.618V282.444H213.31V285.198H215.038V286.62H213.31V294ZM218.248 293.982H216.556V280.752H218.248V286.548C218.806 285.594 219.868 284.946 221.236 284.946C223.486 284.946 224.566 286.368 224.566 288.618V294H222.874V288.996C222.874 287.214 222.028 286.494 220.768 286.494C219.13 286.494 218.248 287.682 218.248 289.194V293.982ZM230.708 294.216C228.116 294.216 226.334 292.344 226.334 289.608C226.334 286.854 228.08 284.946 230.636 284.946C233.138 284.946 234.776 286.674 234.776 289.284V289.914L227.972 289.932C228.098 291.786 229.07 292.812 230.744 292.812C232.058 292.812 232.922 292.272 233.21 291.264H234.794C234.362 293.154 232.886 294.216 230.708 294.216ZM230.636 286.368C229.16 286.368 228.224 287.25 228.008 288.798H233.084C233.084 287.34 232.13 286.368 230.636 286.368ZM241.011 289.608C241.011 286.854 242.757 284.946 245.331 284.946C247.545 284.946 249.093 286.206 249.399 288.168H247.707C247.419 287.052 246.519 286.458 245.385 286.458C243.783 286.458 242.685 287.682 242.685 289.59C242.685 291.48 243.711 292.704 245.313 292.704C246.519 292.704 247.419 292.074 247.725 291.03H249.417C249.075 292.938 247.437 294.216 245.313 294.216C242.721 294.216 241.011 292.38 241.011 289.608ZM250.627 289.59C250.627 286.872 252.571 284.964 255.217 284.964C257.845 284.964 259.789 286.872 259.789 289.59C259.789 292.308 257.845 294.216 255.217 294.216C252.571 294.216 250.627 292.308 250.627 289.59ZM252.337 289.59C252.337 291.426 253.507 292.704 255.217 292.704C256.909 292.704 258.097 291.426 258.097 289.59C258.097 287.754 256.909 286.476 255.217 286.476C253.507 286.476 252.337 287.754 252.337 289.59ZM263.354 294H261.662V285.198H263.192L263.372 286.548C263.93 285.54 265.046 284.946 266.288 284.946C268.61 284.946 269.672 286.368 269.672 288.618V294H267.98V288.996C267.98 287.214 267.152 286.494 265.856 286.494C264.272 286.494 263.354 287.628 263.354 289.338V294ZM274.305 294L270.759 285.198H272.559L274.485 290.112C274.791 290.94 275.043 291.678 275.187 292.218C275.331 291.642 275.619 290.886 275.925 290.112L277.887 285.198H279.651L275.979 294H274.305ZM284.391 294.216C281.799 294.216 280.017 292.344 280.017 289.608C280.017 286.854 281.763 284.946 284.319 284.946C286.821 284.946 288.459 286.674 288.459 289.284V289.914L281.655 289.932C281.781 291.786 282.753 292.812 284.427 292.812C285.741 292.812 286.605 292.272 286.893 291.264H288.477C288.045 293.154 286.569 294.216 284.391 294.216ZM284.319 286.368C282.843 286.368 281.907 287.25 281.691 288.798H286.767C286.767 287.34 285.813 286.368 284.319 286.368ZM292.041 294H290.349V285.198H291.879L292.059 286.548C292.617 285.54 293.733 284.946 294.975 284.946C297.297 284.946 298.359 286.368 298.359 288.618V294H296.667V288.996C296.667 287.214 295.839 286.494 294.543 286.494C292.959 286.494 292.041 287.628 292.041 289.338V294ZM301.531 283.11C300.919 283.11 300.415 282.606 300.415 281.994C300.415 281.364 300.919 280.878 301.531 280.878C302.143 280.878 302.647 281.364 302.647 281.994C302.647 282.606 302.143 283.11 301.531 283.11ZM300.703 294V285.198H302.395V294H300.703ZM308.649 294.216C306.057 294.216 304.275 292.344 304.275 289.608C304.275 286.854 306.021 284.946 308.577 284.946C311.079 284.946 312.717 286.674 312.717 289.284V289.914L305.913 289.932C306.039 291.786 307.011 292.812 308.685 292.812C309.999 292.812 310.863 292.272 311.151 291.264H312.735C312.303 293.154 310.827 294.216 308.649 294.216ZM308.577 286.368C307.101 286.368 306.165 287.25 305.949 288.798H311.025C311.025 287.34 310.071 286.368 308.577 286.368ZM316.299 294H314.607V285.198H316.137L316.317 286.548C316.875 285.54 317.991 284.946 319.233 284.946C321.555 284.946 322.617 286.368 322.617 288.618V294H320.925V288.996C320.925 287.214 320.097 286.494 318.801 286.494C317.217 286.494 316.299 287.628 316.299 289.338V294ZM324.384 289.608C324.384 286.854 326.13 284.946 328.704 284.946C330.918 284.946 332.466 286.206 332.772 288.168H331.08C330.792 287.052 329.892 286.458 328.758 286.458C327.156 286.458 326.058 287.682 326.058 289.59C326.058 291.48 327.084 292.704 328.686 292.704C329.892 292.704 330.792 292.074 331.098 291.03H332.79C332.448 292.938 330.81 294.216 328.686 294.216C326.094 294.216 324.384 292.38 324.384 289.608ZM338.374 294.216C335.782 294.216 334 292.344 334 289.608C334 286.854 335.746 284.946 338.302 284.946C340.804 284.946 342.442 286.674 342.442 289.284V289.914L335.638 289.932C335.764 291.786 336.736 292.812 338.41 292.812C339.724 292.812 340.588 292.272 340.876 291.264H342.46C342.028 293.154 340.552 294.216 338.374 294.216ZM338.302 286.368C336.826 286.368 335.89 287.25 335.674 288.798H340.75C340.75 287.34 339.796 286.368 338.302 286.368ZM348.677 289.59C348.677 286.872 350.621 284.964 353.267 284.964C355.895 284.964 357.839 286.872 357.839 289.59C357.839 292.308 355.895 294.216 353.267 294.216C350.621 294.216 348.677 292.308 348.677 289.59ZM350.387 289.59C350.387 291.426 351.557 292.704 353.267 292.704C354.959 292.704 356.147 291.426 356.147 289.59C356.147 287.754 354.959 286.476 353.267 286.476C351.557 286.476 350.387 287.754 350.387 289.59ZM358.724 285.198H360.02V283.794C360.02 281.634 361.208 280.752 362.81 280.752C363.134 280.752 363.512 280.77 363.854 280.824V282.282H363.098C362 282.282 361.712 282.84 361.712 283.794V285.198H363.8V286.62H361.712V294H360.02V286.62H358.724V285.198ZM371.986 293.982H370.294V280.752H371.986V286.548C372.544 285.594 373.606 284.946 374.974 284.946C377.224 284.946 378.304 286.368 378.304 288.618V294H376.612V288.996C376.612 287.214 375.766 286.494 374.506 286.494C372.868 286.494 371.986 287.682 371.986 289.194V293.982ZM383.222 294.216C381.332 294.216 380.216 293.154 380.216 291.552C380.216 289.932 381.422 288.924 383.492 288.762L386.264 288.546V288.294C386.264 286.818 385.382 286.296 384.194 286.296C382.772 286.296 381.962 286.926 381.962 287.988H380.486C380.486 286.152 381.998 284.946 384.266 284.946C386.444 284.946 387.92 286.098 387.92 288.474V294H386.48L386.3 292.578C385.85 293.586 384.644 294.216 383.222 294.216ZM383.708 292.902C385.31 292.902 386.282 291.858 386.282 290.202V289.734L384.032 289.914C382.538 290.058 381.926 290.634 381.926 291.498C381.926 292.434 382.61 292.902 383.708 292.902ZM392.378 294L388.832 285.198H390.632L392.558 290.112C392.864 290.94 393.116 291.678 393.26 292.218C393.404 291.642 393.692 290.886 393.998 290.112L395.96 285.198H397.724L394.052 294H392.378ZM399.898 283.11C399.286 283.11 398.782 282.606 398.782 281.994C398.782 281.364 399.286 280.878 399.898 280.878C400.51 280.878 401.014 281.364 401.014 281.994C401.014 282.606 400.51 283.11 399.898 283.11ZM399.07 294V285.198H400.762V294H399.07ZM404.91 294H403.218V285.198H404.748L404.928 286.548C405.486 285.54 406.602 284.946 407.844 284.946C410.166 284.946 411.228 286.368 411.228 288.618V294H409.536V288.996C409.536 287.214 408.708 286.494 407.412 286.494C405.828 286.494 404.91 287.628 404.91 289.338V294ZM413.014 289.374C413.014 286.89 414.616 284.946 417.172 284.946C418.594 284.946 419.692 285.594 420.25 286.692L420.376 285.198H421.888V293.64C421.888 296.412 420.178 298.176 417.478 298.176C415.084 298.176 413.446 296.826 413.122 294.594H414.814C415.03 295.89 416.002 296.646 417.478 296.646C419.134 296.646 420.214 295.566 420.214 293.892V292.128C419.638 293.154 418.486 293.766 417.1 293.766C414.598 293.766 413.014 291.84 413.014 289.374ZM414.706 289.338C414.706 290.994 415.732 292.29 417.388 292.29C419.098 292.29 420.142 291.066 420.142 289.338C420.142 287.646 419.134 286.422 417.406 286.422C415.714 286.422 414.706 287.718 414.706 289.338ZM431.825 294.216C429.935 294.216 428.819 293.154 428.819 291.552C428.819 289.932 430.025 288.924 432.095 288.762L434.867 288.546V288.294C434.867 286.818 433.985 286.296 432.797 286.296C431.375 286.296 430.565 286.926 430.565 287.988H429.089C429.089 286.152 430.601 284.946 432.869 284.946C435.047 284.946 436.523 286.098 436.523 288.474V294H435.083L434.903 292.578C434.453 293.586 433.247 294.216 431.825 294.216ZM432.311 292.902C433.913 292.902 434.885 291.858 434.885 290.202V289.734L432.635 289.914C431.141 290.058 430.529 290.634 430.529 291.498C430.529 292.434 431.213 292.902 432.311 292.902ZM443.212 289.608C443.212 286.854 444.958 284.946 447.532 284.946C449.746 284.946 451.294 286.206 451.6 288.168H449.908C449.62 287.052 448.72 286.458 447.586 286.458C445.984 286.458 444.886 287.682 444.886 289.59C444.886 291.48 445.912 292.704 447.514 292.704C448.72 292.704 449.62 292.074 449.926 291.03H451.618C451.276 292.938 449.638 294.216 447.514 294.216C444.922 294.216 443.212 292.38 443.212 289.608ZM455.978 294.216C454.088 294.216 452.972 293.154 452.972 291.552C452.972 289.932 454.178 288.924 456.248 288.762L459.02 288.546V288.294C459.02 286.818 458.138 286.296 456.95 286.296C455.528 286.296 454.718 286.926 454.718 287.988H453.242C453.242 286.152 454.754 284.946 457.022 284.946C459.2 284.946 460.676 286.098 460.676 288.474V294H459.236L459.056 292.578C458.606 293.586 457.4 294.216 455.978 294.216ZM456.464 292.902C458.066 292.902 459.038 291.858 459.038 290.202V289.734L456.788 289.914C455.294 290.058 454.682 290.634 454.682 291.498C454.682 292.434 455.366 292.902 456.464 292.902ZM468.059 285.126V286.674H467.303C465.701 286.674 464.711 287.646 464.711 289.338V294H463.019V285.216H464.603L464.711 286.548C465.071 285.63 465.953 285.018 467.159 285.018C467.465 285.018 467.717 285.054 468.059 285.126ZM477.142 294.216C475.252 294.216 474.136 293.154 474.136 291.552C474.136 289.932 475.342 288.924 477.412 288.762L480.184 288.546V288.294C480.184 286.818 479.302 286.296 478.114 286.296C476.692 286.296 475.882 286.926 475.882 287.988H474.406C474.406 286.152 475.918 284.946 478.186 284.946C480.364 284.946 481.84 286.098 481.84 288.474V294H480.4L480.22 292.578C479.77 293.586 478.564 294.216 477.142 294.216ZM477.628 292.902C479.23 292.902 480.202 291.858 480.202 290.202V289.734L477.952 289.914C476.458 290.058 475.846 290.634 475.846 291.498C475.846 292.434 476.53 292.902 477.628 292.902ZM486.526 294H484.834V286.62H483.106V285.198H484.834V282.444H486.526V285.198H488.254V286.62H486.526V294ZM493.849 297.942V296.556H494.983C495.793 296.556 496.441 296.43 496.855 295.314L497.161 294.468L493.615 285.198H495.397L497.953 292.29L500.563 285.198H502.309L498.151 295.98C497.557 297.492 496.675 298.122 495.325 298.122C494.767 298.122 494.299 298.05 493.849 297.942ZM502.75 289.59C502.75 286.872 504.694 284.964 507.34 284.964C509.968 284.964 511.912 286.872 511.912 289.59C511.912 292.308 509.968 294.216 507.34 294.216C504.694 294.216 502.75 292.308 502.75 289.59ZM504.46 289.59C504.46 291.426 505.63 292.704 507.34 292.704C509.032 292.704 510.22 291.426 510.22 289.59C510.22 287.754 509.032 286.476 507.34 286.476C505.63 286.476 504.46 287.754 504.46 289.59ZM519.658 285.198H521.332V294H519.82L519.64 292.668C519.136 293.586 517.966 294.216 516.67 294.216C514.618 294.216 513.466 292.83 513.466 290.67V285.198H515.158V290.112C515.158 292.002 515.968 292.722 517.264 292.722C518.812 292.722 519.658 291.732 519.658 289.842V285.198ZM528.827 285.126V286.674H528.071C526.469 286.674 525.479 287.646 525.479 289.338V294H523.787V285.216H525.371L525.479 286.548C525.839 285.63 526.721 285.018 527.927 285.018C528.233 285.018 528.485 285.054 528.827 285.126ZM4.752 318.216C2.196 318.216 0.648 316.308 0.648 313.626C0.648 310.926 2.214 308.946 4.824 308.946C6.174 308.946 7.308 309.54 7.902 310.62V304.752H9.576V318H8.064L7.92 316.398C7.344 317.604 6.156 318.216 4.752 318.216ZM5.094 316.686C6.822 316.686 7.884 315.408 7.884 313.572C7.884 311.772 6.822 310.476 5.094 310.476C3.366 310.476 2.358 311.772 2.358 313.572C2.358 315.39 3.366 316.686 5.094 316.686ZM12.845 307.11C12.233 307.11 11.729 306.606 11.729 305.994C11.729 305.364 12.233 304.878 12.845 304.878C13.457 304.878 13.961 305.364 13.961 305.994C13.961 306.606 13.457 307.11 12.845 307.11ZM12.017 318V309.198H13.709V318H12.017ZM15.4454 315.444H17.0654C17.0654 316.344 17.7494 316.884 18.8654 316.884C20.0534 316.884 20.7374 316.398 20.7374 315.588C20.7374 314.994 20.4494 314.634 19.5314 314.4L17.9834 314.04C16.4174 313.662 15.6794 312.888 15.6794 311.592C15.6794 309.972 17.0474 308.946 18.9914 308.946C20.9174 308.946 22.1774 310.026 22.2134 311.7H20.5934C20.5574 310.818 19.9634 310.26 18.9374 310.26C17.8754 310.26 17.2814 310.728 17.2814 311.538C17.2814 312.132 17.7134 312.528 18.5774 312.744L20.1254 313.122C21.6194 313.482 22.3574 314.166 22.3574 315.48C22.3574 317.154 20.9174 318.216 18.8294 318.216C16.7594 318.216 15.4454 317.118 15.4454 315.444ZM24.2338 321.942V309.198H25.7638L25.8898 310.782C26.4838 309.576 27.6718 308.946 29.0758 308.946C31.5958 308.946 33.1618 310.836 33.1618 313.536C33.1618 316.218 31.6858 318.234 29.0758 318.234C27.6718 318.234 26.5018 317.64 25.9258 316.56V321.942H24.2338ZM25.9438 313.608C25.9438 315.408 26.9878 316.704 28.7158 316.704C30.4438 316.704 31.4698 315.408 31.4698 313.608C31.4698 311.79 30.4438 310.494 28.7158 310.494C26.9878 310.494 25.9438 311.772 25.9438 313.608ZM34.4507 313.59C34.4507 310.872 36.3947 308.964 39.0407 308.964C41.6687 308.964 43.6127 310.872 43.6127 313.59C43.6127 316.308 41.6687 318.216 39.0407 318.216C36.3947 318.216 34.4507 316.308 34.4507 313.59ZM36.1607 313.59C36.1607 315.426 37.3307 316.704 39.0407 316.704C40.7327 316.704 41.9207 315.426 41.9207 313.59C41.9207 311.754 40.7327 310.476 39.0407 310.476C37.3307 310.476 36.1607 311.754 36.1607 313.59ZM44.7657 315.444H46.3857C46.3857 316.344 47.0697 316.884 48.1857 316.884C49.3737 316.884 50.0577 316.398 50.0577 315.588C50.0577 314.994 49.7697 314.634 48.8517 314.4L47.3037 314.04C45.7377 313.662 44.9997 312.888 44.9997 311.592C44.9997 309.972 46.3677 308.946 48.3117 308.946C50.2377 308.946 51.4977 310.026 51.5337 311.7H49.9137C49.8777 310.818 49.2837 310.26 48.2577 310.26C47.1957 310.26 46.6017 310.728 46.6017 311.538C46.6017 312.132 47.0337 312.528 47.8977 312.744L49.4457 313.122C50.9397 313.482 51.6777 314.166 51.6777 315.48C51.6777 317.154 50.2377 318.216 48.1497 318.216C46.0797 318.216 44.7657 317.118 44.7657 315.444ZM56.1281 318.216C54.2381 318.216 53.1221 317.154 53.1221 315.552C53.1221 313.932 54.3281 312.924 56.3981 312.762L59.1701 312.546V312.294C59.1701 310.818 58.2881 310.296 57.1001 310.296C55.6781 310.296 54.8681 310.926 54.8681 311.988H53.3921C53.3921 310.152 54.9041 308.946 57.1721 308.946C59.3501 308.946 60.8261 310.098 60.8261 312.474V318H59.3861L59.2061 316.578C58.7561 317.586 57.5501 318.216 56.1281 318.216ZM56.6141 316.902C58.2161 316.902 59.1881 315.858 59.1881 314.202V313.734L56.9381 313.914C55.4441 314.058 54.8321 314.634 54.8321 315.498C54.8321 316.434 55.5161 316.902 56.6141 316.902ZM64.8973 318H63.2053V304.752H64.8973V318ZM69.9261 317.298C69.9261 318.594 68.9541 319.674 67.6761 319.836V319.08C68.4141 318.954 68.9361 318.468 68.9361 317.91C68.8101 317.982 68.6661 318.018 68.4501 318.018C67.8561 318.018 67.3521 317.586 67.3521 316.92C67.3521 316.2 67.8381 315.678 68.5581 315.678C69.3141 315.678 69.9261 316.308 69.9261 317.298ZM79.1745 318L76.2945 309.198H78.0405L79.4985 313.77C79.6965 314.418 79.8765 315.084 80.0385 315.858C80.1825 315.084 80.4165 314.346 80.6145 313.77L82.0905 309.198H83.8185L85.2765 313.77C85.4205 314.202 85.7085 315.228 85.8525 315.858C85.9965 315.156 86.1585 314.544 86.4105 313.77L87.8865 309.198H89.6505L86.6445 318H85.0425L83.5125 313.284C83.2245 312.402 83.0445 311.718 82.9545 311.232C82.8645 311.664 82.7025 312.24 82.3785 313.302L80.8485 318H79.1745ZM94.4947 318.216C91.9027 318.216 90.1207 316.344 90.1207 313.608C90.1207 310.854 91.8667 308.946 94.4227 308.946C96.9247 308.946 98.5627 310.674 98.5627 313.284V313.914L91.7587 313.932C91.8847 315.786 92.8567 316.812 94.5307 316.812C95.8447 316.812 96.7087 316.272 96.9967 315.264H98.5807C98.1487 317.154 96.6727 318.216 94.4947 318.216ZM94.4227 310.368C92.9467 310.368 92.0107 311.25 91.7947 312.798H96.8707C96.8707 311.34 95.9167 310.368 94.4227 310.368ZM101.861 306.084L101.429 309.81H100.457L99.9887 306.084C99.8807 305.274 100.439 304.932 100.961 304.932C101.411 304.932 101.969 305.274 101.861 306.084ZM106.487 318L102.941 309.198H104.741L106.667 314.112C106.973 314.94 107.225 315.678 107.369 316.218C107.513 315.642 107.801 314.886 108.107 314.112L110.069 309.198H111.833L108.161 318H106.487ZM116.573 318.216C113.981 318.216 112.199 316.344 112.199 313.608C112.199 310.854 113.945 308.946 116.501 308.946C119.003 308.946 120.641 310.674 120.641 313.284V313.914L113.837 313.932C113.963 315.786 114.935 316.812 116.609 316.812C117.923 316.812 118.787 316.272 119.075 315.264H120.659C120.227 317.154 118.751 318.216 116.573 318.216ZM116.501 310.368C115.025 310.368 114.089 311.25 113.873 312.798H118.949C118.949 311.34 117.995 310.368 116.501 310.368ZM126.895 313.374C126.895 310.89 128.497 308.946 131.053 308.946C132.475 308.946 133.573 309.594 134.131 310.692L134.257 309.198H135.769V317.64C135.769 320.412 134.059 322.176 131.359 322.176C128.965 322.176 127.327 320.826 127.003 318.594H128.695C128.911 319.89 129.883 320.646 131.359 320.646C133.015 320.646 134.095 319.566 134.095 317.892V316.128C133.519 317.154 132.367 317.766 130.981 317.766C128.479 317.766 126.895 315.84 126.895 313.374ZM128.587 313.338C128.587 314.994 129.613 316.29 131.269 316.29C132.979 316.29 134.023 315.066 134.023 313.338C134.023 311.646 133.015 310.422 131.287 310.422C129.595 310.422 128.587 311.718 128.587 313.338ZM137.634 313.59C137.634 310.872 139.578 308.964 142.224 308.964C144.852 308.964 146.796 310.872 146.796 313.59C146.796 316.308 144.852 318.216 142.224 318.216C139.578 318.216 137.634 316.308 137.634 313.59ZM139.344 313.59C139.344 315.426 140.514 316.704 142.224 316.704C143.916 316.704 145.104 315.426 145.104 313.59C145.104 311.754 143.916 310.476 142.224 310.476C140.514 310.476 139.344 311.754 139.344 313.59ZM151.065 318H149.373V310.62H147.645V309.198H149.373V306.444H151.065V309.198H152.793V310.62H151.065V318ZM158.388 321.942V320.556H159.522C160.332 320.556 160.98 320.43 161.394 319.314L161.7 318.468L158.154 309.198H159.936L162.492 316.29L165.102 309.198H166.848L162.69 319.98C162.096 321.492 161.214 322.122 159.864 322.122C159.306 322.122 158.838 322.05 158.388 321.942ZM167.289 313.59C167.289 310.872 169.233 308.964 171.879 308.964C174.507 308.964 176.451 310.872 176.451 313.59C176.451 316.308 174.507 318.216 171.879 318.216C169.233 318.216 167.289 316.308 167.289 313.59ZM168.999 313.59C168.999 315.426 170.169 316.704 171.879 316.704C173.571 316.704 174.759 315.426 174.759 313.59C174.759 311.754 173.571 310.476 171.879 310.476C170.169 310.476 168.999 311.754 168.999 313.59ZM184.197 309.198H185.871V318H184.359L184.179 316.668C183.675 317.586 182.505 318.216 181.209 318.216C179.157 318.216 178.005 316.83 178.005 314.67V309.198H179.697V314.112C179.697 316.002 180.507 316.722 181.803 316.722C183.351 316.722 184.197 315.732 184.197 313.842V309.198ZM192.671 313.608C192.671 310.854 194.417 308.946 196.991 308.946C199.205 308.946 200.753 310.206 201.059 312.168H199.367C199.079 311.052 198.179 310.458 197.045 310.458C195.443 310.458 194.345 311.682 194.345 313.59C194.345 315.48 195.371 316.704 196.973 316.704C198.179 316.704 199.079 316.074 199.385 315.03H201.077C200.735 316.938 199.097 318.216 196.973 318.216C194.381 318.216 192.671 316.38 192.671 313.608ZM202.287 313.59C202.287 310.872 204.231 308.964 206.877 308.964C209.505 308.964 211.449 310.872 211.449 313.59C211.449 316.308 209.505 318.216 206.877 318.216C204.231 318.216 202.287 316.308 202.287 313.59ZM203.997 313.59C203.997 315.426 205.167 316.704 206.877 316.704C208.569 316.704 209.757 315.426 209.757 313.59C209.757 311.754 208.569 310.476 206.877 310.476C205.167 310.476 203.997 311.754 203.997 313.59ZM215.383 318L211.837 309.198H213.637L215.563 314.112C215.869 314.94 216.121 315.678 216.265 316.218C216.409 315.642 216.697 314.886 217.003 314.112L218.965 309.198H220.729L217.057 318H215.383ZM225.469 318.216C222.877 318.216 221.095 316.344 221.095 313.608C221.095 310.854 222.841 308.946 225.397 308.946C227.899 308.946 229.537 310.674 229.537 313.284V313.914L222.733 313.932C222.859 315.786 223.831 316.812 225.505 316.812C226.819 316.812 227.683 316.272 227.971 315.264H229.555C229.123 317.154 227.647 318.216 225.469 318.216ZM225.397 310.368C223.921 310.368 222.985 311.25 222.769 312.798H227.845C227.845 311.34 226.891 310.368 225.397 310.368ZM236.467 309.126V310.674H235.711C234.109 310.674 233.119 311.646 233.119 313.338V318H231.427V309.216H233.011L233.119 310.548C233.479 309.63 234.361 309.018 235.567 309.018C235.873 309.018 236.125 309.054 236.467 309.126ZM241.536 318.216C238.944 318.216 237.162 316.344 237.162 313.608C237.162 310.854 238.908 308.946 241.464 308.946C243.966 308.946 245.604 310.674 245.604 313.284V313.914L238.8 313.932C238.926 315.786 239.898 316.812 241.572 316.812C242.886 316.812 243.75 316.272 244.038 315.264H245.622C245.19 317.154 243.714 318.216 241.536 318.216ZM241.464 310.368C239.988 310.368 239.052 311.25 238.836 312.798H243.912C243.912 311.34 242.958 310.368 241.464 310.368ZM251.022 318.216C248.466 318.216 246.918 316.308 246.918 313.626C246.918 310.926 248.484 308.946 251.094 308.946C252.444 308.946 253.578 309.54 254.172 310.62V304.752H255.846V318H254.334L254.19 316.398C253.614 317.604 252.426 318.216 251.022 318.216ZM251.364 316.686C253.092 316.686 254.154 315.408 254.154 313.572C254.154 311.772 253.092 310.476 251.364 310.476C249.636 310.476 248.628 311.772 248.628 313.572C248.628 315.39 249.636 316.686 251.364 316.686ZM259.547 318.216C258.845 318.216 258.25 317.64 258.25 316.956C258.25 316.254 258.845 315.678 259.547 315.678C260.231 315.678 260.825 316.254 260.825 316.956C260.825 317.64 260.231 318.216 259.547 318.216Z" fill="#2E709E"/>
<defs>
<linearGradient id="paint0_linear_117_2968" x1="1721" y1="-52" x2="970" y2="358" gradientUnits="userSpaceOnUse">
<stop stop-color="#28A99E"/>
<stop offset="1" stop-color="#B3E0BC" stop-opacity="0"/>
</linearGradient>
</defs>
</svg>
