<?xml version="1.0" encoding="utf-8"?>
<!-- Generator: Adobe Illustrator 27.5.0, SVG Export Plug-In . SVG Version: 6.00 Build 0)  -->
<svg version="1.1" xmlns="http://www.w3.org/2000/svg" xmlns:xlink="http://www.w3.org/1999/xlink" x="0px" y="0px"
	 viewBox="0 0 3710 3710" style="enable-background:new 0 0 3710 3710;" xml:space="preserve">
<g id="Background">
	<g>
		<g>
			<rect style="fill:#FFFFFF;" width="3710" height="3710"/>
		</g>
	</g>
</g>
<g id="Illustration">
	<g>
		<linearGradient id="SVGID_1_" gradientUnits="userSpaceOnUse" x1="3597.8901" y1="4031.6265" x2="1136.028" y2="974.1481">
			<stop  offset="0" style="stop-color:#DAE3FE"/>
			<stop  offset="1" style="stop-color:#E9EFFD"/>
		</linearGradient>
		<path style="fill:url(#SVGID_1_);" d="M2903.027,2839.98c-56.845,59.844-110.631,98.436-153.126,128.927
			c-499.524,358.414-1090.594,253.938-1216.213,228.424c-185.5-37.676-544.067-110.503-803.304-415.361
			c-392.205-461.225-331.133-1187.871-26.912-1667.541c55.647-87.74,333.035-528.879,930.471-606.975
			c361.562-47.263,852.372-9.932,1157.585,245.776C3432.198,1289.986,3333.797,2386.48,2903.027,2839.98z"/>
		<g>
			<path style="fill:#BDD0FB;" d="M2973.597,1774.558c44.355-34.214,196.569,55.554,274.764-33.993l-14.718-118.967
				c0,0-126.658,80.048-192.544,71.354c-65.886-8.694-45.815-46.706-7.333-59.276c38.48-12.569,154.921-2.457,182.999-43.762
				c0,0,21.996-32.881-25.468-52.582c-47.463-19.7-59.267-108.991-45.549-145.866c0,0-20.107,11.368-77.678,15.641
				c-57.571,4.273-115.823,4.454-116.038,56.582c-0.217,52.126,25.829,117.95-3.149,131.764
				c-28.978,13.813-101.395-96.109-34.482-175.365c0,0-92.084-0.185-112.606,19.962c-20.523,20.147-23.742,76.805,27.177,136.993
				c50.92,60.189,56.217,103.007,34.484,113.368c-21.733,10.361-143.236-186.274-84.329-247.557c0,0-157.915,67.14-171.115,84.462
				c-13.2,17.322,33.624,106.422,82.347,148.844c48.721,42.424,56.656,106.568,43.964,127.999
				c-12.692,21.43-37.776-57.298-66.702-84.406c-28.926-27.108-91.05-177.862-91.05-177.862s-2.278,22.933-52.194,53.53
				c-49.917,30.596-114.233,110.156-90.345,137.887c23.889,27.731,162.642,136.427,191.508,183.722
				c28.866,47.296,41.996,91.409,12.283,78.609c-29.714-12.799-67.888-73.318-108.056-108.61
				c-40.167-35.291-154.652-113.188-148.94-149.697c0,0-108.696,113.585-50.97,249.447c0,0,66.616,42.373,140.924,43.573
				c74.309,1.199,105.468,5.016,113.622,29.579c8.153,24.564-43.155,23.24-89.427,21.293
				c-46.271-1.947-153.966-4.295-175.317-32.176c0,0,98.831,199.409,244.366,156.22c136.486-40.502,144.944-61.413,145.469-63.857
				c-1.3,9.22-38.216,288.437,270.378,221.275c0,0-74.7-4.369-93.246-50.92c-18.545-46.55-91.327-97.422-60.234-114.804
				c31.094-17.382,98.061,151.85,174.492,149.533c76.43-2.318,156.053-87.718,144.103-171.213c0,0-61.337,34.075-129.692-1.69
				c-68.355-35.766-150.778-102.542-90.469-111.154c60.309-8.612,219.917,116.39,268.49,99.381
				c48.571-17.009,61.075-197.563,61.075-197.563s-24.719,10.73-115.62,14.304c-90.903,3.575-195.007-11.09-179.593-31.191
				c15.415-20.101,82.69-5.736,143.309,4.829c60.619,10.564,138.15-8.671,145.396-40.547c7.245-31.876,5.05-134.163,5.05-134.163
				s-115.425,27.716-166.45,45.346C3035.453,1840.468,2929.243,1808.772,2973.597,1774.558z M2807.345,2083.428
				c-71.328-19.374-15.856-48.079,25.783-59.379C2864.738,2015.471,2878.672,2102.803,2807.345,2083.428z M2871.022,1958.279
				c-47.482-11.734-54.543-36.06-29.377-46.318C2899.472,1888.392,2918.504,1970.012,2871.022,1958.279z M2922.755,1818.34
				c-26.156-4.705-34.893-13.316-14.644-35.681S2948.909,1823.045,2922.755,1818.34z"/>
		</g>
		<g>
			<path style="fill:#91B3FA;" d="M1902.573,2342.204c0,0-380.356-1187.434-1025.313-1801.33
				c-43.356-41.267-115.167-18.501-126.462,40.279C675.27,974.201,563.601,2157.314,1902.573,2342.204z"/>
			<path style="opacity:0.5;fill:#FFFFFF;" d="M1776.015,2273.549c3.177,2.658-0.379,7.526-3.883,5.318
				c-129.215-81.384-636.162-491.194-879.537-1367.349c-0.782-2.815,3.337-4.229,4.358-1.493
				C972.248,1111.655,1273.657,1853.297,1776.015,2273.549z"/>
		</g>
		<g>
			<path style="fill:#BDD0FB;" d="M1703.56,2670.892c0,0-520.899-838.507-1134.453-1185.615
				c-41.245-23.333-91.999,7.987-89.345,55.3C497.51,1856.945,639.76,2786.954,1703.56,2670.892z"/>
			<path style="opacity:0.5;fill:#FFFFFF;" d="M1593.148,2642.562c2.952,1.428,1.16,5.852-1.957,4.832
				c-114.906-37.592-583.154-254.582-938.882-880.463c-1.143-2.011,1.747-3.891,3.059-1.986
				C752.042,1905.263,1126.411,2416.669,1593.148,2642.562z"/>
		</g>
		<g>
			<g>
				<g>
					
						<linearGradient id="SVGID_00000125563003284711556460000009246378014051399359_" gradientUnits="userSpaceOnUse" x1="2977.2847" y1="547.143" x2="594.1167" y2="3677.3679">
						<stop  offset="0" style="stop-color:#09005D"/>
						<stop  offset="1" style="stop-color:#1A0F91"/>
					</linearGradient>
					<path style="fill:url(#SVGID_00000125563003284711556460000009246378014051399359_);" d="M1310.508,502.774l1491.207,16.421
						c82.432,0.908,147.084,72.029,147.031,161.388l-1.325,2210.492c-0.037,61.839-50.104,113.129-110.492,113.396l-1598.724,7.055
						c-56.409,0.249-102.682-46.93-102.682-104.853V691.317C1135.522,586.358,1213.857,501.71,1310.508,502.774z"/>
					<path style="fill:#7D97F4;" d="M2730.191,621.552H1374.127c-56.87,0-96.634,44.351-96.634,99.746v1973.67
						c0,55.395,39.765,97.962,96.634,97.962h1356.065c56.869,0,102.115-42.567,102.115-97.962V721.297
						C2832.306,665.902,2787.06,621.552,2730.191,621.552z"/>
					<path style="opacity:0.5;fill:#FFFFFF;" d="M2678.739,705.324H1432.027c-52.284,0-94.219,41.801-94.219,92.182v1795.011
						c0,50.381,41.935,89.833,94.219,89.833h1246.712c52.283,0,96.602-39.452,96.602-89.833V797.506
						C2775.341,747.125,2731.022,705.324,2678.739,705.324z"/>
				</g>
			</g>
			<g>
				<path style="fill:#FFFFFF;" d="M1847.144,992.241c0,8.099-6.565,14.664-14.664,14.664h-469.955
					c-8.099,0-14.664-6.565-14.664-14.664v-0.831c0-8.099,6.565-14.664,14.664-14.664h469.955c8.099,0,14.664,6.565,14.664,14.664
					V992.241z"/>
				<path style="fill:#FFFFFF;" d="M1847.144,1076.013c0,8.099-6.565,14.664-14.664,14.664h-469.955
					c-8.099,0-14.664-6.565-14.664-14.664v-0.831c0-8.099,6.565-14.664,14.664-14.664h469.955c8.099,0,14.664,6.565,14.664,14.664
					V1076.013z"/>
				<path style="fill:#FFFFFF;" d="M1847.144,1153.083c0,8.099-6.565,14.664-14.664,14.664h-469.955
					c-8.099,0-14.664-6.565-14.664-14.664v-0.831c0-8.099,6.565-14.664,14.664-14.664h469.955c8.099,0,14.664,6.565,14.664,14.664
					V1153.083z"/>
			</g>
			<g>
				
					<linearGradient id="SVGID_00000073685116870280659670000005544301557990506892_" gradientUnits="userSpaceOnUse" x1="2112.7234" y1="1383.2231" x2="2067.4888" y2="1865.7288">
					<stop  offset="0" style="stop-color:#4F52FF"/>
					<stop  offset="1" style="stop-color:#4042E2"/>
				</linearGradient>
				<path style="fill:url(#SVGID_00000073685116870280659670000005544301557990506892_);" d="M2529.017,2161.53
					c0-59.877-48.54-108.416-108.417-108.416h-766.873c-59.877,0-108.417,48.54-108.417,108.416v55.332
					c0,59.877,48.54,108.417,108.417,108.417H2420.6c59.877,0,108.417-48.54,108.417-108.417V2161.53z"/>
				<g>
					<path style="fill:#FFFFFF;" d="M1771.5,2209.893v63.822h-47.386v-175.389h57.464c47.666,0,71.499,17.275,71.499,51.825
						c0,20.315-9.918,36.031-29.751,47.146l51.105,76.418h-53.744l-37.189-63.822H1771.5z M1771.5,2174.263h8.877
						c16.555,0,24.833-7.318,24.833-21.954c0-12.075-8.118-18.115-24.353-18.115h-9.357V2174.263z"/>
					<path style="fill:#FFFFFF;" d="M1994.516,2273.715h-104.13v-175.389h104.13v38.029h-56.744v27.592h52.545v38.029h-52.545v33.11
						h56.744V2273.715z"/>
					<path style="fill:#FFFFFF;" d="M2192.219,2273.715h-62.142l-64.062-123.564h-1.08c1.519,19.434,2.279,34.271,2.279,44.507
						v79.057h-41.988v-175.389h61.902l63.822,121.885h0.72c-1.121-17.674-1.679-31.87-1.679-42.588v-79.297h42.228V2273.715z"/>
					<path style="fill:#FFFFFF;" d="M2307.506,2273.715h-47.386v-136.64h-42.828v-38.749h132.922v38.749h-42.708V2273.715z"/>
				</g>
			</g>
			<g style="opacity:0.8;">
				<path style="fill:#FFFFFF;" d="M2273.952,1416.05h-133.2c-12.631,0-22.965,10.334-22.965,22.965v82.806
					c2.732-0.633,5.459-1.317,8.175-2.146c19.884-6.089,37.233-16.859,51.576-30.927c0.424-17.388,14.621-31.36,32.111-31.36
					c17.757,0,32.152,14.394,32.152,32.152c0,17.758-14.395,32.152-32.152,32.152c-5.374,0-10.429-1.337-14.88-3.667
					c-16.639,15.405-36.397,27.256-58.86,34.134c-6.008,1.841-12.057,3.272-18.121,4.326v300.502
					c0,12.631,10.334,22.965,22.965,22.965h133.2c12.631,0,22.965-10.334,22.965-22.965v-417.971
					C2296.918,1426.385,2286.583,1416.05,2273.952,1416.05z"/>
				<path style="fill:#FFFFFF;" d="M2078.746,1512.505c-58.343,0-108.942-33.663-133.483-82.569
					c-5.847,6.997-14.632,11.455-24.464,11.455c-0.215,0-0.422-0.029-0.636-0.033c28.9,58.42,89.115,98.705,158.583,98.705
					c79.115,0,146.255-52.228,168.772-124.014h-29.18C2196.958,1472.363,2142.466,1512.505,2078.746,1512.505z"/>
				<path style="fill:#FFFFFF;" d="M1958.594,1320.078c-6.9,16.078-10.751,33.763-10.751,52.338c0,7.12,0.652,14.082,1.751,20.895
					c1.959,4.296,3.079,9.054,3.079,14.082c0,0.104-0.015,0.203-0.016,0.305c0.023,0.096,0.044,0.193,0.069,0.286
					c-0.033,0.066-0.062,0.137-0.094,0.205c-0.428,18.407-15.451,33.203-33.959,33.203c-18.777,0-33.999-15.221-33.999-33.999
					c0-18.778,15.222-34,33.999-34c0.553,0,1.092,0.056,1.638,0.083c-0.013-0.353-0.028-0.703-0.028-1.06
					c0-20.073,3.763-39.268,10.524-56.996c-3.48-0.247-6.982-0.417-10.524-0.417c-81.174,0-146.979,65.803-146.979,146.979
					c0,61.674,38.007,114.445,91.862,136.255v263.344l50.524,64.303l55.117-64.303v-58.179l-32.151-38.276l32.151-29.181v-18.282
					l-18.372-26.026l18.372-22.964v-68.625c56.286-20.604,96.454-74.644,96.454-138.065
					C2067.263,1394.063,2021.187,1336.936,1958.594,1320.078z"/>
				<path style="fill:#FFFFFF;" d="M2078.746,1186.396c-97.505,0-176.834,79.327-176.834,176.835
					c0,21.463,3.921,42.007,10.959,61.055c0.522,0.025,1.026,0.106,1.553,0.106c9.44,0,17.978-3.851,24.138-10.065
					c-5.839-15.954-9.092-33.144-9.092-51.097c0-82.311,66.963-149.277,149.276-149.277s149.276,66.965,149.276,149.277
					c0,8.612-0.774,17.043-2.181,25.261h27.906c1.187-8.255,1.834-16.684,1.834-25.261
					C2255.581,1265.723,2176.25,1186.396,2078.746,1186.396z"/>
			</g>
			<g>
				
					<linearGradient id="SVGID_00000087378472799283155230000017982970250029896068_" gradientUnits="userSpaceOnUse" x1="2060.3296" y1="649.1602" x2="2043.7416" y2="1554.837">
					<stop  offset="0" style="stop-color:#4F52FF"/>
					<stop  offset="1" style="stop-color:#4042E2"/>
				</linearGradient>
				<path style="fill:url(#SVGID_00000087378472799283155230000017982970250029896068_);" d="M2775.12,741.846
					c0-21.526-17.45-38.977-38.977-38.977H1378.66c-21.526,0-38.977,17.451-38.977,38.977v134.375
					c0,21.526,17.451,38.977,38.977,38.977h1357.482c21.527,0,38.977-17.451,38.977-38.977V741.846z"/>
				<g>
					<path style="fill:#FFFFFF;" d="M1469.222,757.406c-17.326-15.651-44.261-14.07-59.913,3.255
						c-15.651,17.325-14.52,44.308,2.805,59.96c15.261,13.787,38.676,13.419,53.449,2.723l11.671,10.544
						c0.137,3.129,1.021,6.933,3.679,9.333l38.896,35.138c4.919,4.443,12.326,2.861,16.77-2.058l0.259-0.286
						c4.443-4.919,4.334-11.415-0.585-15.859l-38.896-35.138c-2.658-2.401-6.531-2.895-8.163-4.369l-11.672-10.544
						C1486.668,794.326,1484.483,771.193,1469.222,757.406z M1420.024,814.795c-13.361-12.07-14.408-32.687-2.337-46.048
						c12.07-13.361,32.687-14.408,46.048-2.337c13.361,12.07,14.407,32.686,2.337,46.048
						C1454.001,825.819,1433.385,826.865,1420.024,814.795z"/>
					<g>
						<path style="fill:#FFFFFF;" d="M1427.612,804.325c-0.1,0.111-0.209,0.216-0.326,0.315c-1.411,1.193-3.521,1.016-4.714-0.394
							c-7.788-9.211-7.555-22.916,0.542-31.879c1.239-1.371,3.354-1.479,4.725-0.24c1.371,1.239,1.479,3.353,0.24,4.724
							c-5.862,6.489-6.033,16.409-0.398,23.076C1428.775,801.22,1428.717,803.102,1427.612,804.325z"/>
					</g>
				</g>
				<path style="fill:#FFFFFF;" d="M2735.13,845.12c0,13.474-10.923,24.397-24.397,24.397H1623.575
					c-13.474,0-24.397-10.923-24.397-24.397v-75.189c0-13.474,10.923-24.397,24.397-24.397h1087.158
					c13.474,0,24.397,10.923,24.397,24.397V845.12z"/>
				<path style="fill:#91B3FA;" d="M1644.907,843.717c0,2.832-2.296,5.128-5.128,5.128h-0.803c-2.832,0-5.128-2.296-5.128-5.128
					v-69.368c0-2.832,2.296-5.128,5.128-5.128h0.803c2.832,0,5.128,2.296,5.128,5.128V843.717z"/>
			</g>
		</g>
		<g>
			<g>
				
					<linearGradient id="SVGID_00000014596512354182257020000012634319629881305011_" gradientUnits="userSpaceOnUse" x1="767.9566" y1="1389.7538" x2="1241.3164" y2="840.3189">
					<stop  offset="0" style="stop-color:#FF928E"/>
					<stop  offset="1" style="stop-color:#FE7062"/>
				</linearGradient>
				
					<circle style="fill:url(#SVGID_00000014596512354182257020000012634319629881305011_);" cx="1250.878" cy="829.221" r="352.907"/>
				
					<linearGradient id="SVGID_00000028306690565598511560000004643906613348565399_" gradientUnits="userSpaceOnUse" x1="1508.7955" y1="439.5803" x2="109.0566" y2="2554.1868">
					<stop  offset="0" style="stop-color:#FF928E"/>
					<stop  offset="1" style="stop-color:#FE7062"/>
				</linearGradient>
				
					<circle style="fill:url(#SVGID_00000028306690565598511560000004643906613348565399_);" cx="1250.878" cy="829.221" r="341.173"/>
				<path style="opacity:0.78;fill:#FFFFFF;" d="M969.538,698.415c-1.653,0-3.332-0.373-4.91-1.173
					c-5.385-2.714-7.544-9.282-4.825-14.667c55.8-110.544,167.33-179.214,291.075-179.214c19.737,0,39.517,1.781,58.775,5.289
					c5.934,1.082,9.869,6.766,8.786,12.7c-1.082,5.934-6.76,9.853-12.7,8.786c-17.973-3.279-36.43-4.937-54.861-4.937
					c-115.454,0-219.515,64.074-271.583,167.218C977.375,696.224,973.531,698.415,969.538,698.415z"/>
				
					<ellipse transform="matrix(0.7071 -0.7071 0.7071 0.7071 -223.0531 1134.8108)" style="opacity:0.78;fill:#FFFFFF;" cx="1258.311" cy="836.654" rx="288.761" ry="288.76"/>
				<g>
					
						<linearGradient id="SVGID_00000083768910174760650970000017721901360981702542_" gradientUnits="userSpaceOnUse" x1="1276.2153" y1="214.1358" x2="1256.1111" y2="1008.2593">
						<stop  offset="0" style="stop-color:#FF928E"/>
						<stop  offset="1" style="stop-color:#FE7062"/>
					</linearGradient>
					<path style="fill:url(#SVGID_00000083768910174760650970000017721901360981702542_);" d="M1229.974,1051.322v-31.415
						c-32.749-1.311-65.143-9.041-88.15-19.112c-8.216-3.597-12.403-12.817-10.043-21.469l7.981-29.263
						c2.928-10.736,14.603-16.288,24.865-11.986c22.823,9.567,51.003,17.136,81.389,17.136c31.543,0,55.068-10.694,55.068-32.615
						c0-19.781-18.178-31.542-62.019-43.302c-62.552-17.109-107.464-44.377-107.464-99.445c0-49.724,36.357-87.684,99.445-97.84
						v-31.419c0-10.109,8.195-18.305,18.304-18.305h18.458c10.11,0,18.306,8.196,18.306,18.305v28.209
						c30.304,1.213,52.363,6.395,69.869,12.546c8.969,3.152,13.87,12.815,11.382,21.99l-7.339,27.063
						c-2.83,10.436-13.984,16.152-24.098,12.329c-16.118-6.095-38.906-12.442-68.528-12.442c-37.426,0-48.117,15.504-48.117,29.405
						c0,17.109,22.454,28.87,71.107,43.842c69.504,20.851,98.373,49.721,98.373,101.582c0,47.584-35.285,90.355-103.719,101.05
						v35.157c0,10.11-8.195,18.306-18.305,18.306h-18.461C1238.17,1069.628,1229.974,1061.432,1229.974,1051.322z"/>
				</g>
			</g>
			<g>
				
					<linearGradient id="SVGID_00000108992458901709929360000015537522097868162744_" gradientUnits="userSpaceOnUse" x1="355.925" y1="1753.7748" x2="725.706" y2="1324.5653">
					<stop  offset="0" style="stop-color:#FF928E"/>
					<stop  offset="1" style="stop-color:#FE7062"/>
				</linearGradient>
				
					<circle style="fill:url(#SVGID_00000108992458901709929360000015537522097868162744_);" cx="733.175" cy="1315.896" r="275.685"/>
				
					<linearGradient id="SVGID_00000145037997559093772650000000399828013301180077_" gradientUnits="userSpaceOnUse" x1="934.6563" y1="1011.515" x2="-158.7967" y2="2663.4106">
					<stop  offset="0" style="stop-color:#FF928E"/>
					<stop  offset="1" style="stop-color:#FE7062"/>
				</linearGradient>
				
					<circle style="fill:url(#SVGID_00000145037997559093772650000000399828013301180077_);" cx="733.175" cy="1315.896" r="266.519"/>
				<path style="opacity:0.78;fill:#FFFFFF;" d="M513.397,1213.712c-1.291,0-2.603-0.292-3.836-0.916
					c-4.207-2.12-5.893-7.251-3.769-11.458c43.59-86.355,130.716-139.999,227.383-139.999c15.419,0,30.87,1.391,45.914,4.132
					c4.635,0.845,7.709,5.285,6.864,9.921c-0.845,4.636-5.281,7.697-9.921,6.864c-14.04-2.561-28.459-3.857-42.857-3.857
					c-90.191,0-171.482,50.054-212.156,130.628C519.52,1212.001,516.517,1213.712,513.397,1213.712z"/>
				
					<ellipse transform="matrix(0.7071 -0.7071 0.7071 0.7071 -718.1421 909.657)" style="opacity:0.78;fill:#FFFFFF;" cx="738.982" cy="1321.703" rx="225.575" ry="225.575"/>
				<g>
					
						<linearGradient id="SVGID_00000098190529045882663050000017211567506870395010_" gradientUnits="userSpaceOnUse" x1="794.3833" y1="911.2362" x2="708.9399" y2="1574.6794">
						<stop  offset="0" style="stop-color:#FF928E"/>
						<stop  offset="1" style="stop-color:#FE7062"/>
					</linearGradient>
					<path style="fill:url(#SVGID_00000098190529045882663050000017211567506870395010_);" d="M716.846,1489.398v-24.541
						c-25.583-1.025-50.888-7.063-68.861-14.93c-6.418-2.81-9.689-10.012-7.846-16.771l6.234-22.86
						c2.288-8.386,11.408-12.724,19.424-9.363c17.829,7.474,39.842,13.386,63.58,13.386c24.641,0,43.018-8.354,43.018-25.478
						c0-15.452-14.2-24.64-48.448-33.827c-48.864-13.365-83.949-34.667-83.949-77.685c0-38.844,28.401-68.497,77.685-76.431v-24.544
						c0-7.897,6.401-14.299,14.299-14.299H746.4c7.898,0,14.3,6.402,14.3,14.299v22.036c23.673,0.948,40.905,4.996,54.581,9.801
						c7.006,2.463,10.835,10.01,8.891,17.178l-5.733,21.141c-2.211,8.153-10.924,12.618-18.825,9.631
						c-12.591-4.761-30.393-9.72-53.533-9.72c-29.237,0-37.588,12.111-37.588,22.971c0,13.365,17.541,22.553,55.547,34.249
						c54.295,16.288,76.848,38.841,76.848,79.354c0,37.172-27.564,70.583-81.024,78.938v27.464c0,7.898-6.402,14.3-14.299,14.3
						h-14.421C723.248,1503.698,716.846,1497.296,716.846,1489.398z"/>
				</g>
			</g>
			<g>
				
					<linearGradient id="SVGID_00000083791826157486444270000004520207534807925159_" gradientUnits="userSpaceOnUse" x1="991.7989" y1="1996.5551" x2="1304.9955" y2="1633.0238">
					<stop  offset="0" style="stop-color:#FF928E"/>
					<stop  offset="1" style="stop-color:#FE7062"/>
				</linearGradient>
				
					<circle style="fill:url(#SVGID_00000083791826157486444270000004520207534807925159_);" cx="1311.322" cy="1625.681" r="233.5"/>
				
					<linearGradient id="SVGID_00000070076714540229856340000018094271347568811141_" gradientUnits="userSpaceOnUse" x1="1481.9719" y1="1367.8767" x2="555.8404" y2="2766.9976">
					<stop  offset="0" style="stop-color:#FF928E"/>
					<stop  offset="1" style="stop-color:#FE7062"/>
				</linearGradient>
				
					<circle style="fill:url(#SVGID_00000070076714540229856340000018094271347568811141_);" cx="1311.322" cy="1625.681" r="225.736"/>
				<path style="opacity:0.78;fill:#FFFFFF;" d="M1125.174,1539.134c-1.094,0-2.205-0.247-3.249-0.776
					c-3.563-1.796-4.992-6.142-3.193-9.704c36.92-73.141,110.713-118.576,192.589-118.576c13.059,0,26.146,1.178,38.888,3.499
					c3.926,0.716,6.53,4.477,5.813,8.403c-0.716,3.926-4.473,6.519-8.403,5.813c-11.891-2.169-24.104-3.267-36.299-3.267
					c-76.39,0-145.241,42.395-179.692,110.639C1130.36,1537.684,1127.817,1539.134,1125.174,1539.134z"/>
				
					<ellipse transform="matrix(0.7071 -0.7071 0.7071 0.7071 -767.4899 1408.3137)" style="opacity:0.78;fill:#FFFFFF;" cx="1316.24" cy="1630.599" rx="191.057" ry="191.057"/>
				<g>
					
						<linearGradient id="SVGID_00000071532213246149794880000010757504494774334134_" gradientUnits="userSpaceOnUse" x1="1338.2804" y1="1363.804" x2="1308.1243" y2="1760.8645">
						<stop  offset="0" style="stop-color:#FF928E"/>
						<stop  offset="1" style="stop-color:#FE7062"/>
					</linearGradient>
					<path style="fill:url(#SVGID_00000071532213246149794880000010757504494774334134_);" d="M1297.491,1772.633v-20.786
						c-21.668-0.868-43.101-5.982-58.324-12.645c-5.436-2.38-8.206-8.48-6.645-14.205l5.28-19.362
						c1.938-7.103,9.662-10.777,16.452-7.93c15.101,6.33,33.746,11.338,53.851,11.338c20.87,0,36.436-7.076,36.436-21.58
						c0-13.088-12.028-20.869-41.035-28.651c-41.387-11.32-71.103-29.362-71.103-65.797c0-32.9,24.055-58.016,65.797-64.735v-20.789
						c0-6.688,5.422-12.111,12.111-12.111h12.212c6.689,0,12.112,5.423,12.112,12.111v18.665
						c20.051,0.803,34.646,4.231,46.229,8.301c5.934,2.086,9.177,8.479,7.531,14.549l-4.856,17.906
						c-1.872,6.905-9.252,10.687-15.944,8.157c-10.665-4.033-25.742-8.232-45.341-8.232c-24.763,0-31.836,10.258-31.836,19.456
						c0,11.32,14.857,19.102,47.047,29.008c45.987,13.796,65.089,32.898,65.089,67.211c0,31.484-23.346,59.783-68.625,66.859v23.261
						c0,6.689-5.422,12.112-12.111,12.112h-12.214C1302.914,1784.745,1297.491,1779.323,1297.491,1772.633z"/>
				</g>
			</g>
		</g>
		<g>
			<g>
				
					<linearGradient id="SVGID_00000103969596104549613200000001960962688402537090_" gradientUnits="userSpaceOnUse" x1="-861.3777" y1="1703.3661" x2="-780.1404" y2="1935.4731" gradientTransform="matrix(1 0 0 1 3317.4707 0)">
					<stop  offset="0" style="stop-color:#FEBBBA"/>
					<stop  offset="1" style="stop-color:#FF928E"/>
				</linearGradient>
				<path style="fill:url(#SVGID_00000103969596104549613200000001960962688402537090_);" d="M2492.155,1827.871
					c-1.25,3.974,13.227,10.026,21.75-6.229c0.298-7.79,5.036-41.165,0.381-47.511c-24.792-33.801-72.859-76.171-72.859-76.171
					c-8.124,8.016-1.431,15.89-1.431,15.89l23.318,24.291c-4.878,8.814-10.827,16.254-13.615,26.915
					c-2.112,8.073-0.82,16.701,3.258,24.049c4.093,7.373,9.677,16.959,14.957,24.461
					C2477.906,1827.764,2492.155,1827.871,2492.155,1827.871z"/>
				
					<linearGradient id="SVGID_00000102513955466946929610000015201061386812998562_" gradientUnits="userSpaceOnUse" x1="-798.9698" y1="1851.6592" x2="-860.1622" y2="1728.2192" gradientTransform="matrix(1 0 0 1 3317.4707 0)">
					<stop  offset="0" style="stop-color:#FEBBBA"/>
					<stop  offset="1" style="stop-color:#FF928E"/>
				</linearGradient>
				<path style="fill:url(#SVGID_00000102513955466946929610000015201061386812998562_);" d="M2473.513,1753.903l21.25,18.014
					l6.672,17.934l-18.947,21.018c0,0-6.369-35.586-11.104-43.288C2466.649,1759.879,2469.104,1756.155,2473.513,1753.903z"/>
			</g>
			<g>
				
					<linearGradient id="SVGID_00000145041267742479888980000008874692878388691895_" gradientUnits="userSpaceOnUse" x1="5547.0537" y1="3112.4707" x2="5028.6909" y2="3676.3044" gradientTransform="matrix(-1 0 0 1 8292.7529 0)">
					<stop  offset="0" style="stop-color:#09005D"/>
					<stop  offset="1" style="stop-color:#1A0F91"/>
				</linearGradient>
				<path style="fill:url(#SVGID_00000145041267742479888980000008874692878388691895_);" d="M2909.554,3154.473
					c0,0,5.369,30.391,8,60.475c1.029,11.757-8.035,21.965-19.828,22.457c-40.062,1.668-125.758,4.913-156.508,3.54
					c-4.623-0.206-7.646-4.938-5.935-9.238c1.434-3.602,4.199-6.516,7.722-8.135l141.552-65.057L2909.554,3154.473z"/>
				
					<linearGradient id="SVGID_00000134229898181262896870000011536670682210572934_" gradientUnits="userSpaceOnUse" x1="5378.8008" y1="3154.3472" x2="5424.8442" y2="3154.3472" gradientTransform="matrix(-1 0 0 1 8292.7529 0)">
					<stop  offset="0" style="stop-color:#FEBBBA"/>
					<stop  offset="1" style="stop-color:#FF928E"/>
				</linearGradient>
				<path style="fill:url(#SVGID_00000134229898181262896870000011536670682210572934_);" d="M2913.952,3136.616l-4.313,36.351
					c0,0-24.797,11.543-41.73-1.455l10.269-40.511L2913.952,3136.616z"/>
				
					<linearGradient id="SVGID_00000122681208859961860650000004247981621403801250_" gradientUnits="userSpaceOnUse" x1="11429.1963" y1="-1859.0934" x2="11192.9697" y2="-1678.1541" gradientTransform="matrix(-1 0 0 1 8292.7529 0)">
					<stop  offset="0" style="stop-color:#4F52FF"/>
					<stop  offset="1" style="stop-color:#4042E2"/>
				</linearGradient>
				<path style="fill:url(#SVGID_00000122681208859961860650000004247981621403801250_);" d="M2910.71,2453.198
					c1.863,9.493,10,473.721-39.623,681.758c-0.81,3.395,0.912,6.893,4.142,8.213c7.61,3.11,22.532,7.613,40.413,8.213
					c5.538,0.186,10.503-3.413,12.065-8.729c14.185-48.268,82.154-290.102,91.021-521.12c9.907-258.139,0-8.79,0-8.79
					l-5.811-159.565L2910.71,2453.198z"/>
				
					<linearGradient id="SVGID_00000155851323409075161010000009474675988151169971_" gradientUnits="userSpaceOnUse" x1="5430.7666" y1="3005.5637" x2="4912.4063" y2="3569.3945" gradientTransform="matrix(-1 0 0 1 8292.7529 0)">
					<stop  offset="0" style="stop-color:#09005D"/>
					<stop  offset="1" style="stop-color:#1A0F91"/>
				</linearGradient>
				<path style="fill:url(#SVGID_00000155851323409075161010000009474675988151169971_);" d="M3072.387,3170.328
					c0,0,8.545,15.342,16.819,56.111c1.493,7.363-3.651,14.409-11.128,15.144c-13.229,1.301-33.594,2.974-49.906,2.861
					c-7.52-0.052-13.389-6.599-12.483-14.065c1.807-14.881,7.436-39.295,24.826-58.324L3072.387,3170.328z"/>
				
					<linearGradient id="SVGID_00000090277459234875577070000002317949090895290755_" gradientUnits="userSpaceOnUse" x1="5212.8604" y1="3151.9866" x2="5252.6147" y2="3151.9866" gradientTransform="matrix(-1 0 0 1 8292.7529 0)">
					<stop  offset="0" style="stop-color:#FEBBBA"/>
					<stop  offset="1" style="stop-color:#FF928E"/>
				</linearGradient>
				<path style="fill:url(#SVGID_00000090277459234875577070000002317949090895290755_);" d="M3079.893,3123.572l-10.078,54.972
					c0,0-9.965,7.413-29.677,2.039l4.81-59.147L3079.893,3123.572z"/>
				
					<linearGradient id="SVGID_00000011017126563943045470000017855767696132960400_" gradientUnits="userSpaceOnUse" x1="11386.4551" y1="-1914.885" x2="11150.2295" y2="-1733.9459" gradientTransform="matrix(-1 0 0 1 8292.7529 0)">
					<stop  offset="0" style="stop-color:#4F52FF"/>
					<stop  offset="1" style="stop-color:#4042E2"/>
				</linearGradient>
				<path style="fill:url(#SVGID_00000011017126563943045470000017855767696132960400_);" d="M3107.118,2467.444
					c40.585,244.931-8.803,605.367-25.46,675.913c-1.02,4.319-4.506,7.628-8.883,8.354c-7.435,1.232-19.676,2.238-31.744-1.267
					c-4.157-1.207-7.079-4.958-7.249-9.285c-2.235-57.034,1.788-407.169-36.028-545.544c-1.916-7.013-6.198-13.128-12.124-17.341
					l-73.397-52.179l-5.627-84.343L3107.118,2467.444z"/>
				<g>
					
						<linearGradient id="SVGID_00000152972377124814944350000006455014631814955655_" gradientUnits="userSpaceOnUse" x1="8396.2246" y1="-2410.676" x2="8134.8677" y2="-2018.6415" gradientTransform="matrix(-1 0 0 1 8292.7529 0)">
						<stop  offset="0" style="stop-color:#FF928E"/>
						<stop  offset="1" style="stop-color:#FE7062"/>
					</linearGradient>
					<path style="fill:url(#SVGID_00000152972377124814944350000006455014631814955655_);" d="M2848.512,2003.347
						c121.624-2.009,255.823,31.934,255.823,31.934c36.254,211.539,6.34,455.535,6.34,455.535
						c-94.158,24.692-200.375-15.096-200.375-15.096c-15.65-88.419-88.667-337.257-88.667-337.257
						c-59.425-7.375-108.379-24.521-148.692-47.188c30.75-35.644,45.247-80.999,51.543-107.81
						C2767.485,1996.829,2810.998,2003.967,2848.512,2003.347z"/>
					
						<linearGradient id="SVGID_00000111191444137751556350000017634875176435578768_" gradientUnits="userSpaceOnUse" x1="-791.9429" y1="1679.0636" x2="-710.7052" y2="1911.172" gradientTransform="matrix(1 0 0 1 3317.4707 0)">
						<stop  offset="0" style="stop-color:#FEBBBA"/>
						<stop  offset="1" style="stop-color:#FF928E"/>
					</linearGradient>
					<path style="fill:url(#SVGID_00000111191444137751556350000017634875176435578768_);" d="M2489.255,1824.201
						c11.948-14.43,27.069-7.604,27.069-7.604c17.898,75.604,111.745,136.904,208.158,166.868
						c-6.296,26.811-20.792,72.166-51.543,107.81C2512.932,2001.31,2489.255,1824.201,2489.255,1824.201z"/>
				</g>
				
					<linearGradient id="SVGID_00000170250311504690325320000012631752119672761779_" gradientUnits="userSpaceOnUse" x1="8259.3525" y1="-2501.9082" x2="7997.9961" y2="-2109.874" gradientTransform="matrix(-1 0 0 1 8292.7529 0)">
					<stop  offset="0" style="stop-color:#FF928E"/>
					<stop  offset="1" style="stop-color:#FE7062"/>
				</linearGradient>
				<path style="fill:url(#SVGID_00000170250311504690325320000012631752119672761779_);" d="M3057.684,2153.05l46.65-117.768
					c0,0,113.604,77.189,132.287,175.056c-21.465,1.581-60.526,7.164-98.758,26.469
					C3129.461,2190.595,3057.684,2153.05,3057.684,2153.05z"/>
				
					<linearGradient id="SVGID_00000024683315827903294430000005631750286755266969_" gradientUnits="userSpaceOnUse" x1="5282.1216" y1="1968.0823" x2="5399.8149" y2="1968.0823" gradientTransform="matrix(-1 0 0 1 8292.7529 0)">
					<stop  offset="0" style="stop-color:#FEBBBA"/>
					<stop  offset="1" style="stop-color:#FF928E"/>
				</linearGradient>
				<path style="fill:url(#SVGID_00000024683315827903294430000005631750286755266969_);" d="M2971.707,1904.607l38.699,111.915
					c0.64,1.853-0.121,3.907-1.838,4.856c-10.549,5.832-48.555,22.691-94.355-6.348c-4.771-3.025-8.019-7.958-8.743-13.562
					l-12.532-96.862H2971.707z"/>
				<g>
					
						<linearGradient id="SVGID_00000148651210994790067080000014281040477040715657_" gradientUnits="userSpaceOnUse" x1="-1570.7172" y1="2212.3853" x2="-1614.6981" y2="2067.3257" gradientTransform="matrix(-0.746 -0.6659 -0.6659 0.746 3166.4175 -803.1727)">
						<stop  offset="0" style="stop-color:#FEBBBA"/>
						<stop  offset="1" style="stop-color:#FF928E"/>
					</linearGradient>
					<path style="fill:url(#SVGID_00000148651210994790067080000014281040477040715657_);" d="M2887.504,1800.971
						c0,0-42.496,79.993-37.049,112.307c5.447,32.312,58.114,29.993,104.104,3.749l32.137-86.374L2887.504,1800.971z"/>
					
						<linearGradient id="SVGID_00000040571870915698308200000010915797236939183031_" gradientUnits="userSpaceOnUse" x1="-1591.9321" y1="2064.958" x2="-1555.1423" y2="2274.7966" gradientTransform="matrix(-0.746 -0.6659 -0.6659 0.746 3166.4175 -803.1727)">
						<stop  offset="0" style="stop-color:#E1473D"/>
						<stop  offset="1" style="stop-color:#E9605A"/>
					</linearGradient>
					<path style="fill:url(#SVGID_00000040571870915698308200000010915797236939183031_);" d="M2952.527,1874.608
						c-1.869-0.828-2.558-3.115-1.439-4.825c3.405-5.201,9.787-15.812,11.823-25.102c0,0,7.639-4.894-19.445-11.375
						c-27.083-6.483-67.471-16.545-75.96-39.597c-8.277-22.476,13.469-79,48.165-33.962c1.32,1.714,3.906,1.751,5.224,0.036
						c5.688-7.403,20.642-22.768,41.402-13.453c19.427,8.717,21.615,22.953,21.349,30.129c-0.078,2.11,1.809,3.752,3.884,3.355
						c9.823-1.873,33.394-3.482,44.396,20.698c9.062,19.917,3.172,31.192-2.192,36.706c-1.739,1.786-0.977,4.728,1.407,5.458
						c6.455,1.976,14.791,7.45,13.957,22.574c-1.154,20.909-24.531,19.066-31.186,18.114c-1.092-0.156-2.19,0.218-2.928,1.035
						c-5.707,6.316-31.419,33.131-59.248,36.364c-2.409,0.28-4.277-2.1-3.488-4.394l12.044-35.009
						c0.559-1.626-0.219-3.409-1.791-4.106L2952.527,1874.608z"/>
					
						<linearGradient id="SVGID_00000130608870661707417510000015434524818792201351_" gradientUnits="userSpaceOnUse" x1="-1615.6765" y1="2211.7095" x2="-1655.2469" y2="2081.197" gradientTransform="matrix(-0.746 -0.6659 -0.6659 0.746 3166.4175 -803.1727)">
						<stop  offset="0" style="stop-color:#FEBBBA"/>
						<stop  offset="1" style="stop-color:#FF928E"/>
					</linearGradient>
					<path style="fill:url(#SVGID_00000130608870661707417510000015434524818792201351_);" d="M2947.686,1879.578
						c0,0,30.256-20.76,32.468-3.278c2.21,17.482-27.247,25.323-41.837,18.805L2947.686,1879.578z"/>
				</g>
				
					<linearGradient id="SVGID_00000112611211586397540760000017242888449877832345_" gradientUnits="userSpaceOnUse" x1="-915.1077" y1="2833.4524" x2="-1010.7906" y2="2146.2734" gradientTransform="matrix(-1 0 0 1 2194.073 0)">
					<stop  offset="0" style="stop-color:#FEBBBA"/>
					<stop  offset="1" style="stop-color:#FF928E"/>
				</linearGradient>
				<path style="fill:url(#SVGID_00000112611211586397540760000017242888449877832345_);" d="M3137.863,2236.807
					c0,0,39.707,179.132,3.739,279.839c44.094,20.445,35.949,16.591,35.949,16.591s87.233-254.875,59.07-322.899
					C3181.097,2204.447,3153.555,2219.366,3137.863,2236.807z"/>
				
					<linearGradient id="SVGID_00000052801455071378880390000000335300336300818859_" gradientUnits="userSpaceOnUse" x1="-926.5016" y1="2767.3489" x2="-1002.8567" y2="2218.9788" gradientTransform="matrix(-1 0 0 1 2194.073 0)">
					<stop  offset="0" style="stop-color:#FEBBBA"/>
					<stop  offset="1" style="stop-color:#FF928E"/>
				</linearGradient>
				<path style="fill:url(#SVGID_00000052801455071378880390000000335300336300818859_);" d="M3141.602,2516.646
					c0,0-22.722,29.409-20.905,41.122c1.817,11.714,2.251,16.486,2.251,16.486s11.417-7.809,10.698-17.787
					c-1.587,31.67-12.187,67.678-2.549,65.943c9.638-1.735,59.529-47.723,48.249-96.746
					C3153.752,2507.877,3146.576,2509.811,3141.602,2516.646z"/>
			</g>
		</g>
		<g>
			
				<linearGradient id="SVGID_00000083075933123499727310000005051933157629585834_" gradientUnits="userSpaceOnUse" x1="814.5297" y1="2491.635" x2="1929.8901" y2="2491.635">
				<stop  offset="0" style="stop-color:#09005D"/>
				<stop  offset="1" style="stop-color:#1A0F91"/>
			</linearGradient>
			<path style="fill:url(#SVGID_00000083075933123499727310000005051933157629585834_);" d="M890.571,2483.579l-66.394,53.229
				c-18.436,14.777-8.673,46.377,14.297,46.262l1091.417-6.434l-295.474-176.437h-510.265
				C1040.01,2400.199,958.106,2429.434,890.571,2483.579z"/>
			
				<linearGradient id="SVGID_00000167370085587183585480000015636380948594186114_" gradientUnits="userSpaceOnUse" x1="1463.2245" y1="2434.6445" x2="1509.4995" y2="3320.4956">
				<stop  offset="0" style="stop-color:#FF928E"/>
				<stop  offset="1" style="stop-color:#FE7062"/>
			</linearGradient>
			<path style="fill:url(#SVGID_00000167370085587183585480000015636380948594186114_);" d="M2516.169,2958.327
				c-0.954-8.947-1.931-17.909-2.915-26.784c-10.095-91.073-56.574-172.823-127.313-223.702l-5.479-3.938
				c-85.201-61.279-183.082-98.975-284.993-109.754l-165.579-17.514l-1091.417,6.434c-22.97,0.115-32.733-31.485-14.297-46.262
				l66.394-53.229c67.535-54.146,149.439-83.38,233.581-83.38h510.265l-3.826-1.722c-30.66-13.797-63.551-20.9-96.771-20.9h-480.527
				c-29.196,0-58.227,4.721-86.126,13.998l-361.419,144.298c-17.862,5.944-33.807,17.198-46.006,32.473l-74.659,93.49
				c-15.54,19.459-24.087,44.29-24.087,69.975v152.348c0,40.322,132.171,178.091,132.171,178.091
				c14.396,7.909,30.322,12.032,46.477,12.032h1623.63l172.441-12.12C2485.097,3058.689,2521.825,3011.366,2516.169,2958.327z"/>
			<path style="fill:#91B3FA;" d="M2510.435,3027.34h-5.161c-10.05,0-18.196-8.789-18.196-19.63v-98.643
				c0-10.842,8.146-19.63,18.196-19.63l0,0c9.651,0,17.624,8.129,18.167,18.524l5.161,98.643
				C2529.191,3017.861,2520.887,3027.34,2510.435,3027.34z"/>
			<path style="fill:#FFFFFF;" d="M2446.404,2870.504h54.178c-20.166-65.958-60.167-123.482-114.641-162.663l-5.479-3.938
				c-5.646-4.059-11.355-8.001-17.11-11.855c11.061,41.625,24.698,98.705,33.676,137.012
				C2402.748,2853.458,2423.077,2870.504,2446.404,2870.504z"/>
			<path style="fill:#BDD0FB;" d="M605.747,2648.679v-112.805c-17.862,5.944-33.807,17.198-46.006,32.473l-74.659,93.49
				c-12.973,16.245-20.988,36.251-23.31,57.357l101.915-17.396C587.909,2697.667,605.747,2675.135,605.747,2648.679z"/>
			
				<linearGradient id="SVGID_00000020394857748007957800000014229368496778760119_" gradientUnits="userSpaceOnUse" x1="1888.7251" y1="2984.4504" x2="1788.2034" y2="2808.5374">
				<stop  offset="0" style="stop-color:#FF928E"/>
				<stop  offset="1" style="stop-color:#FE7062"/>
			</linearGradient>
			<path style="fill:url(#SVGID_00000020394857748007957800000014229368496778760119_);" d="M1750.553,2571.675l-38.374-40.226
				c-15.991-16.762-36.116-28.205-57.971-32.959l-75.898-16.511c-20.828-4.531-40.763,11.221-43.043,34.01l-0.536,5.354
				c-2.321,23.213,14.674,43.403,36.314,43.137l97.779-1.199c13.636-0.167,26.028,8.53,31.413,22.046l1.801,4.521
				c2.391,6,7.862,9.888,13.915,9.888h24.043C1753.597,2599.734,1760.306,2581.898,1750.553,2571.675z"/>
			
				<linearGradient id="SVGID_00000059288909220219450390000015619712431515159465_" gradientUnits="userSpaceOnUse" x1="1729.1998" y1="2381.6165" x2="1688.9912" y2="2421.825">
				<stop  offset="0" style="stop-color:#FF928E"/>
				<stop  offset="1" style="stop-color:#FE7062"/>
			</linearGradient>
			<path style="fill:url(#SVGID_00000059288909220219450390000015619712431515159465_);" d="M1357.38,2644.543h167.354
				c13.054,0,22.256,13.995,17.73,27.205c-7.657,22.348-25.896,50.853-69.244,54.182c-38.986,2.995-88.126-20.821-125.19-43.449
				C1331.227,2672.223,1338.073,2644.543,1357.38,2644.543z"/>
			
				<linearGradient id="SVGID_00000090286067905665733910000016156032241623909289_" gradientUnits="userSpaceOnUse" x1="643.6993" y1="3034.0764" x2="1085.5463" y2="3034.0764">
				<stop  offset="0" style="stop-color:#09005D"/>
				<stop  offset="1" style="stop-color:#1A0F91"/>
			</linearGradient>
			
				<circle style="fill:url(#SVGID_00000090286067905665733910000016156032241623909289_);" cx="864.623" cy="3034.076" r="220.924"/>
			
				<ellipse transform="matrix(0.7071 -0.7071 0.7071 0.7071 -1892.1738 1500.0413)" style="fill:#91B3FA;" cx="864.623" cy="3034.076" rx="179.413" ry="179.413"/>
			
				<linearGradient id="SVGID_00000045594181958982636680000008811576566113008771_" gradientUnits="userSpaceOnUse" x1="1946.6888" y1="3034.0764" x2="2388.5366" y2="3034.0764">
				<stop  offset="0" style="stop-color:#09005D"/>
				<stop  offset="1" style="stop-color:#1A0F91"/>
			</linearGradient>
			
				<circle style="fill:url(#SVGID_00000045594181958982636680000008811576566113008771_);" cx="2167.613" cy="3034.076" r="220.924"/>
			
				<ellipse transform="matrix(0.7071 -0.7071 0.7071 0.7071 -1510.537 2421.394)" style="fill:#91B3FA;" cx="2167.613" cy="3034.076" rx="179.413" ry="179.414"/>
			
				<linearGradient id="SVGID_00000147181036889413723660000004968425497023795888_" gradientUnits="userSpaceOnUse" x1="2086.9937" y1="2985.5679" x2="2329.5361" y2="2985.5679">
				<stop  offset="0" style="stop-color:#DAE3FE"/>
				<stop  offset="1" style="stop-color:#E9EFFD"/>
			</linearGradient>
			<path style="fill:url(#SVGID_00000147181036889413723660000004968425497023795888_);" d="M2313.979,3098.983
				c-0.399,0-0.804-0.08-1.196-0.245c-1.564-0.66-2.295-2.465-1.633-4.029c8.122-19.202,12.239-39.601,12.239-60.633
				c0-85.894-69.88-155.775-155.775-155.775c-26.647,0-52.942,6.843-76.042,19.789c-1.48,0.83-3.353,0.303-4.185-1.18
				c-0.83-1.48-0.302-3.355,1.18-4.185c24.016-13.458,51.35-20.572,79.047-20.572c89.285,0,161.923,72.638,161.923,161.923
				c0,21.859-4.281,43.064-12.725,63.029C2316.316,3098.277,2315.177,3098.983,2313.979,3098.983z"/>
			
				<linearGradient id="SVGID_00000120528651238627225110000001764047126625674418_" gradientUnits="userSpaceOnUse" x1="788.3375" y1="2985.5679" x2="1030.8816" y2="2985.5679">
				<stop  offset="0" style="stop-color:#DAE3FE"/>
				<stop  offset="1" style="stop-color:#E9EFFD"/>
			</linearGradient>
			<path style="fill:url(#SVGID_00000120528651238627225110000001764047126625674418_);" d="M1015.323,3098.983
				c-0.399,0-0.805-0.08-1.196-0.245c-1.564-0.66-2.295-2.465-1.633-4.029c8.122-19.203,12.24-39.603,12.24-60.633
				c0-85.894-69.881-155.775-155.777-155.775c-26.645,0-52.941,6.843-76.042,19.789c-1.475,0.83-3.352,0.303-4.185-1.18
				c-0.83-1.481-0.302-3.355,1.18-4.185c24.017-13.458,51.351-20.572,79.047-20.572c89.285,0,161.924,72.638,161.924,161.923
				c0,21.857-4.282,43.063-12.727,63.029C1017.659,3098.277,1016.52,3098.983,1015.323,3098.983z"/>
			<path style="opacity:0.7;fill:#FFFFFF;" d="M1131.945,2965.953c-1.447,0-2.736-1.025-3.017-2.499
				c-19.63-103.21-78.447-168.898-174.816-195.239c-72.151-19.723-139.464-8.737-140.135-8.626c-1.668,0.294-3.26-0.844-3.542-2.519
				c-0.284-1.674,0.845-3.26,2.519-3.542c0.682-0.115,69.154-11.313,142.585,8.703c68.022,18.544,154.37,68.309,179.43,200.073
				c0.317,1.667-0.777,3.278-2.445,3.595C1132.328,2965.937,1132.135,2965.953,1131.945,2965.953z"/>
			<path style="opacity:0.7;fill:#FFFFFF;" d="M1897.78,2999.615c-1.654,0-3.018-1.313-3.071-2.978
				c-2.549-81.416,19.265-145.186,64.831-189.542c75.22-73.217,190.632-67.38,191.788-67.322c1.695,0.099,2.989,1.553,2.889,3.248
				c-0.099,1.692-1.498,2.954-3.247,2.891c-1.133-0.073-113.932-5.711-187.177,65.623c-44.255,43.1-65.432,105.314-62.94,184.91
				c0.052,1.696-1.279,3.116-2.977,3.169C1897.844,2999.615,1897.811,2999.615,1897.78,2999.615z"/>
			<path style="fill:#91B3FA;" d="M845.444,2558.502c-1.069,0-2.109-0.558-2.675-1.553c-0.839-1.475-0.324-3.353,1.151-4.192
				l147.976-84.197c42.098-23.952,89.946-37.072,138.37-37.941l169.742-3.047c1.651,0.017,3.099,1.321,3.13,3.018
				c0.03,1.698-1.321,3.098-3.019,3.13l-169.741,3.047c-47.399,0.85-94.234,13.692-135.44,37.137L846.962,2558.1
				C846.482,2558.373,845.959,2558.502,845.444,2558.502z"/>
		</g>
	</g>
</g>
</svg>
