<?xml version="1.0" encoding="utf-8"?>
<!-- Generator: Adobe Illustrator 24.3.0, SVG Export Plug-In . SVG Version: 6.00 Build 0)  -->
<svg version="1.1" xmlns="http://www.w3.org/2000/svg" xmlns:xlink="http://www.w3.org/1999/xlink" x="0px" y="0px"
	 viewBox="0 0 500 500" style="enable-background:new 0 0 500 500;" xml:space="preserve">
<style type="text/css">
	.st0{fill:#F7E8E0;}
	.st1{fill:#EEBFA6;}
	.st2{fill:#C3CF91;}
	.st3{fill:#555457;}
	.st4{fill:#EFC28B;}
	.st5{fill:#9B6B4E;}
	.st6{fill:#FFFFFF;}
	.st7{fill:none;stroke:#555457;stroke-width:1.5;stroke-linecap:round;stroke-linejoin:round;stroke-miterlimit:10;}
	.st8{fill:#F3E4DC;}
	.st9{clip-path:url(#SVGID_2_);}
</style>
<g id="BACKGROUND">
</g>
<g id="OBJECTS">
	<g>
		<path class="st0" d="M1045.92,356.95c-4.77,12.59-10.43,25.3-18.87,36.09c-8.01,10.25-18.65,17.76-31.47,21.61
			c-28.65,8.58-58.95,0.14-87.14-5.92c-15.62-3.37-31.43-6.14-47.51-5.77c-15.92,0.36-31.61,3.31-47.02,7
			c-15.48,3.69-30.75,8.14-46.29,11.61c-15.07,3.38-31.01,5.82-46.34,2.48c-25.11-5.47-43.03-25.98-53.68-47.25
			c-12.88-25.73-17.61-54.33-18.88-82.6c-0.64-14.2-0.46-28.43,0.08-42.63c0.1-2.66,0.22-5.33,0.35-7.99
			c-0.28-15.6,0.93-31.21,3.71-46.58c3.05-16.82,8.01-33.34,14.93-49.07c1.95-4.74,4.12-9.43,6.5-14.01
			c3.84-7.39,8.28-14.43,13.22-21.09c11.99-17.03,26.78-32.21,43.71-44.93c18.1-13.59,38.54-24.38,60.32-31.53
			c1.9-0.89,6.69-2.08,6.76-2.1c24.22-7.02,49.91-9.4,75.04-6.22c25.92,3.29,50.92,12.3,72.98,25.65
			c22.39,13.56,41.56,31.56,56.15,52.67c16.77,24.24,28.33,51.71,38.62,78.92c10.61,28,18.27,56.91,19.11,86.79
			C1061.03,300.87,1056.18,329.83,1045.92,356.95z"/>
	</g>
	<g>
		<g>
			<path class="st0" d="M882.88,149.11c-3.44,14.78-23.3,22.57-23.3,22.57v5.27l-5.42,0.88l-1.12-4.1
				c-3.68-2.11-7.14-5.07-10.16-8.17c9.75,0.79,26.29-1.55,38.84-22.38l0.42,2.18L882.88,149.11z"/>
		</g>
		<g>
			<path class="st1" d="M881.72,143.16v0.01c-12.56,20.83-29.09,23.18-38.84,22.38c-0.01,0-0.01-0.01-0.01-0.01
				c-6.75-6.93-11.32-14.49-11.32-14.49l1.58-7.9l2.1-10.47h44.44L881.72,143.16z"/>
		</g>
		<g>
			<path class="st2" d="M891.82,161.42c0,0-2.93,8.65-7.54,15.83c-4.61,7.18-11.51,14.66-11.51,14.66s-0.58-7.55-3.68-12.32
				c-0.96-1.48-2.24-2.79-3.53-3.9c-2.92-2.51-5.98-4.01-5.98-4.01s19.86-7.79,23.3-22.57l-0.74-3.75c1.24,0.22,4.93,1.19,6.75,5.37
				C891.09,155.77,891.82,161.42,891.82,161.42z"/>
		</g>
		<g>
			<path class="st2" d="M969.5,331.42c-3.95,7.77-10.41,15.54-21.69,15.54c-11.28,0-18.46-12.61-18.46-12.61s0.15,1.7,0.34,4.41
				c0,0.03,0,0.06,0.01,0.11c0.64,9.78,1.64,32.35-2.7,35.78c-5.57,4.4-18.46,6.15-18.46,6.15s-50.42,14.37-66.23,10.26
				c-15.81-4.1-30.8-11.72-30.8-11.72s-19.4-3.47-27-8.37c-1.51-0.97-2.55-1.99-2.89-3.06c-2.06-6.44,1.17-16.83,1.17-16.83
				l-35.47-15.54c0,0-13.92-11.58-14.07-22.56c-0.15-11,8.06-53.93,12.32-66.83c4.25-12.91,11.71-54.23,11.71-54.23
				s1.18-9.96,4.4-15.58c3.23-5.62,18.33-9.92,29.9-11.97c11.58-2.06,32.99-9.93,32.99-9.93c-1.47,4.63-2.51,10.22-2.51,10.22
				s8.28,20.44,17.84,27.27c0,0,0.76-4.15,2.4-8.52c0-0.01,0-0.01,0-0.01c0.48-1.29,1.04-2.58,1.69-3.81
				c2.11-4.02,5.08-7.16,9.05-5.84l2.21,8.35l4.32-5.12v-5.27c0,0,3.06,1.5,5.98,4.01c1.3,1.11,2.57,2.43,3.53,3.9
				c3.1,4.77,3.68,12.32,3.68,12.32s6.91-7.48,11.51-14.66c4.61-7.18,7.54-15.83,7.54-15.83s12.76,8.79,24.04,12.3
				c11.28,3.52,31.09,16.18,34.88,20.69c8.79,10.45,10.55,82.49,10.55,82.49h0.3l4.98,12.02
				C966.57,288.92,973.45,323.65,969.5,331.42z"/>
		</g>
		<g>
			<path class="st3" d="M865.31,227.49c-1.97-2.15-3.64-4.4-4.71-6.95c-1.21-2.86-1.62-6.13-1.14-9.18c0.46-2.96,1.77-5.35,3.56-6.5
				C862.74,212.37,863.79,219.97,865.31,227.49z"/>
		</g>
		<g>
			<path class="st0" d="M926.94,339.06c0,0.38-0.13,0.78-0.38,1.16c-1.4,2.06-7.77,9.09-7.77,9.09s-4.03,4.47-7.77,5.86
				c-3.73,1.39-7.03,0.73-7.03,0.73s-5.27,2.06-9.38,2.14c-4.1,0.07-21.39-1.33-29.31-0.82c-7.91,0.52-11.43,1.54-16.85,0
				c-5.42-1.53-30.39-7.22-30.39-7.22c1.08-14.27,9.18-23.26,9.18-23.26l13.64,4.26c5.54,1.73,11.7,0.34,15.67-3.91
				c0.23-0.25,0.38-0.6,0.69-0.78c2.39-1.42,5.08-2.73,7.84-3.89c5.14-2.18,10.53-3.88,14.73-4.98c1.8-0.47,3.52-1.18,5.06-1.97
				c3.95-1.99,6.73-4.44,6.73-4.44c2.16,1.4,1.97,3.86,0.94,6.26c-0.95,2.17-2.57,4.32-3.8,5.64c-2.56,2.78-17.07,9.6-17.07,9.6
				s12.97,3.23,17.96,4.47c4.98,1.24,17.88,6.31,17.88,6.31s2.38-0.91,5.36-2.1c2.45-0.98,5.29-2.15,7.54-3.17
				c3.9-1.79,6.33-0.67,6.53,0.86C926.94,338.94,926.94,339.01,926.94,339.06z"/>
		</g>
		<g>
			<path class="st0" d="M964.14,251.38c-0.06,5.18-2.85,18.34-2.85,18.34v31.52c0,0-4.47,8.28-10.55,5.71
				c-6.08-2.56-11.5-8.28-12.17-11.28c-0.65-3.01,3.08-16.76,3.08-16.76c-2.24-2.88-2.86-10.93-2.86-10.93s-1.67-1.55-4.23-3.23
				c-0.78-0.51-1.65-1.03-2.57-1.53c0-0.01-0.01-0.01-0.01-0.01c-3.95-2.13-6.48-4.37-10.04-4.77c-3.55-0.4-3.45-3.81-3.45-3.81
				l3.01-1.39c0,0-1.21-0.7-5.64-1.47c-4.44-0.77-3.45-5.86-3.45-5.86l4.03-0.52c-5.79-3.52-2.64-7.77-2.64-7.77l6.38,0.15
				c-2.78-1.5-3.6-4.25-1.47-4.68c2.12-0.44,6.23-0.34,10.91-1.61c4.69-1.29,7.25,0,7.25,0s4.69,0.15,6.45,0.8
				c0.73,0.27,3.07,1.31,5.71,2.54c3.75,1.76,8.11,3.92,9.31,4.93c2.05,1.72,2.78,5.2,2.78,5.2s0.01,0.01,0.03,0.03
				c0.28,0.18,2.35,1.62,2.9,5.1C964.13,250.43,964.15,250.86,964.14,251.38z"/>
		</g>
		<g>
			<path class="st3" d="M942.24,473.19h-78.55l-4.02-34.77l-5.07,34.77h-88.23c0,0,9.09-78.45,10.55-84.01
				c1.47-5.58,7.58-18.22,7.58-18.22c7.6,4.9,27,8.37,27,8.37s14.99,7.62,30.8,11.72c15.81,4.11,66.23-10.26,66.23-10.26
				s12.9-1.75,18.46-6.15c0,0,2.64,6.32,4.99,17.14C934.32,402.62,942.24,473.19,942.24,473.19z"/>
		</g>
		<g>
			<g>
				<g>
					<path class="st4" d="M957.33,214.39c0,0-0.09,0.26-0.26,0.77c-0.24,0.69-0.63,1.76-1.18,3.21c-0.05,0.21-0.15,0.43-0.23,0.64
						c-0.8,2.13-1.88,4.88-3.21,8.06c-0.12,0.3-0.23,0.61-0.38,0.91c-0.9,2.13-1.9,4.43-3.02,6.85c-2.65-1.23-4.99-2.27-5.71-2.54
						c-1.76-0.65-6.45-0.8-6.45-0.8s-2.56-1.29-7.25,0c-4.68,1.28-8.79,1.17-10.91,1.61c-2.13,0.43-1.32,3.18,1.47,4.68l-6.38-0.15
						c0,0-3.15,4.25,2.64,7.77l-4.03,0.52c0,0-0.99,5.09,3.45,5.86c4.43,0.77,5.64,1.47,5.64,1.47l-3.01,1.39
						c0,0-0.11,3.41,3.45,3.81c3.55,0.4,6.08,2.64,10.04,4.77c0,0,0.01,0,0.01,0.01c-0.97,0.94-1.95,1.8-2.94,2.6
						c-10.41,8.44-21.56,9.09-21.56,9.09l-10.58-2.41c0,0-9.78-5.41-15.51-17.51c-0.24-0.52-0.49-1.04-0.72-1.57
						c-0.17-0.4-0.33-0.79-0.48-1.2c-0.65-1.68-1.22-3.45-1.68-5.35c-0.15-0.59-0.27-1.18-0.41-1.79c0.01-0.02,0-0.04-0.01-0.07
						c-0.09-0.51-0.19-1-0.26-1.51c-0.12-0.75-0.22-1.52-0.3-2.29c0-0.01-0.01-0.02-0.01-0.03c-0.04-0.25-0.05-0.53-0.07-0.79
						c-0.02-0.19-0.03-0.36-0.05-0.55c-0.94-11.05-0.76-21.86-0.33-29.92c0.18-3.43,0.4-6.38,0.59-8.65
						c0.27-3.09,0.51-4.89,0.51-4.89c2.43-0.71,5.53-1.06,8.92-1.19c13.73-0.55,32.33,2.83,32.33,2.83s5.92,1.63,13.27,4.24
						c4.44,1.55,9.38,3.46,13.87,5.59c0.96,0.44,1.88,0.91,2.78,1.37c2.46,1.28,4.67,2.59,6.47,3.95
						C956.36,213.56,956.86,213.97,957.33,214.39z"/>
				</g>
			</g>
			<g>
				<g>
					<g>
						<path class="st2" d="M853.04,173.73c-3.96-1.32-6.94,1.82-9.05,5.84c-0.64,1.22-1.2,2.52-1.69,3.81c0,0,0,0,0,0.01
							c-1.64,4.37-2.4,8.52-2.4,8.52c-9.56-6.82-17.84-27.27-17.84-27.27s1.04-5.59,2.51-10.22c0.62-1.97,1.32-3.75,2.04-4.87
							c2.41-3.74,6.52-6.39,6.52-6.39l-1.58,7.9c0,0,4.58,7.56,11.32,14.49c0,0,0,0.01,0.01,0.01
							C845.9,168.66,849.36,171.62,853.04,173.73z"/>
					</g>
					<g>
						<path class="st3" d="M869.09,179.59l-4.67,14.95c-0.02,0.01-0.05,0.03-0.07,0.04h-0.01v0.01c-6.58,3.66-15.26,0.54-15.26,0.54
							c-0.01-0.01-0.02-0.03-0.03-0.04v-0.01c-0.17-0.2-0.34-0.39-0.51-0.58c-0.16-0.2-0.33-0.4-0.48-0.59
							c-0.46-0.59-0.9-1.16-1.3-1.72c-0.14-0.18-0.26-0.36-0.39-0.54c-0.24-0.36-0.49-0.71-0.71-1.05c-0.22-0.35-0.43-0.67-0.63-1
							v-0.01c-0.09-0.16-0.19-0.32-0.27-0.47c-0.27-0.47-0.52-0.93-0.74-1.35c-0.16-0.33-0.31-0.63-0.44-0.93
							c-0.08-0.17-0.16-0.33-0.22-0.49c-0.3-0.65-0.51-1.22-0.66-1.68c-0.05-0.17-0.11-0.32-0.15-0.45
							c-0.02-0.07-0.04-0.14-0.06-0.2c-0.01-0.06-0.03-0.12-0.05-0.17c0-0.02-0.01-0.04-0.01-0.06c-0.02-0.07-0.04-0.15-0.05-0.2
							c-0.01-0.05-0.03-0.09-0.03-0.13c-0.01-0.04-0.02-0.06-0.02-0.07c0-0.01,0-0.01,0-0.01c0.48-1.29,1.04-2.58,1.69-3.81
							l10.16-1.74l5.42-0.88l5.98-1.27C866.85,176.8,868.13,178.11,869.09,179.59z"/>
					</g>
					<g>
						<path class="st3" d="M871.76,285.22c-2.14,9.16-6.95,17.53-13.41,24.39c-5.71,1.52-11.7,2.07-17.63,1.99
							c-9.1-0.12-18.12-1.67-27.09-3.21c3.07-5.82,5.15-12.16,6.15-18.65c0.57-0.38,1.12-0.77,1.64-1.18
							c5.12-4,9.17-9.37,11.58-15.42c7.77-19.52-1.99-42.72,5.79-62.24c2.34-5.86,6.15-11.01,10.25-15.82
							c0.01,0.01,0.02,0.03,0.03,0.04c0,0,8.68,3.12,15.26-0.54c-0.2,0.89-0.38,1.76-0.53,2.65c-1.25,0.21-2.45,0.6-3.54,1.16
							c-4.03,2.07-6.83,6.4-7.69,11.88c-0.69,4.39-0.13,8.89,1.6,12.98c0.89,2.07,2.01,3.94,3.3,5.68c0.65,0.89,1.35,1.75,2.1,2.56
							c1.85,2.14,3.89,4.07,5.9,5.97c0.88,0.84,1.72,1.63,2.55,2.45l0.13,0.13C871.72,254.89,875.24,270.37,871.76,285.22z"/>
					</g>
					<g>
						<path class="st4" d="M881.4,254.98c-1,1.63-5.8-4.83-6.61-6.47c-1.56-3.12-3.94-5.8-6.63-8.46l-0.13-0.13
							c-0.83-0.81-1.68-1.6-2.55-2.45c-2.01-1.9-4.06-3.83-5.9-5.97c-0.75-0.81-1.44-1.68-2.1-2.56c-1.29-1.74-2.41-3.62-3.3-5.68
							c-1.73-4.09-2.29-8.59-1.6-12.98c0.85-5.48,3.66-9.82,7.69-11.88c1.1-0.56,2.29-0.95,3.54-1.16c3.1-0.55,6.56-0.04,9.78,1.5
							c1.46,0.72,2.82,1.57,4.08,2.52c-0.19,2.27-0.41,5.22-0.59,8.65c-2.05-1.89-4.18-3.75-6.52-4.88
							c-2.58-1.22-5.23-1.39-7.1-0.42c-0.15,0.07-0.3,0.17-0.44,0.26c-1.79,1.15-3.1,3.53-3.56,6.5c-0.48,3.06-0.07,6.33,1.14,9.18
							c1.08,2.55,2.74,4.8,4.71,6.95c1.52,1.67,3.22,3.28,4.97,4.92c2.46,2.33,4.97,4.7,7.13,7.41c0.02,0.19,0.03,0.36,0.05,0.55
							c0.02,0.26,0.03,0.54,0.07,0.79c0,0.01,0.01,0.02,0.01,0.03c0.07,0.77,0.18,1.54,0.3,2.29c0.07,0.51,0.17,1,0.26,1.51
							c0.01,0.03,0.02,0.05,0.01,0.07c0.14,0.61,0.26,1.2,0.41,1.79c0.45,1.9,1.02,3.67,1.68,5.35c0.16,0.41,0.32,0.8,0.48,1.2
							C880.92,253.94,881.16,254.46,881.4,254.98z"/>
					</g>
				</g>
			</g>
			<g>
				<g>
					<g>
						<path class="st4" d="M974.38,238c-1.29,4.26-3.72,8.07-7.08,11.01c-1.01,0.89-2.07,1.68-3.16,2.37
							c0.01-0.53-0.01-0.96-0.06-1.3c-0.55-3.48-2.61-4.92-2.9-5.1c0.53-0.38,1.03-0.78,1.52-1.2c2.34-2.05,4.12-4.82,5-7.79
							c0.96-3.1,0.7-6.02-0.66-7.81c-1.28-1.69-3.74-2.69-6.6-2.7c-2.6,0-5.3,0.76-7.98,1.58c1.33-3.17,2.4-5.93,3.21-8.06
							c1.54-0.31,3.14-0.5,4.78-0.5c5.03,0.01,9.57,2.05,12.16,5.46C975.34,227.58,975.98,232.7,974.38,238z"/>
					</g>
				</g>
			</g>
			<g>
				<g>
					<path class="st3" d="M884.87,315.46c-1.54,0.79-3.26,1.5-5.06,1.97c-4.2,1.1-9.6,2.79-14.73,4.98l1.31-5.75
						c0.16-0.07,0.32-0.15,0.48-0.24c2.33-1.21,5.64-3.76,7.49-5.23c0.05-0.04,0.11-0.08,0.15-0.12c0.03-0.03,0.05-0.05,0.07-0.06
						c0.04-0.04,0.08-0.07,0.13-0.11h0.01C878,313.02,881.71,314.49,884.87,315.46z"/>
				</g>
				<g>
					<path class="st3" d="M915.89,327.93l-3.03,13.26c-2.97,1.19-5.36,2.1-5.36,2.1s-12.91-5.06-17.88-6.31
						c-4.99-1.24-17.96-4.47-17.96-4.47s14.51-6.81,17.07-9.6c1.22-1.32,2.85-3.47,3.8-5.64c1.55,0.46,10.2,2.89,18.34,1.86h0.01
						C911.91,321.3,914.13,325.8,915.89,327.93z"/>
				</g>
			</g>
			<g>
				<g>
					<path class="st4" d="M910.68,314.54c0,0-5.25-6.81-6.05-11.42c-0.66-3.88,0.91-20.01,1.42-25.01
						c-0.79,0.03-2.26-0.01-4.73-0.58c-0.31-0.06-0.6-0.14-0.88-0.21c-0.14-0.04-0.27-0.07-0.39-0.11
						c-0.06-0.02-0.13-0.03-0.19-0.05l-0.02-0.01c-0.05-0.01-0.11-0.03-0.17-0.04c-0.33-0.08-0.62-0.18-0.89-0.28
						c-0.32-0.11-0.59-0.2-0.83-0.3c-0.03-0.01-0.05-0.02-0.07-0.02c-0.32-0.13-0.58-0.24-0.79-0.36c-0.02,0-0.03-0.02-0.05-0.02
						c-0.08-0.04-0.16-0.08-0.23-0.12c-1.7,4.72-7.28,19.95-9.54,23.17c-2.71,3.81-10.4,7.67-10.4,7.67
						c-0.4,0.01-0.74,0.06-1.02,0.17c-2.18,0.74-1.36,3.75-1.36,3.75c0.07,0.05,0.14,0.08,0.22,0.14h0.01
						c3.28,2.12,6.99,3.58,10.15,4.55c3.95-1.99,6.73-4.44,6.73-4.44c2.16,1.4,1.97,3.86,0.94,6.26c1.55,0.46,10.2,2.89,18.34,1.86
						h0.01c0.08-0.01,0.16-0.02,0.24-0.03C911.13,319.11,913.76,316.08,910.68,314.54z M878.07,307.88c0.2,0.11,0.43,0.23,0.71,0.38
						C878.5,308.12,878.27,308,878.07,307.88z"/>
				</g>
				<g>
					<path class="st4" d="M906.78,277.99c0,0-0.22,0.08-0.73,0.13c-0.79,0.03-2.26-0.01-4.73-0.58c-0.31-0.06-0.6-0.14-0.88-0.21
						c-0.14-0.04-0.27-0.07-0.39-0.11c-0.06-0.02-0.13-0.03-0.19-0.05l-0.02-0.01c-0.05-0.01-0.11-0.03-0.17-0.04
						c-0.33-0.08-0.62-0.18-0.89-0.28c-0.32-0.11-0.59-0.2-0.83-0.3c-0.03-0.01-0.05-0.02-0.07-0.02c-0.32-0.13-0.58-0.24-0.79-0.36
						c-0.02,0-0.03-0.02-0.05-0.02c-0.08-0.04-0.16-0.08-0.23-0.12c-0.43-0.26-0.6-0.43-0.6-0.43c-1.14-1.8,0.71-3.09,0.71-3.09
						l10.58,2.41C907.49,274.91,908.57,276.85,906.78,277.99z"/>
				</g>
			</g>
		</g>
		<g>
			<path class="st3" d="M854.16,178.58c-0.33,0-0.63-0.22-0.72-0.55l-1.04-3.81c-3.27-1.92-6.65-4.65-10.05-8.14
				c0,0-0.01-0.01-0.01-0.01l0,0c-6.73-6.91-11.38-14.55-11.43-14.62c-0.1-0.16-0.13-0.35-0.09-0.54l3.68-18.37
				c0.07-0.35,0.38-0.6,0.74-0.6h44.44c0.36,0,0.67,0.25,0.74,0.61l2.06,10.47c0,0.02,0.01,0.04,0.01,0.06l1.15,5.89
				c0.02,0.1,0.02,0.21-0.01,0.31c-3.23,13.88-20.14,21.59-23.28,22.91v4.77c0,0.37-0.27,0.68-0.63,0.74l-5.42,0.88
				C854.24,178.58,854.2,178.58,854.16,178.58z M843.4,165.02c0,0,0.01,0.01,0.01,0.01c3.4,3.48,6.76,6.19,10,8.04
				c0.17,0.1,0.3,0.27,0.35,0.46l0.94,3.44l4.12-0.67v-4.63c0-0.31,0.19-0.59,0.48-0.7c0.19-0.08,19.4-7.77,22.81-21.89l-1.13-5.78
				c0-0.02-0.01-0.03-0.01-0.05l-1.93-9.82h-43.21l-3.5,17.47C833.18,152.26,837.47,158.93,843.4,165.02z"/>
		</g>
		<g>
			<path class="st3" d="M872.77,192.66c-0.08,0-0.17-0.01-0.25-0.04c-0.28-0.1-0.48-0.35-0.5-0.65c-0.01-0.07-0.6-7.42-3.56-11.96
				c-0.82-1.26-1.96-2.52-3.39-3.74c-2.81-2.41-5.79-3.89-5.82-3.9c-0.27-0.13-0.43-0.41-0.42-0.7c0.01-0.3,0.2-0.56,0.47-0.67
				c0.19-0.08,19.4-7.77,22.81-21.89l-0.71-3.59c-0.05-0.24,0.03-0.49,0.2-0.67c0.17-0.18,0.43-0.25,0.67-0.21
				c1.56,0.28,5.39,1.4,7.3,5.81c2.22,5.09,2.96,10.67,2.99,10.91c0.01,0.11,0,0.23-0.03,0.34c-0.03,0.09-3.01,8.82-7.62,15.99
				c-4.59,7.15-11.53,14.69-11.59,14.76C873.17,192.57,872.97,192.66,872.77,192.66z M861.29,171.76c1.19,0.69,2.99,1.84,4.75,3.36
				c1.54,1.31,2.78,2.68,3.67,4.06c2.3,3.53,3.25,8.43,3.61,10.98c2.13-2.41,6.9-7.98,10.33-13.32c4.16-6.48,6.97-14.27,7.4-15.5
				c-0.14-0.97-0.93-5.92-2.85-10.33c-1.27-2.93-3.54-4.15-5.1-4.65l0.51,2.6c0.02,0.1,0.02,0.21-0.01,0.31
				C880.63,162.09,866.01,169.63,861.29,171.76z"/>
		</g>
		<g>
			<path class="st3" d="M894.26,358.79c-1.6,0-4.52-0.15-8.14-0.34c-6.64-0.34-15.74-0.81-20.78-0.49c-1.98,0.13-3.7,0.29-5.21,0.44
				c-4.63,0.44-7.7,0.73-11.89-0.46c-5.34-1.51-30.1-7.16-30.35-7.21c-0.36-0.08-0.61-0.42-0.58-0.79
				c1.08-14.36,9.04-23.33,9.37-23.71c0.2-0.22,0.5-0.3,0.78-0.21l13.64,4.26c5.38,1.68,11.23,0.23,14.9-3.71
				c0.06-0.06,0.11-0.14,0.16-0.21c0.16-0.22,0.36-0.5,0.69-0.7c2.2-1.31,4.75-2.58,7.58-3.79l1.22-5.37
				c0.05-0.23,0.2-0.42,0.41-0.51c0.16-0.08,0.29-0.14,0.44-0.22c1.69-0.88,4.24-2.66,7.39-5.16l0.13-0.11
				c0.01-0.01,0.02-0.02,0.04-0.03c0.06-0.06,0.13-0.11,0.2-0.16c0.24-0.18,0.61-0.19,0.87-0.03c2.69,1.74,5.94,3.21,9.68,4.38
				c3.68-1.9,6.27-4.17,6.3-4.19c0.25-0.22,0.62-0.25,0.9-0.07c1.99,1.29,2.52,3.54,1.53,6.4c2.71,0.74,10.17,2.51,17.24,1.61
				c0.32-0.04,0.65,0.13,0.78,0.42c0.9,1.9,3.17,6.54,4.91,8.64c0.15,0.18,0.21,0.42,0.15,0.64l-2.71,11.87
				c2.53-1.03,4.6-1.91,6.18-2.62c2.44-1.12,4.7-1.3,6.19-0.47c0.79,0.44,1.29,1.12,1.39,1.91c0.01,0.09,0.02,0.19,0.02,0.28
				c0,0.54-0.17,1.08-0.5,1.58c-1.42,2.08-7.58,8.89-7.84,9.18c-0.17,0.19-4.19,4.62-8.06,6.06c-3.37,1.26-6.38,0.93-7.22,0.8
				c-1.02,0.38-5.65,2.04-9.44,2.12C894.51,358.79,894.39,358.79,894.26,358.79z M869.54,356.35c4.98,0,11.31,0.33,16.65,0.6
				c3.73,0.19,6.95,0.36,8.4,0.33c3.93-0.08,9.07-2.07,9.12-2.09c0.13-0.05,0.28-0.06,0.42-0.04c0.03,0.01,3.15,0.6,6.62-0.7
				c3.52-1.31,7.44-5.62,7.48-5.66c0.06-0.07,6.35-7.02,7.71-9.01c0.16-0.24,0.25-0.5,0.25-0.74c0-0.01,0-0.06,0-0.07
				c-0.04-0.32-0.27-0.6-0.63-0.81c-1.05-0.58-2.86-0.38-4.84,0.53c-1.87,0.85-4.42,1.92-7.57,3.19c-0.26,0.1-0.55,0.05-0.77-0.13
				c-0.21-0.18-0.31-0.46-0.24-0.74l2.95-12.91c-1.62-2.09-3.51-5.81-4.64-8.18c-8.04,0.9-16.48-1.45-18.11-1.94
				c-0.21-0.06-0.37-0.21-0.46-0.4c-0.09-0.19-0.09-0.42-0.01-0.61c0.98-2.29,0.91-3.97-0.23-5.01c-0.97,0.79-3.33,2.59-6.41,4.15
				c-0.17,0.09-0.38,0.1-0.56,0.05c-3.78-1.16-7.1-2.62-9.88-4.35c-3.24,2.57-5.78,4.34-7.55,5.26c-0.06,0.03-0.12,0.07-0.18,0.1
				l-1.23,5.39c-0.05,0.24-0.22,0.43-0.44,0.53c-2.91,1.22-5.52,2.51-7.75,3.84c-0.06,0.04-0.15,0.16-0.23,0.28
				c-0.09,0.13-0.18,0.25-0.29,0.37c-4.06,4.36-10.52,5.97-16.44,4.12l-13.17-4.11c-1.44,1.77-7.54,9.9-8.63,21.81
				c3.93,0.9,24.9,5.71,29.79,7.09c3.92,1.12,6.87,0.83,11.34,0.41c1.53-0.14,3.26-0.31,5.26-0.44
				C866.49,356.39,867.94,356.35,869.54,356.35z M905.67,278.87c-1.26,0-2.77-0.2-4.52-0.61c-0.31-0.06-0.62-0.14-0.9-0.22
				c-0.1-0.03-0.17-0.05-0.25-0.07l-0.15-0.04c-0.13-0.03-0.18-0.05-0.23-0.07c-0.02,0-0.11-0.03-0.13-0.04
				c-0.36-0.09-0.69-0.2-0.98-0.31c-0.28-0.09-0.56-0.19-0.81-0.28c-0.03-0.01-0.07-0.02-0.1-0.03c-0.33-0.13-0.61-0.25-0.83-0.38
				c-0.02-0.01-0.04-0.02-0.06-0.03l-0.2-0.1c-0.03-0.01-0.06-0.03-0.09-0.05c-0.48-0.29-0.7-0.5-0.74-0.54
				c-0.04-0.04-0.07-0.08-0.1-0.13c-1.2-1.91,0.07-3.52,0.91-4.11c0.17-0.12,0.39-0.16,0.6-0.12l10.58,2.42
				c0.21,0.05,0.38,0.18,0.49,0.37c0.5,0.88,0.93,2.88-0.96,4.08c-0.04,0.03-0.09,0.05-0.14,0.07c-0.08,0.03-0.36,0.12-0.93,0.17
				C905.97,278.87,905.82,278.87,905.67,278.87z M899.86,276.39c0.01,0,0.07,0.02,0.12,0.03c0.03,0.01,0.14,0.04,0.17,0.06
				l0.22,0.05c0.09,0.02,0.19,0.05,0.29,0.08c0.24,0.06,0.52,0.13,0.81,0.19c1.85,0.42,3.36,0.61,4.55,0.57
				c0.21-0.02,0.36-0.05,0.44-0.07c0.77-0.54,0.65-1.31,0.5-1.74l-9.85-2.25c-0.33,0.32-0.78,0.96-0.32,1.79
				c0.06,0.05,0.18,0.14,0.37,0.26c0.04,0.02,0.09,0.04,0.13,0.07l0,0.01c0.02,0.01,0.04,0.02,0.07,0.03
				c0.03,0.01,0.06,0.03,0.1,0.04c0.18,0.1,0.4,0.2,0.66,0.3c0.03,0.01,0.05,0.02,0.08,0.02c0.26,0.1,0.53,0.19,0.83,0.29
				C899.3,276.23,899.57,276.31,899.86,276.39L899.86,276.39z M955.65,219.75c-0.22,0-0.43-0.1-0.58-0.27
				c-0.17-0.21-0.22-0.5-0.12-0.75c0,0,0.04-0.09,0.04-0.1c0.06-0.15,0.12-0.3,0.16-0.45c0.34-0.9,0.59-1.59,0.8-2.16l0.11-0.3
				c0.12-0.32,0.43-0.53,0.78-0.49c0.34,0.03,0.62,0.3,0.67,0.63c0.14,0.91,0.27,1.84,0.39,2.78c0.03,0.2-0.03,0.4-0.15,0.56
				c-0.12,0.16-0.3,0.26-0.5,0.29c-0.5,0.06-0.98,0.15-1.46,0.25C955.75,219.75,955.7,219.75,955.65,219.75z"/>
		</g>
		<g>
			<path class="st3" d="M877.41,240.58c-0.22,0-0.44-0.1-0.59-0.28c-2.1-2.64-4.58-4.98-6.97-7.25l-0.09-0.08
				c-1.84-1.73-3.49-3.3-5-4.96c-2.31-2.52-3.85-4.8-4.85-7.16c-1.27-3-1.69-6.4-1.19-9.59c0.5-3.18,1.92-5.74,3.9-7.01
				c0.17-0.11,0.34-0.22,0.51-0.3c2.05-1.07,4.95-0.91,7.75,0.41c2.47,1.19,4.67,3.13,6.7,5.01c0.16,0.15,0.25,0.37,0.24,0.59
				c-0.39,7.27-0.65,18.35,0.33,29.82c0.03,0.33-0.16,0.64-0.47,0.76C877.59,240.56,877.5,240.58,877.41,240.58z M866.26,204.72
				c-0.91,0-1.75,0.18-2.45,0.54c-0.13,0.07-0.26,0.15-0.38,0.23c-1.6,1.02-2.8,3.26-3.23,5.98c-0.46,2.92-0.08,6.03,1.09,8.77
				c0.93,2.2,2.38,4.34,4.58,6.74c1.48,1.63,3.11,3.18,4.93,4.88l0.09,0.09c1.88,1.78,3.81,3.62,5.6,5.61
				c-0.75-10.53-0.52-20.53-0.17-27.35c-1.88-1.73-3.9-3.47-6.07-4.52C868.87,205.05,867.5,204.72,866.26,204.72z"/>
		</g>
		<g>
			<path class="st3" d="M894.26,358.79c-1.6,0-4.52-0.15-8.14-0.34c-6.64-0.34-15.74-0.81-20.78-0.49c-1.98,0.13-3.7,0.29-5.21,0.44
				c-4.63,0.44-7.7,0.73-11.89-0.46c-5.34-1.51-30.1-7.16-30.35-7.21c-0.36-0.08-0.61-0.42-0.58-0.79
				c1.08-14.36,9.04-23.33,9.37-23.71c0.2-0.22,0.5-0.3,0.78-0.21l13.64,4.26c5.38,1.68,11.23,0.23,14.9-3.71
				c0.06-0.06,0.11-0.14,0.16-0.21c0.16-0.22,0.36-0.5,0.69-0.7c2.29-1.36,4.96-2.69,7.93-3.94c6.03-2.56,11.88-4.24,14.83-5.01
				c1.61-0.42,3.26-1.07,4.91-1.91c3.82-1.92,6.55-4.31,6.57-4.33c0.25-0.22,0.62-0.25,0.9-0.07c2.17,1.41,2.61,3.96,1.22,7.19
				c-1.24,2.83-3.33,5.2-3.94,5.86c-2.09,2.26-11.36,6.9-15.42,8.86c3.85,0.96,12.17,3.03,15.93,3.97
				c4.63,1.16,15.77,5.47,17.7,6.23c0.7-0.27,2.7-1.04,5.07-1.99c3.14-1.26,5.66-2.32,7.51-3.16c2.44-1.12,4.7-1.3,6.19-0.47
				c0.8,0.44,1.29,1.12,1.4,1.92c0.01,0.06,0.02,0.17,0.02,0.27c0,0.54-0.17,1.08-0.5,1.58c-1.42,2.08-7.58,8.89-7.84,9.18
				c-0.17,0.19-4.19,4.62-8.06,6.06c-3.37,1.26-6.38,0.93-7.22,0.8c-1.02,0.38-5.65,2.04-9.44,2.12
				C894.51,358.79,894.39,358.79,894.26,358.79z M869.54,356.35c4.98,0,11.31,0.33,16.65,0.6c3.73,0.19,6.95,0.36,8.4,0.33
				c3.93-0.08,9.07-2.07,9.12-2.09c0.13-0.05,0.28-0.06,0.42-0.04c0.03,0.01,3.15,0.6,6.62-0.7c3.53-1.31,7.44-5.62,7.47-5.66
				c0.07-0.07,6.35-7.02,7.71-9.01c0.16-0.24,0.25-0.5,0.25-0.74l0-0.06c-0.04-0.33-0.27-0.62-0.64-0.82
				c-1.05-0.58-2.86-0.38-4.84,0.53c-1.87,0.85-4.42,1.92-7.57,3.19c-2.98,1.19-5.37,2.1-5.37,2.1c-0.17,0.07-0.37,0.07-0.54,0
				c-0.13-0.05-12.92-5.06-17.79-6.28c-4.99-1.24-17.96-4.47-17.96-4.47c-0.31-0.08-0.54-0.34-0.57-0.65
				c-0.03-0.32,0.14-0.62,0.43-0.75c4-1.88,14.82-7.23,16.84-9.42c1.18-1.27,2.75-3.36,3.66-5.43c0.98-2.28,0.9-3.96-0.23-5
				c-0.97,0.79-3.33,2.59-6.41,4.15c-1.74,0.89-3.49,1.58-5.21,2.03c-2.91,0.76-8.68,2.41-14.63,4.94
				c-2.91,1.22-5.52,2.52-7.75,3.85c-0.06,0.04-0.15,0.16-0.23,0.28c-0.09,0.13-0.18,0.25-0.29,0.37
				c-4.06,4.36-10.52,5.97-16.44,4.12l-13.17-4.11c-1.44,1.77-7.54,9.9-8.63,21.81c3.93,0.9,24.9,5.71,29.79,7.09
				c3.92,1.12,6.87,0.83,11.34,0.41c1.53-0.14,3.26-0.31,5.26-0.44C866.49,356.39,867.94,356.35,869.54,356.35z"/>
		</g>
		<g>
			<g>
				<g>
					<path class="st3" d="M907.49,275.66c-0.06,0-0.11-0.01-0.17-0.02l-10.58-2.42c-0.07-0.02-0.13-0.04-0.2-0.08
						c-0.41-0.23-10.06-5.67-15.82-17.85c-0.25-0.52-0.49-1.06-0.73-1.59c-0.18-0.42-0.34-0.82-0.5-1.23
						c-0.7-1.81-1.26-3.59-1.71-5.44c-0.11-0.45-0.21-0.9-0.32-1.37l-0.1-0.44c-0.01-0.03-0.01-0.07-0.02-0.1l-0.03-0.17
						c-0.09-0.46-0.17-0.91-0.24-1.36c-0.13-0.84-0.23-1.58-0.29-2.26c0-0.02-0.01-0.03-0.01-0.05h0c-0.03-0.21-0.05-0.43-0.07-0.65
						l-0.07-0.73c-0.98-11.58-0.72-22.73-0.33-30.05c0.15-2.85,0.34-5.69,0.59-8.67c0.27-3.07,0.51-4.91,0.51-4.93
						c0.04-0.3,0.25-0.54,0.53-0.62c2.3-0.67,5.37-1.08,9.1-1.22c0.38-0.04,0.76,0.31,0.78,0.72c0.02,0.41-0.31,0.76-0.72,0.78
						c-3.36,0.12-6.13,0.47-8.26,1.03c-0.09,0.73-0.25,2.25-0.44,4.37c-0.25,2.96-0.44,5.78-0.59,8.62
						c-0.39,7.27-0.65,18.35,0.33,29.82l0.07,0.78c0.01,0.15,0.02,0.31,0.04,0.46c0.02,0.07,0.03,0.14,0.03,0.2
						c0.07,0.68,0.17,1.44,0.29,2.17c0.06,0.45,0.15,0.87,0.23,1.31l0.03,0.17c0.02,0.06,0.03,0.12,0.03,0.18l0.07,0.31
						c0.1,0.45,0.2,0.89,0.31,1.34c0.43,1.79,0.97,3.51,1.65,5.25c0.16,0.41,0.31,0.79,0.48,1.18c0.22,0.51,0.46,1.03,0.7,1.54
						c5.26,11.13,14.13,16.56,15.11,17.13l10.36,2.36c1.13-0.09,11.47-1.16,21.03-8.92c0.73-0.59,1.46-1.22,2.16-1.87
						c-0.78-0.45-1.51-0.89-2.22-1.32c-2.39-1.45-4.28-2.6-6.66-2.87c-3.35-0.38-4.16-3.16-4.11-4.58c0.01-0.28,0.18-0.54,0.43-0.66
						l1.33-0.62c-0.84-0.23-2.06-0.52-3.78-0.82c-1.41-0.24-2.49-0.9-3.21-1.94c-1.38-2-0.87-4.69-0.85-4.8
						c0.06-0.32,0.32-0.56,0.64-0.6l2.15-0.28c-1.2-1.04-1.93-2.22-2.18-3.51c-0.46-2.33,0.85-4.12,0.91-4.2
						c0.15-0.2,0.38-0.31,0.62-0.3l4.1,0.09c-0.84-0.92-1.27-1.96-1.14-2.88c0.13-0.9,0.78-1.53,1.78-1.74
						c0.79-0.16,1.82-0.25,3.01-0.36c2.18-0.19,4.89-0.43,7.86-1.24c4.3-1.18,6.95-0.3,7.62-0.02c0.83,0.03,4.85,0.21,6.54,0.84
						c0.73,0.28,2.84,1.21,5.09,2.25c0.91-1.98,1.79-4,2.69-6.15c0.13-0.26,0.22-0.5,0.31-0.72l0.07-0.17
						c1.14-2.73,2.22-5.43,3.2-8.04c0,0,0.04-0.1,0.04-0.11c0.06-0.15,0.12-0.3,0.16-0.45c0.34-0.9,0.59-1.59,0.8-2.16l0.4-1.12
						c0.03-0.1,0.06-0.19,0.09-0.27c-0.17-0.15-0.34-0.29-0.51-0.42c-0.12-0.1-0.24-0.19-0.36-0.28l-0.23-0.18
						c-1.65-1.25-3.73-2.52-6.35-3.88c-0.89-0.46-1.8-0.92-2.75-1.36c-3.91-1.86-8.55-3.73-13.8-5.56c-0.39-0.14-0.6-0.56-0.46-0.96
						c0.14-0.39,0.56-0.6,0.96-0.46c5.3,1.85,9.99,3.74,13.94,5.62c0.96,0.44,1.89,0.91,2.8,1.38c2.7,1.4,4.85,2.72,6.58,4.02
						l0.23,0.18c0.13,0.1,0.27,0.21,0.39,0.31c0.29,0.23,0.58,0.48,0.86,0.72c0.24,0.2,0.38,0.58,0.28,0.88c0,0-0.09,0.26-0.26,0.75
						l-0.41,1.14c-0.21,0.58-0.47,1.28-0.78,2.1c-0.03,0.12-0.11,0.35-0.2,0.56c-1.02,2.71-2.1,5.43-3.25,8.16l-0.06,0.15
						c-0.1,0.27-0.21,0.54-0.34,0.8c-0.99,2.36-1.98,4.61-3,6.83c-0.08,0.18-0.24,0.32-0.42,0.39c-0.19,0.07-0.39,0.06-0.58-0.02
						c-2.8-1.3-5-2.27-5.66-2.52c-1.35-0.5-4.94-0.71-6.21-0.75c-0.11,0-0.22-0.03-0.31-0.08c-0.02-0.01-2.41-1.13-6.72,0.05
						c-3.1,0.84-5.88,1.09-8.12,1.29c-1.14,0.1-2.13,0.19-2.84,0.34c-0.55,0.11-0.59,0.38-0.6,0.49c-0.1,0.7,0.73,1.98,2.27,2.8
						c0.31,0.16,0.46,0.52,0.37,0.85c-0.09,0.34-0.38,0.56-0.74,0.56l-5.95-0.14c-0.26,0.5-0.69,1.53-0.45,2.72
						c0.27,1.35,1.3,2.57,3.06,3.65c0.27,0.16,0.41,0.49,0.34,0.8c-0.07,0.31-0.32,0.55-0.64,0.59l-3.45,0.44
						c-0.05,0.74-0.03,2.12,0.68,3.15c0.49,0.71,1.22,1.13,2.22,1.31c4.43,0.77,5.75,1.48,5.89,1.55c0.24,0.14,0.39,0.4,0.38,0.68
						c-0.01,0.28-0.18,0.53-0.43,0.65l-2.54,1.18c0.11,0.8,0.59,2.35,2.75,2.6c2.71,0.31,4.82,1.59,7.27,3.08
						c0.95,0.58,1.94,1.18,3.04,1.77v0c0.24,0.13,0.41,0.38,0.41,0.67c0,0.2-0.08,0.4-0.23,0.54c-0.96,0.93-1.96,1.82-2.99,2.65
						c-10.47,8.49-21.53,9.23-21.99,9.25C907.52,275.66,907.5,275.66,907.49,275.66z"/>
				</g>
			</g>
			<g>
				<g>
					<g>
						<path class="st3" d="M839.9,192.66c-0.15,0-0.31-0.05-0.44-0.14c-9.63-6.87-17.76-26.75-18.1-27.6
							c-0.05-0.13-0.07-0.28-0.04-0.42c0.01-0.06,1.07-5.69,2.53-10.31c0.72-2.28,1.43-3.98,2.12-5.05c2.48-3.84,6.57-6.5,6.74-6.61
							c0.35-0.23,0.81-0.12,1.04,0.22c0.22,0.35,0.12,0.81-0.22,1.04c-0.04,0.03-4,2.61-6.29,6.17c-0.61,0.96-1.27,2.53-1.95,4.69
							c-1.27,4.02-2.24,8.84-2.45,9.91c0.86,2.06,8.18,19.2,16.57,26.03c0.34-1.54,1.05-4.39,2.17-7.38
							c0.01-0.03,0.02-0.06,0.03-0.09c0.54-1.43,1.12-2.73,1.72-3.89c2.28-4.34,4.69-6.02,6.82-6.44c-2.56-1.77-5.18-4.01-7.8-6.7
							c-0.14-0.14-0.23-0.33-0.23-0.54c0-0.41,0.34-0.75,0.75-0.75c0.21,0,0.4,0.09,0.54,0.23c0,0,0.01,0.01,0.01,0.01
							c3.4,3.48,6.76,6.19,10,8.04c0.33,0.19,0.47,0.61,0.31,0.96c-0.16,0.35-0.55,0.53-0.92,0.41c-2.98-0.99-5.72,0.85-8.15,5.48
							c-0.57,1.08-1.12,2.31-1.62,3.65c-0.01,0.03-0.02,0.06-0.03,0.09c-1.6,4.25-2.36,8.34-2.37,8.38
							c-0.05,0.25-0.22,0.46-0.46,0.56C840.09,192.64,840,192.66,839.9,192.66z M843.61,165.55L843.61,165.55L843.61,165.55z"/>
					</g>
					<g>
						<path class="st3" d="M880.94,255.99c-0.02,0-0.04,0-0.07,0c-2.15-0.1-6.19-6.01-6.76-7.15c-1.61-3.21-4.18-5.97-6.49-8.25
							l-0.13-0.13c-0.47-0.46-0.96-0.92-1.45-1.39l-1.09-1.04c-2-1.88-4.06-3.83-5.95-6.02c-0.7-0.76-1.4-1.62-2.13-2.61
							c-1.42-1.92-2.53-3.83-3.39-5.83c-1.79-4.24-2.36-8.86-1.65-13.39c0.89-5.72,3.84-10.26,8.08-12.43
							c1.17-0.59,2.43-1.01,3.76-1.23c3.27-0.58,6.91-0.03,10.23,1.56c1.44,0.71,2.86,1.58,4.21,2.6c0.21,0.15,0.32,0.41,0.3,0.66
							c-0.25,2.96-0.44,5.78-0.59,8.62c-0.02,0.29-0.2,0.55-0.47,0.66c-0.27,0.11-0.58,0.05-0.79-0.14
							c-1.96-1.81-4.06-3.66-6.33-4.76c-2.38-1.12-4.78-1.29-6.43-0.43c-0.13,0.07-0.26,0.15-0.38,0.23
							c-1.6,1.02-2.8,3.26-3.23,5.98c-0.46,2.92-0.08,6.03,1.09,8.77c0.93,2.2,2.38,4.34,4.58,6.74c1.48,1.63,3.11,3.18,4.93,4.88
							l0.09,0.09c2.43,2.3,4.94,4.69,7.11,7.41c0.09,0.11,0.14,0.24,0.16,0.38l0.07,0.8c0.01,0.15,0.02,0.31,0.04,0.46
							c0.02,0.07,0.03,0.14,0.03,0.2c0.07,0.68,0.17,1.44,0.29,2.17c0.06,0.45,0.15,0.87,0.23,1.31l0.03,0.17
							c0.02,0.06,0.03,0.12,0.03,0.18l0.07,0.31c0.1,0.45,0.2,0.89,0.31,1.34c0.43,1.79,0.97,3.51,1.65,5.25
							c0.16,0.41,0.31,0.79,0.48,1.18c0.22,0.51,0.46,1.03,0.7,1.54c0.11,0.23,0.09,0.5-0.04,0.71
							C881.8,255.77,881.4,255.99,880.94,255.99z M866.28,197.78c-0.8,0-1.59,0.07-2.35,0.2c-1.19,0.2-2.31,0.57-3.33,1.09
							c-3.81,1.96-6.47,6.09-7.29,11.33c-0.66,4.25-0.13,8.6,1.55,12.57c0.81,1.9,1.86,3.71,3.21,5.53c0.7,0.94,1.37,1.76,2.05,2.5
							c1.85,2.15,3.89,4.07,5.87,5.93l1.09,1.04c0.5,0.47,0.98,0.94,1.47,1.41l0.13,0.13c2.39,2.36,5.07,5.24,6.77,8.65
							c0.72,1.46,3.24,4.67,4.68,5.86c-0.05-0.11-0.1-0.21-0.14-0.32c-0.18-0.42-0.34-0.82-0.5-1.23c-0.7-1.81-1.26-3.59-1.71-5.44
							c-0.11-0.45-0.21-0.9-0.32-1.37l-0.1-0.44c-0.01-0.03-0.01-0.07-0.02-0.1l-0.03-0.17c-0.09-0.46-0.17-0.91-0.24-1.36
							c-0.13-0.84-0.23-1.58-0.29-2.26c0-0.02-0.01-0.03-0.01-0.05h0c-0.03-0.21-0.05-0.43-0.07-0.65l-0.05-0.52
							c-2.07-2.57-4.49-4.86-6.83-7.08l-0.09-0.08c-1.84-1.73-3.49-3.3-5-4.96c-2.31-2.52-3.85-4.8-4.85-7.16
							c-1.27-3-1.69-6.4-1.19-9.59c0.5-3.18,1.92-5.74,3.9-7.01c0.17-0.11,0.34-0.22,0.51-0.3c2.05-1.07,4.95-0.91,7.75,0.41
							c2,0.96,3.83,2.42,5.53,3.94c0.13-2.19,0.28-4.39,0.47-6.67c-1.18-0.85-2.4-1.59-3.63-2.2
							C871,198.34,868.59,197.78,866.28,197.78z"/>
					</g>
				</g>
			</g>
			<g>
				<g>
					<g>
						<path class="st3" d="M953.05,308.18c-0.84,0-1.71-0.17-2.6-0.54c-6.21-2.62-11.88-8.5-12.61-11.81
							c-0.64-2.92,2.33-14.3,2.99-16.78c-1.95-2.9-2.63-9.24-2.76-10.72c-0.52-0.46-1.96-1.68-3.92-2.96
							c-0.89-0.58-1.71-1.07-2.52-1.49c-0.02-0.01-0.05-0.03-0.07-0.04c-1.11-0.6-2.09-1.2-3.05-1.78c-2.39-1.45-4.28-2.6-6.66-2.87
							c-3.35-0.38-4.16-3.16-4.11-4.58c0.01-0.28,0.18-0.54,0.43-0.66l1.33-0.62c-0.84-0.23-2.06-0.52-3.78-0.82
							c-1.41-0.24-2.49-0.9-3.21-1.94c-1.38-2-0.87-4.69-0.85-4.8c0.06-0.32,0.32-0.56,0.64-0.6l2.15-0.28
							c-1.2-1.04-1.93-2.22-2.18-3.51c-0.46-2.33,0.85-4.12,0.91-4.2c0.15-0.2,0.38-0.31,0.62-0.3l4.1,0.09
							c-0.84-0.92-1.27-1.96-1.14-2.88c0.13-0.9,0.78-1.53,1.78-1.74c0.79-0.16,1.82-0.25,3.01-0.36c2.18-0.19,4.89-0.43,7.86-1.24
							c4.3-1.18,6.95-0.3,7.62-0.02c0.83,0.03,4.85,0.21,6.54,0.84c0.81,0.3,3.29,1.41,5.77,2.57c3.6,1.69,8.16,3.93,9.48,5.04
							c0.43,0.36,0.84,0.82,1.19,1.33c1.06,1.5,1.6,3.3,1.77,4c0.58,0.43,2.47,2.06,3.01,5.46c0.06,0.38,0.08,0.85,0.07,1.43
							c-0.06,5.04-2.6,17.21-2.85,18.4v31.44c0,0.12-0.03,0.25-0.09,0.36C960.57,304.15,957.2,308.18,953.05,308.18z M932.4,262.58
							c0.82,0.44,1.67,0.94,2.58,1.53c2.59,1.69,4.26,3.24,4.33,3.31c0.14,0.13,0.22,0.3,0.24,0.49c0.01,0.08,0.63,7.86,2.7,10.53
							c0.14,0.19,0.19,0.43,0.13,0.66c-1.02,3.78-3.57,14.09-3.07,16.41c0.56,2.55,5.53,8.14,11.73,10.75
							c4.95,2.08,8.88-4.14,9.51-5.22v-31.32c0-0.05,0.01-0.1,0.02-0.16c0.03-0.13,2.77-13.15,2.83-18.19c0,0,0,0,0-0.01
							c0.01-0.48-0.01-0.88-0.05-1.16c-0.52-3.27-2.47-4.53-2.56-4.59c-0.05-0.03-0.1-0.07-0.14-0.12c-0.1-0.1-0.19-0.26-0.22-0.39
							c0-0.02-0.46-2.12-1.61-3.74c-0.28-0.41-0.59-0.76-0.92-1.04c-0.92-0.77-4.25-2.53-9.15-4.83c-2.79-1.3-5-2.27-5.66-2.52
							c-1.35-0.5-4.94-0.71-6.21-0.75c-0.11,0-0.22-0.03-0.31-0.08c-0.02-0.01-2.41-1.13-6.72,0.05c-3.1,0.84-5.88,1.09-8.12,1.29
							c-1.14,0.1-2.13,0.19-2.84,0.34c-0.55,0.11-0.59,0.38-0.6,0.49c-0.1,0.7,0.73,1.98,2.27,2.8c0.31,0.16,0.46,0.52,0.37,0.85
							c-0.09,0.34-0.38,0.56-0.74,0.56l-5.95-0.14c-0.26,0.5-0.69,1.53-0.45,2.72c0.27,1.35,1.3,2.57,3.06,3.65
							c0.27,0.16,0.41,0.49,0.34,0.8c-0.07,0.31-0.32,0.55-0.64,0.59l-3.45,0.44c-0.05,0.74-0.03,2.12,0.68,3.15
							c0.49,0.71,1.22,1.13,2.22,1.31c4.43,0.77,5.75,1.48,5.89,1.55c0.24,0.14,0.39,0.4,0.38,0.68c-0.01,0.28-0.18,0.53-0.43,0.65
							l-2.54,1.18c0.11,0.8,0.59,2.35,2.75,2.6c2.71,0.31,4.82,1.59,7.27,3.08c0.95,0.58,1.94,1.18,3.04,1.77v0
							C932.36,262.56,932.38,262.57,932.4,262.58z M961.29,301.24L961.29,301.24L961.29,301.24z"/>
					</g>
					<g>
						<path class="st3" d="M964.14,252.14c-0.13,0-0.25-0.03-0.37-0.1c-0.24-0.14-0.39-0.39-0.38-0.67
							c0.01-0.48-0.01-0.88-0.05-1.16c-0.52-3.27-2.47-4.53-2.56-4.59c-0.21-0.13-0.34-0.36-0.35-0.61
							c-0.01-0.25,0.11-0.49,0.31-0.63c0.51-0.37,1-0.75,1.46-1.16c2.24-1.96,3.94-4.6,4.77-7.44c0.89-2.86,0.68-5.53-0.54-7.15
							c-1.13-1.49-3.38-2.39-6.01-2.4c-0.71,0-1.49,0.06-2.31,0.19c-1.85,0.28-3.78,0.84-5.45,1.36c-0.28,0.09-0.58,0-0.78-0.21
							c-0.2-0.22-0.25-0.53-0.14-0.79c1.14-2.71,2.21-5.41,3.2-8.03c0.09-0.24,0.3-0.42,0.56-0.47c0.51-0.1,1.02-0.2,1.56-0.26
							c1.1-0.16,2.24-0.25,3.36-0.25c5.27,0.01,10.04,2.16,12.76,5.76c2.89,3.79,3.59,9.15,1.91,14.7
							c-1.33,4.41-3.85,8.33-7.3,11.35c-1.04,0.91-2.13,1.73-3.25,2.44C964.42,252.1,964.28,252.14,964.14,252.14z M962.39,245.01
							c0.83,0.8,2.02,2.37,2.43,4.96c0,0.02,0,0.03,0.01,0.05c0.68-0.49,1.34-1.01,1.98-1.57c3.23-2.84,5.6-6.52,6.85-10.66l0,0
							c1.54-5.09,0.93-9.96-1.67-13.36c-2.44-3.23-6.76-5.16-11.56-5.17c-1.05,0-2.11,0.08-3.16,0.23
							c-0.37,0.04-0.72,0.11-1.07,0.17c-0.77,2.04-1.6,4.12-2.46,6.23c1.33-0.38,2.75-0.74,4.15-0.95c0.9-0.14,1.73-0.21,2.54-0.21
							c3.1,0.01,5.79,1.13,7.2,3c1.52,2,1.81,5.17,0.78,8.49c-0.91,3.1-2.77,5.99-5.22,8.13
							C962.93,244.57,962.66,244.8,962.39,245.01z"/>
					</g>
				</g>
			</g>
			<g>
				<g>
					<path class="st3" d="M865.08,323.16c-0.17,0-0.34-0.06-0.48-0.17c-0.22-0.18-0.31-0.47-0.25-0.74l1.31-5.75
						c0.05-0.23,0.2-0.42,0.41-0.51c0.16-0.08,0.29-0.14,0.44-0.22c1.69-0.88,4.24-2.66,7.39-5.16l0.13-0.11
						c0.01-0.01,0.02-0.02,0.04-0.03c0.06-0.06,0.13-0.11,0.19-0.16c0.25-0.18,0.61-0.19,0.87-0.03c2.76,1.78,6.11,3.29,9.97,4.47
						c0.29,0.09,0.5,0.35,0.53,0.65c0.03,0.3-0.13,0.59-0.4,0.73c-1.74,0.89-3.49,1.58-5.21,2.03c-2.91,0.76-8.68,2.41-14.63,4.94
						C865.28,323.14,865.18,323.16,865.08,323.16z M867.04,317.18l-0.91,3.98c5.54-2.25,10.76-3.74,13.49-4.45
						c1.06-0.28,2.14-0.65,3.22-1.12c-3.04-1.05-5.75-2.31-8.08-3.76c-3.24,2.57-5.78,4.34-7.55,5.26
						C867.16,317.12,867.1,317.15,867.04,317.18z"/>
				</g>
				<g>
					<path class="st3" d="M907.51,344.05c-0.09,0-0.19-0.02-0.27-0.05c-0.13-0.05-12.92-5.06-17.79-6.28
						c-4.99-1.24-17.96-4.47-17.96-4.47c-0.31-0.08-0.54-0.34-0.57-0.65c-0.03-0.32,0.14-0.62,0.43-0.75
						c4-1.88,14.82-7.23,16.84-9.42c1.18-1.27,2.75-3.36,3.66-5.43c0.15-0.35,0.54-0.53,0.9-0.42c1.61,0.48,10.06,2.84,18.03,1.83
						c0.32-0.04,0.65,0.13,0.78,0.42c0.9,1.9,3.17,6.54,4.91,8.64c0.15,0.18,0.21,0.42,0.15,0.64l-3.03,13.26
						c-0.05,0.24-0.22,0.44-0.45,0.53c-2.98,1.19-5.37,2.1-5.37,2.1C907.69,344.03,907.6,344.05,907.51,344.05z M873.88,332.3
						c3.85,0.96,12.17,3.03,15.93,3.97c4.63,1.16,15.77,5.47,17.7,6.23c0.67-0.26,2.5-0.96,4.71-1.84l2.86-12.53
						c-1.62-2.09-3.51-5.81-4.64-8.18c-7.29,0.82-14.92-1.04-17.49-1.76c-1.25,2.56-3.09,4.64-3.66,5.25
						C887.21,325.7,877.93,330.33,873.88,332.3z"/>
				</g>
			</g>
			<g>
				<g>
					<path class="st3" d="M906.65,320.14c-6.77,0-12.95-1.73-14.33-2.14c-0.21-0.06-0.37-0.21-0.46-0.4
						c-0.09-0.19-0.09-0.42-0.01-0.61c0.98-2.29,0.91-3.97-0.23-5.01c-0.97,0.79-3.33,2.59-6.41,4.15c-0.17,0.09-0.38,0.1-0.56,0.05
						c-3.96-1.21-7.41-2.76-10.27-4.6c-0.02-0.01-0.05-0.02-0.07-0.04c-0.13-0.08-0.19-0.11-0.25-0.16
						c-0.14-0.1-0.25-0.25-0.29-0.42c-0.35-1.28-0.41-3.9,1.84-4.66c0.29-0.11,0.65-0.18,1.07-0.2c1.05-0.54,7.61-4.02,9.98-7.36
						c2.31-3.28,8.28-19.72,9.45-22.99c0.07-0.19,0.22-0.35,0.41-0.43c0.19-0.08,0.41-0.08,0.6,0c0.06,0.03,0.12,0.06,0.19,0.09
						l0,0.01c0.02,0.01,0.04,0.02,0.07,0.03c0.03,0.01,0.06,0.03,0.1,0.04c0.18,0.1,0.4,0.2,0.66,0.3c0.03,0.01,0.05,0.02,0.08,0.02
						c0.26,0.1,0.53,0.19,0.83,0.29c0.28,0.11,0.54,0.19,0.83,0.27h0c0.01,0,0.07,0.02,0.12,0.03c0.03,0.01,0.14,0.04,0.17,0.06
						l0.22,0.05c0.09,0.02,0.19,0.05,0.29,0.08c0.24,0.06,0.52,0.13,0.81,0.19c1.85,0.42,3.36,0.61,4.55,0.57
						c0.21-0.02,0.43,0.08,0.58,0.24c0.15,0.16,0.22,0.37,0.2,0.59c-1.03,9.99-1.95,21.76-1.43,24.81
						c0.7,4.04,5.09,10.01,5.81,10.96c0.95,0.52,1.52,1.22,1.69,2.11c0.34,1.73-1.02,3.36-1.18,3.54c-0.12,0.14-0.29,0.23-0.47,0.25
						l-0.09-0.74l0,0.76l-0.16,0.02C909.53,320.07,908.08,320.14,906.65,320.14z M911.13,319.11L911.13,319.11L911.13,319.11z
						 M911.13,319.11L911.13,319.11L911.13,319.11z M893.53,316.79c2.7,0.74,10.13,2.5,17.19,1.61c0.33-0.46,0.82-1.33,0.67-2.05
						c-0.09-0.46-0.44-0.83-1.05-1.14c-0.1-0.05-0.19-0.12-0.26-0.21c-0.22-0.28-5.37-7.01-6.2-11.75
						c-0.65-3.82,0.75-18.7,1.33-24.39c-1.15-0.04-2.52-0.24-4.07-0.6c-0.31-0.06-0.62-0.14-0.9-0.22c-0.1-0.03-0.17-0.05-0.25-0.07
						l-0.15-0.04c-0.13-0.03-0.18-0.05-0.23-0.07c-0.02,0-0.11-0.03-0.13-0.04c-0.36-0.09-0.69-0.2-0.98-0.31
						c-0.28-0.09-0.56-0.19-0.81-0.28c-0.03-0.01-0.07-0.02-0.1-0.03c-0.13-0.05-0.26-0.11-0.37-0.16
						c-1.94,5.37-7.11,19.38-9.35,22.56c-2.79,3.92-10.35,7.74-10.67,7.9c-0.1,0.05-0.21,0.08-0.32,0.08
						c-0.33,0.01-0.58,0.05-0.78,0.12c-1.2,0.41-1.07,1.93-0.96,2.57c2.68,1.73,5.93,3.2,9.65,4.36c3.68-1.9,6.27-4.17,6.3-4.19
						c0.25-0.22,0.62-0.25,0.9-0.07C894,311.68,894.53,313.94,893.53,316.79z"/>
				</g>
				<g>
					<path class="st3" d="M905.67,278.87c-1.26,0-2.77-0.2-4.52-0.61c-0.31-0.06-0.62-0.14-0.9-0.22c-0.1-0.03-0.17-0.05-0.25-0.07
						l-0.15-0.04c-0.13-0.03-0.18-0.05-0.23-0.07c-0.02,0-0.11-0.03-0.13-0.04c-0.36-0.09-0.69-0.2-0.98-0.31
						c-0.28-0.09-0.56-0.19-0.81-0.28c-0.03-0.01-0.07-0.02-0.1-0.03c-0.33-0.13-0.61-0.25-0.83-0.38
						c-0.02-0.01-0.04-0.02-0.06-0.03l-0.2-0.1c-0.03-0.01-0.06-0.03-0.09-0.05c-0.48-0.29-0.7-0.5-0.74-0.54
						c-0.04-0.04-0.07-0.08-0.1-0.13c-1.2-1.91,0.07-3.52,0.91-4.11c0.17-0.12,0.39-0.16,0.6-0.12l10.58,2.42
						c0.21,0.05,0.38,0.18,0.49,0.37c0.5,0.88,0.93,2.88-0.96,4.08c-0.04,0.03-0.09,0.05-0.14,0.07c-0.08,0.03-0.36,0.12-0.93,0.17
						C905.97,278.87,905.82,278.87,905.67,278.87z M906.78,277.99L906.78,277.99L906.78,277.99z M899.86,276.39
						c0.01,0,0.07,0.02,0.12,0.03c0.03,0.01,0.14,0.04,0.17,0.06l0.22,0.05c0.09,0.02,0.19,0.05,0.29,0.08
						c0.24,0.06,0.52,0.13,0.81,0.19c1.85,0.42,3.36,0.61,4.55,0.57c0.21-0.02,0.36-0.05,0.44-0.07c0.77-0.54,0.65-1.31,0.5-1.74
						l-9.85-2.25c-0.33,0.32-0.78,0.96-0.32,1.79c0.06,0.05,0.18,0.14,0.37,0.26c0.04,0.02,0.09,0.04,0.13,0.07l0,0.01
						c0.02,0.01,0.04,0.02,0.07,0.03c0.03,0.01,0.06,0.03,0.1,0.04c0.18,0.1,0.4,0.2,0.66,0.3c0.03,0.01,0.05,0.02,0.08,0.02
						c0.26,0.1,0.53,0.19,0.83,0.29C899.3,276.23,899.57,276.31,899.86,276.39L899.86,276.39z"/>
				</g>
			</g>
		</g>
		<g>
			<g>
				<path class="st0" d="M902.35,99.4c-0.56,8.05-5.74,12.83-9.7,15l-0.01,0.09c0,0-1.59,7.45-4.57,16.27
					c-0.06,0.18-0.14,0.38-0.19,0.56c-0.56,1.61-2.53,4.88-5.49,8.46c-0.38,0.45-0.76,0.9-1.17,1.35c-0.36,0.41-0.7,0.79-1.07,1.19
					c0,0.01-0.01,0.02-0.01,0.02s0,0-0.01,0c-5.73,6.1-14.01,12.15-22.85,11.7c-10.66-0.54-20.01-10.43-25.17-18.03
					c-0.22-0.33-0.45-0.66-0.65-0.99c-0.98-1.52-1.78-2.93-2.37-4.11c-0.53-1.07-0.91-1.95-1.07-2.59c-0.31-1.1-0.61-2.19-0.87-3.23
					c-1.8-7.04-2.77-12.7-2.95-13.83c-0.02-0.08-0.02-0.15-0.02-0.19c0-0.06,0-0.11,0-0.11c-3.85-2.55-8.77-7.87-8.88-15.95
					c-0.08-5.72,0.97-10.04,2.46-12.83c0.19-0.35,0.38-0.68,0.59-0.97l0.02-0.02c0.72-1.1,1.53-1.87,2.33-2.31
					c0.79-0.44,1.59-0.56,2.32-0.33c1.15,0.33,2.22,1.76,3.1,3.44c2.52-12.73,12.28-17.79,12.61-17.96c0.01,0,0.01,0,0.01,0
					s8.49,6.67,21.26,7.37c3.49,0.19,7.08-0.75,10.45-2.22c8.94-3.89,16.33-11.49,16.33-11.49c5.25,10.47,5.5,26.09,5.51,27.54
					c0.01,0.07,0,0.11,0,0.11c0.99-1.61,2.12-2.91,3.28-3.15c1.49-0.28,3.19,0.79,4.52,3.13c0.29,0.53,0.58,1.13,0.83,1.79
					c0.18,0.47,0.36,0.97,0.51,1.49c0.22,0.75,0.42,1.57,0.58,2.45C902.41,93.41,902.58,96.2,902.35,99.4z"/>
			</g>
			<g>
				<path class="st5" d="M900.9,87.09c-0.25-0.66-0.53-1.25-0.83-1.79c-1.33-2.34-3.03-3.41-4.52-3.13
					c-1.15,0.24-2.29,1.53-3.28,3.15c0,0,0-0.04,0-0.11c-0.01-1.45-0.26-17.07-5.51-27.54c0,0-7.39,7.6-16.33,11.49
					c-3.37,1.47-6.96,2.41-10.45,2.22c-12.77-0.7-21.26-7.37-21.26-7.37s0,0-0.01,0c-0.33,0.17-10.09,5.23-12.61,17.96
					c-0.88-1.69-1.95-3.12-3.1-3.44c-0.73-0.23-1.53-0.12-2.32,0.33c-0.72-23.12,7.17-32.44,7.17-32.44
					c1.57-11.96,14.19-14.2,14.19-14.2c2.23,3.58,19.65,4.68,33.2,4.15c13.55-0.53,25.05,15.74,25.05,15.74
					C907.09,61.89,900.9,87.09,900.9,87.09z"/>
			</g>
			<g>
				<path class="st6" d="M867.86,125.97c1.57,0.09,2.65,1.85,2.07,3.45c-1.23,3.45-4.3,8.32-11.77,7.92l-0.19-0.01
					c-7.47-0.4-10.22-5.59-11.23-9.17c-0.47-1.66,0.71-3.3,2.28-3.21L867.86,125.97z"/>
				<path class="st3" d="M859.03,138.12c-0.29,0-0.59-0.01-0.9-0.02l-0.19-0.01c-8.1-0.44-10.94-6.27-11.91-9.71
					c-0.3-1.06-0.08-2.2,0.59-3.04c0.61-0.76,1.48-1.18,2.45-1.12l18.82,1.02c0.95,0.05,1.81,0.56,2.36,1.39
					c0.6,0.9,0.74,2.04,0.38,3.06C869.5,132.88,866.49,138.12,859.03,138.12z M848.92,125.7c-0.58,0-0.95,0.35-1.12,0.56
					c-0.37,0.46-0.49,1.1-0.32,1.7c1.05,3.73,3.74,8.25,10.55,8.62l0.19,0.01c6.81,0.36,9.74-3.83,11.02-7.42
					c0.2-0.57,0.12-1.22-0.21-1.73c-0.29-0.44-0.73-0.7-1.2-0.72c0,0,0,0,0,0L849,125.7C848.97,125.7,848.95,125.7,848.92,125.7z"/>
			</g>
			<g>
				<path class="st1" d="M845.89,107.74c-0.08,2.54-2.82,4.46-6.13,4.28c-3.31-0.18-5.92-2.38-5.84-4.93
					c0.08-2.54,2.82-4.46,6.13-4.28C843.35,103,845.97,105.2,845.89,107.74z"/>
			</g>
			<g>
				<path class="st1" d="M884.91,109.86c-0.08,2.54-2.82,4.46-6.13,4.28c-3.31-0.18-5.92-2.38-5.84-4.93
					c0.08-2.54,2.82-4.46,6.13-4.28S884.99,107.31,884.91,109.86z"/>
			</g>
			<g>
				<path class="st3" d="M845.77,91.54c-0.06,1.79-1.42,3.18-3.06,3.09c-1.63-0.09-2.91-1.62-2.86-3.41
					c0.06-1.79,1.42-3.18,3.06-3.09C844.54,88.22,845.82,89.75,845.77,91.54z"/>
			</g>
			<g>
				<path class="st3" d="M873.72,93.08c-0.06,1.79,1.22,3.32,2.86,3.41s3-1.29,3.06-3.09c0.06-1.79-1.22-3.32-2.86-3.41
					C875.14,89.9,873.77,91.29,873.72,93.08z"/>
			</g>
			<g>
				<path class="st3" d="M821.4,102.73c-0.39,0-0.72-0.3-0.75-0.7c-0.37-5.22-1.23-10.44-2.55-15.51c-0.1-0.4,0.14-0.81,0.54-0.91
					c0.4-0.1,0.81,0.14,0.91,0.54c1.34,5.16,2.21,10.47,2.59,15.78c0.03,0.41-0.28,0.77-0.69,0.8
					C821.44,102.73,821.42,102.73,821.4,102.73z"/>
			</g>
			<g>
				<path class="st3" d="M896.43,105.1c-0.02,0-0.05,0-0.07,0c-0.41-0.04-0.71-0.4-0.68-0.82c0.49-5.2,1.34-10.41,2.51-15.49
					c0.09-0.4,0.5-0.66,0.9-0.56c0.4,0.09,0.65,0.5,0.56,0.9c-1.16,5.01-2,10.15-2.48,15.29C897.14,104.8,896.81,105.1,896.43,105.1
					z"/>
			</g>
			<g>
				<path class="st3" d="M856.66,121.45c-0.38,0-0.7-0.28-0.74-0.67c-0.05-0.41,0.25-0.78,0.66-0.83c3.4-0.38,6.61-2.6,8.38-5.81
					c0.27-0.49,0.62-1.22,0.49-1.85c-0.06-0.32-0.25-0.64-0.46-0.99c-3.86-6.54-5.57-14.62-4.73-22.22
					c0.05-0.41,0.41-0.71,0.83-0.66c0.41,0.05,0.71,0.42,0.66,0.83c-0.8,7.28,0.84,15.02,4.5,21.23c0.28,0.48,0.56,0.95,0.67,1.51
					c0.23,1.12-0.26,2.18-0.65,2.87c-2,3.63-5.66,6.15-9.53,6.58C856.72,121.44,856.69,121.45,856.66,121.45z"/>
			</g>
			<g>
				<path class="st3" d="M850.42,92.12c-0.18,0-0.35-0.06-0.5-0.19c-7.11-6.27-13.95-1.02-14.24-0.8c-0.32,0.26-0.8,0.2-1.05-0.12
					c-0.26-0.32-0.2-0.8,0.12-1.05c0.08-0.06,8.1-6.27,16.16,0.85c0.31,0.27,0.34,0.75,0.07,1.06
					C850.84,92.03,850.63,92.12,850.42,92.12z"/>
			</g>
			<g>
				<path class="st3" d="M834.46,85.97c-0.2,0-0.41-0.08-0.56-0.25c-0.28-0.31-0.25-0.78,0.05-1.06c3.59-3.25,8.65-4.49,13.22-3.24
					c0.4,0.11,0.63,0.52,0.52,0.92c-0.11,0.4-0.52,0.63-0.92,0.52c-4.08-1.12-8.6-0.01-11.81,2.9
					C834.82,85.9,834.64,85.97,834.46,85.97z"/>
			</g>
			<g>
				<path class="st3" d="M884.28,93.98c-0.19,0-0.37-0.07-0.52-0.2c-0.27-0.26-6.77-6.24-14.24-0.76c-0.34,0.25-0.8,0.17-1.05-0.16
					c-0.25-0.33-0.17-0.8,0.16-1.05c8.49-6.23,16.08,0.81,16.16,0.88c0.3,0.28,0.31,0.76,0.03,1.06
					C884.68,93.9,884.48,93.98,884.28,93.98z"/>
			</g>
			<g>
				<path class="st3" d="M885.35,88.78c-0.2,0-0.41-0.08-0.56-0.25c-2.99-3.3-7.42-4.97-11.56-4.36c-0.42,0.06-0.79-0.22-0.85-0.63
					c-0.06-0.41,0.22-0.79,0.63-0.85c4.63-0.69,9.57,1.17,12.89,4.84c0.28,0.31,0.25,0.78-0.05,1.06
					C885.71,88.71,885.53,88.78,885.35,88.78z"/>
			</g>
			<g>
				<path class="st7" d="M838.72,64.02"/>
			</g>
			<g>
				<path class="st3" d="M858.21,154.8c-0.32,0-0.65-0.01-0.98-0.02c-12.79-0.65-22.94-14.22-25.75-18.36
					c-0.23-0.33-0.45-0.67-0.67-1c-0.96-1.49-1.79-2.93-2.41-4.18c-0.58-1.15-0.96-2.07-1.13-2.73c-0.31-1.09-0.61-2.19-0.87-3.23
					c-2-7.86-2.95-13.82-2.96-13.9c-2.42-1.68-8.78-6.99-8.91-16.35c-0.07-5.28,0.83-9.97,2.55-13.2c0.21-0.41,0.42-0.75,0.63-1.05
					c0.01-0.02,0.03-0.04,0.04-0.06c0.75-1.13,1.64-1.99,2.55-2.5c0.97-0.55,1.98-0.68,2.91-0.39c1.2,0.34,2.4,1.63,3.54,3.81
					c0.19,0.37,0.05,0.82-0.32,1.01c-0.37,0.19-0.82,0.05-1.01-0.32c-0.92-1.76-1.85-2.85-2.64-3.07c-0.55-0.17-1.13-0.08-1.75,0.26
					c-0.73,0.4-1.44,1.12-2.07,2.07c-0.02,0.03-0.04,0.06-0.06,0.08c-0.16,0.24-0.33,0.51-0.5,0.84c-1.6,3.01-2.44,7.44-2.37,12.48
					c0.12,9.06,6.57,14.02,8.54,15.33c0.19,0.13,0.32,0.34,0.33,0.57c0,0.04,0,0.09,0,0.13c0,0.01,0,0.02,0,0.03
					c0.02,0.14,0.96,6.04,2.95,13.84c0.26,1.03,0.55,2.11,0.87,3.21c0.15,0.57,0.49,1.39,1.02,2.46c0.59,1.2,1.4,2.6,2.33,4.04
					c0.21,0.33,0.43,0.65,0.64,0.97c2.71,4,12.49,17.09,24.58,17.71c9.51,0.5,18.05-6.97,22.26-11.46c0.01-0.01,0.02-0.02,0.03-0.03
					c0.36-0.39,0.69-0.76,1.04-1.15c0.41-0.45,0.79-0.89,1.16-1.33c2.95-3.56,4.85-6.76,5.36-8.23c0.03-0.09,0.08-0.23,0.12-0.36
					l0.07-0.19c2.94-8.67,4.53-16.11,4.55-16.19c0.05-0.21,0.19-0.49,0.38-0.59c2.6-1.42,8.71-5.67,9.32-14.39
					c0.21-2.96,0.09-5.71-0.36-8.18c-0.14-0.82-0.33-1.62-0.56-2.37c-0.15-0.51-0.32-0.99-0.49-1.44c-0.22-0.57-0.47-1.12-0.78-1.69
					c-1.11-1.95-2.51-2.98-3.73-2.75c-0.44,0.09-1.41,0.58-2.78,2.8c-0.18,0.29-0.54,0.42-0.86,0.32c-0.33-0.1-0.54-0.41-0.53-0.75
					c-0.03-0.28,0.1-0.53,0.31-0.68c1.21-1.88,2.38-2.92,3.56-3.16c1.88-0.36,3.87,0.95,5.33,3.49c0.35,0.64,0.64,1.26,0.88,1.89
					c0.19,0.49,0.37,1,0.53,1.55c0.24,0.81,0.44,1.66,0.59,2.53c0.47,2.59,0.6,5.47,0.38,8.55c-0.63,9.13-6.82,13.73-9.78,15.43
					c-0.3,1.35-1.87,8.23-4.54,16.11l-0.08,0.22c-0.04,0.11-0.08,0.21-0.11,0.31c-0.59,1.68-2.55,5-5.63,8.72
					c-0.39,0.46-0.78,0.92-1.19,1.38c-0.35,0.39-0.68,0.76-1.04,1.15c-0.02,0.03-0.05,0.06-0.07,0.08
					c-0.02,0.02-0.04,0.03-0.05,0.05C876.33,147.44,867.9,154.8,858.21,154.8z"/>
			</g>
			<g>
				<path class="st3" d="M857,73.69c-0.36,0-0.67-0.26-0.74-0.62c-0.07-0.41,0.2-0.8,0.61-0.87c10.81-1.89,21.17-7.12,29.18-14.74
					c0.3-0.29,0.77-0.27,1.06,0.03c0.29,0.3,0.27,0.77-0.03,1.06c-8.21,7.82-18.85,13.19-29.95,15.13
					C857.09,73.69,857.04,73.69,857,73.69z"/>
			</g>
			<g>
				<path class="st3" d="M850.87,70.37c-1.78,0-3.57-0.15-5.34-0.45c-0.41-0.07-0.68-0.46-0.61-0.87c0.07-0.41,0.46-0.68,0.87-0.61
					c6.62,1.13,13.51,0.01,19.4-3.15c0.37-0.19,0.82-0.06,1.02,0.31c0.2,0.36,0.06,0.82-0.3,1.02
					C861.29,69.08,856.1,70.37,850.87,70.37z"/>
			</g>
			<g>
				<path class="st3" d="M846.11,66.6c-2.41,0-4.83-0.43-7.11-1.27c-0.39-0.14-0.59-0.58-0.44-0.96c0.14-0.39,0.57-0.59,0.96-0.44
					c3.77,1.4,7.95,1.56,11.75,0.45c0.4-0.12,0.81,0.11,0.93,0.51c0.12,0.4-0.11,0.81-0.51,0.93C849.89,66.33,848,66.6,846.11,66.6z
					"/>
			</g>
			<g>
				<path class="st3" d="M846.03,41.67c-0.07,0-0.13-0.01-0.2-0.03c-1.16-0.32-1.96-1.25-2.53-2.03c-2.31-3.15-3.46-7.18-3.18-11.07
					c0.03-0.41,0.38-0.73,0.8-0.69c0.41,0.03,0.72,0.39,0.69,0.8c-0.26,3.54,0.79,7.21,2.89,10.07c0.43,0.58,1.01,1.28,1.72,1.47
					c0.4,0.11,0.63,0.52,0.52,0.92C846.66,41.45,846.36,41.67,846.03,41.67z"/>
			</g>
			<g>
				<path class="st3" d="M838.96,42.42c-0.27,0-0.52-0.14-0.66-0.39c-1.81-3.31-2.26-7.43-1.19-11.01c0.12-0.4,0.54-0.62,0.93-0.5
					c0.4,0.12,0.62,0.54,0.5,0.93c-0.96,3.21-0.56,6.89,1.07,9.86c0.2,0.36,0.07,0.82-0.3,1.02
					C839.21,42.39,839.08,42.42,838.96,42.42z"/>
			</g>
			<g>
				<path class="st3" d="M833.57,46.35c-0.31,0-0.59-0.19-0.7-0.49c-1.32-3.6-1.29-7.69,0.08-11.22c0.15-0.39,0.59-0.58,0.97-0.43
					c0.39,0.15,0.58,0.59,0.43,0.97c-1.24,3.19-1.27,6.89-0.07,10.16c0.14,0.39-0.06,0.82-0.45,0.96
					C833.74,46.34,833.65,46.35,833.57,46.35z"/>
			</g>
			<g>
				<path class="st3" d="M824.17,111.7c-0.4,0-0.73-0.32-0.75-0.72l-0.56-15.86c-0.01-0.41,0.31-0.76,0.72-0.78
					c0.4-0.04,0.76,0.31,0.78,0.72l0.56,15.86c0.01,0.41-0.31,0.76-0.72,0.78C824.19,111.7,824.18,111.7,824.17,111.7z"/>
			</g>
			<g>
				<path class="st3" d="M892.65,115.15c-0.03,0-0.05,0-0.08,0c-0.41-0.04-0.71-0.41-0.67-0.82l1.46-13.99
					c0.04-0.41,0.42-0.7,0.82-0.67c0.41,0.04,0.71,0.41,0.67,0.82l-1.46,13.99C893.35,114.86,893.03,115.15,892.65,115.15z"/>
			</g>
			<g>
				<path class="st3" d="M892,44.4c-0.34,0-0.65-0.23-0.73-0.58c-0.88-3.71-2.16-7.3-3.82-10.69c-0.18-0.37-0.03-0.82,0.34-1
					c0.37-0.18,0.82-0.03,1,0.34c1.71,3.48,3.03,7.19,3.93,11c0.1,0.4-0.15,0.81-0.56,0.9C892.11,44.39,892.06,44.4,892,44.4z"/>
			</g>
			<g>
				<path class="st3" d="M889.94,41.87c-0.23,0-0.45-0.1-0.6-0.29c-1.38-1.81-2.88-3.53-4.47-5.12c-0.29-0.29-0.29-0.77,0-1.06
					c0.29-0.29,0.77-0.29,1.06,0c1.63,1.64,3.17,3.41,4.59,5.27c0.25,0.33,0.19,0.8-0.14,1.05
					C890.26,41.82,890.1,41.87,889.94,41.87z"/>
			</g>
			<g>
				<path class="st3" d="M901.23,88.88c-0.06,0-0.11-0.01-0.17-0.02c-0.4-0.09-0.65-0.5-0.56-0.9c0.06-0.25,5.73-25.01-0.37-34.39
					c-0.23-0.35-0.13-0.81,0.22-1.04c0.35-0.23,0.81-0.13,1.04,0.22c6.45,9.91,0.82,34.5,0.58,35.55
					C901.87,88.65,901.57,88.88,901.23,88.88z"/>
			</g>
			<g>
				<path class="st3" d="M820.68,79.61c-0.4,0-0.74-0.32-0.75-0.73c-0.72-23.14,7.01-32.56,7.34-32.95
					c0.27-0.32,0.74-0.35,1.06-0.09c0.32,0.27,0.36,0.74,0.09,1.06c-0.08,0.09-7.69,9.43-6.99,31.93c0.01,0.41-0.31,0.76-0.73,0.77
					C820.7,79.61,820.69,79.61,820.68,79.61z"/>
			</g>
		</g>
		<g>
			<path class="st3" d="M788.55,302.28c-0.39,0-0.72-0.3-0.75-0.7c-0.01-0.2-1.38-20.02-2.15-28.41
				c-0.77-8.41-2.33-45.28-2.35-45.65c-0.02-0.41,0.3-0.76,0.72-0.78c0.41-0.03,0.76,0.3,0.78,0.72c0.02,0.37,1.57,37.2,2.34,45.58
				c0.77,8.4,2.14,28.24,2.15,28.44c0.03,0.41-0.28,0.77-0.7,0.8C788.58,302.28,788.57,302.28,788.55,302.28z"/>
		</g>
		<g>
			<path class="st3" d="M814.54,361.88c-0.08,0-0.16-0.01-0.24-0.04c-5.4-1.83-31.47-9.97-31.74-10.05
				c-0.4-0.12-0.62-0.54-0.49-0.94c0.12-0.39,0.54-0.62,0.94-0.49c0.25,0.08,24.49,7.65,31.1,9.84c0.74-1.85,2.82-7.23,3.2-10.29
				c0.05-0.41,0.44-0.7,0.84-0.65c0.41,0.05,0.7,0.42,0.65,0.84c-0.48,3.93-3.44,11.03-3.57,11.33
				C815.11,361.7,814.83,361.88,814.54,361.88z"/>
		</g>
		<g>
			<path class="st3" d="M827.24,327.48c-0.15,0-0.29-0.04-0.42-0.13c-0.27-0.19-27.4-18.58-32.98-21.86
				c-11.12-6.52-20.83-8.4-28.88-5.61c-0.39,0.13-0.82-0.07-0.95-0.46c-0.14-0.39,0.07-0.82,0.46-0.95
				c8.48-2.95,18.62-1.02,30.13,5.73c5.62,3.3,31.95,21.15,33.06,21.91c0.34,0.23,0.43,0.7,0.2,1.04
				C827.71,327.37,827.48,327.48,827.24,327.48z"/>
		</g>
		<g>
			<path class="st3" d="M782.78,296.22c-0.2,0-0.4-0.08-0.54-0.23c-5.53-5.81-20.06-8.54-20.21-8.57c-0.41-0.08-0.68-0.47-0.6-0.87
				c0.07-0.41,0.47-0.68,0.87-0.6c0.62,0.11,15.16,2.85,21.02,9.01c0.29,0.3,0.27,0.77-0.03,1.06
				C783.16,296.15,782.97,296.22,782.78,296.22z"/>
		</g>
		<g>
			<path class="st3" d="M782.78,253.85c-0.34,0-0.65-0.24-0.73-0.59c-0.05-0.2-4.63-20.37-9.41-29.35
				c-0.19-0.37-0.06-0.82,0.31-1.01c0.36-0.19,0.82-0.06,1.01,0.31c4.88,9.17,9.36,28.89,9.55,29.73c0.09,0.4-0.16,0.81-0.57,0.9
				C782.89,253.85,782.84,253.85,782.78,253.85z"/>
		</g>
		<g>
			<path class="st3" d="M947.81,347.72c-0.02,0-0.04,0-0.06,0c-12.32-1-18.36-11.69-19.02-12.92c-0.87-0.92-8.2-8.83-8.64-14.3
				c-0.36-4.48,7.26-22.52,13.72-36.86l0.26-0.58c1.37-3.06,7.11-4.79,7.36-4.86c0.4-0.11,0.81,0.11,0.93,0.51
				c0.12,0.4-0.11,0.81-0.51,0.93c-1.48,0.44-5.51,2.02-6.41,4.04l-0.26,0.59c-8.9,19.76-13.85,32.92-13.6,36.13
				c0.41,5.17,8.22,13.38,8.3,13.46c0.05,0.05,0.09,0.11,0.12,0.18c0.06,0.11,5.91,11.23,17.86,12.21c0.41,0.03,0.72,0.4,0.69,0.81
				C948.52,347.42,948.2,347.72,947.81,347.72z"/>
		</g>
		<g>
			<path class="st3" d="M952.45,314.3c-9,0-16.25-11.16-16.56-11.63c-0.22-0.35-0.12-0.81,0.23-1.04c0.35-0.23,0.81-0.12,1.04,0.23
				c0.07,0.11,7.11,10.94,15.29,10.94c8.03,0,10.58-7.52,10.69-7.83c0.13-0.39,0.55-0.61,0.94-0.48c0.39,0.13,0.61,0.55,0.48,0.94
				C964.53,305.51,961.58,314.3,952.45,314.3z"/>
		</g>
		<g>
			<path class="st3" d="M941.7,260.26c-0.11,0-0.21-0.02-0.31-0.07c-0.79-0.37-2.08-1.07-3.56-1.88c-2.9-1.59-6.87-3.76-8.41-4.02
				c-2.37-0.4-7.84-0.3-7.9-0.3c0,0-0.01,0-0.01,0c-0.41,0-0.74-0.33-0.75-0.74c-0.01-0.41,0.32-0.76,0.74-0.76
				c0.23,0,5.67-0.1,8.17,0.33c1.8,0.3,5.56,2.36,8.88,4.18c1.46,0.8,2.72,1.49,3.47,1.83c0.38,0.17,0.54,0.62,0.37,1
				C942.26,260.1,941.98,260.26,941.7,260.26z"/>
		</g>
		<g>
			<path class="st3" d="M944.24,253.77c-0.12,0-0.24-0.03-0.35-0.09c-0.78-0.41-1.77-1.02-2.93-1.72c-3.5-2.15-8.29-5.08-12-5.47
				c-5.02-0.53-12.44-0.34-12.51-0.34c-0.01,0-0.01,0-0.02,0c-0.41,0-0.74-0.32-0.75-0.73c-0.01-0.41,0.32-0.76,0.73-0.77
				c0.08,0,7.59-0.19,12.71,0.35c4.04,0.42,9,3.46,12.62,5.69c1.13,0.69,2.11,1.29,2.84,1.68c0.37,0.19,0.51,0.65,0.32,1.01
				C944.77,253.62,944.51,253.77,944.24,253.77z"/>
		</g>
		<g>
			<path class="st3" d="M949.32,247.76c-0.15,0-0.3-0.04-0.43-0.14c-0.5-0.35-1.12-0.81-1.82-1.34c-3.08-2.32-7.73-5.82-11.2-6.1
				c-4.46-0.36-15.67-1.65-15.78-1.67c-0.41-0.05-0.71-0.42-0.66-0.83c0.05-0.41,0.41-0.7,0.83-0.66c0.11,0.01,11.3,1.3,15.73,1.66
				c3.9,0.32,8.76,3.98,11.98,6.4c0.68,0.51,1.28,0.96,1.77,1.31c0.34,0.24,0.42,0.7,0.18,1.04
				C949.79,247.65,949.56,247.76,949.32,247.76z"/>
		</g>
		<g>
			<path class="st3" d="M949.32,239.6c-0.14,0-0.28-0.04-0.41-0.12c-2.01-1.32-12.3-7.29-12.4-7.35c-0.36-0.21-0.48-0.67-0.27-1.03
				c0.21-0.36,0.67-0.48,1.03-0.27c0.42,0.25,10.43,6.05,12.47,7.39c0.35,0.23,0.44,0.69,0.22,1.04
				C949.81,239.48,949.57,239.6,949.32,239.6z"/>
		</g>
		<g>
			<path class="st3" d="M887.49,258.67c-0.27,0-0.53-0.14-0.66-0.39c-9.42-17.43-6.15-55.83-6.01-57.45
				c0.04-0.41,0.4-0.72,0.81-0.68c0.41,0.04,0.72,0.4,0.68,0.81c-0.04,0.39-3.37,39.57,5.84,56.61c0.2,0.36,0.06,0.82-0.3,1.02
				C887.73,258.64,887.61,258.67,887.49,258.67z"/>
		</g>
		<g>
			<path class="st3" d="M888.32,313.45c-0.09,0-0.18-0.01-0.26-0.05c-3.38-1.26-6.74-2.69-10-4.25c-0.37-0.18-0.53-0.63-0.35-1
				c0.18-0.37,0.63-0.53,1-0.35c3.22,1.54,6.54,2.96,9.87,4.2c0.39,0.14,0.59,0.58,0.44,0.96
				C888.91,313.26,888.63,313.45,888.32,313.45z"/>
		</g>
		<g>
			<path class="st3" d="M908.09,316.78C908.09,316.78,908.09,316.78,908.09,316.78c-5.14-0.04-10.26-0.72-15.22-2.04
				c-0.4-0.11-0.64-0.52-0.53-0.92c0.11-0.4,0.52-0.64,0.92-0.53c4.84,1.29,9.83,1.96,14.84,1.99c0.41,0,0.75,0.34,0.75,0.75
				C908.84,316.45,908.5,316.78,908.09,316.78z"/>
		</g>
		<g>
			<path class="st3" d="M907.81,352.11c-0.16,0-0.31,0-0.47-0.01c-5.57-0.15-11.32-1.33-11.56-1.38c-0.41-0.08-0.67-0.48-0.58-0.89
				c0.08-0.41,0.48-0.67,0.89-0.58c0.06,0.01,5.86,1.21,11.3,1.35c6.39,0.17,11.56-3.43,12.99-4.53c0.33-0.25,0.8-0.19,1.05,0.13
				c0.25,0.33,0.19,0.8-0.13,1.05C919.79,348.42,914.48,352.11,907.81,352.11z"/>
		</g>
		<g>
			<path class="st3" d="M903.99,356.65c-0.03,0-0.05,0-0.08,0l-10.21-1.12c-0.41-0.04-0.71-0.42-0.66-0.83
				c0.04-0.41,0.41-0.73,0.83-0.66l10.21,1.12c0.41,0.04,0.71,0.42,0.66,0.83C904.69,356.36,904.37,356.65,903.99,356.65z"/>
		</g>
		<g>
			<path class="st3" d="M828.16,387.26c-0.08,0-0.17-0.01-0.25-0.04c-25.74-9-33.46-23.19-33.77-23.79
				c-0.19-0.37-0.05-0.82,0.31-1.01c0.36-0.19,0.82-0.05,1.01,0.31c0.08,0.14,7.81,14.29,32.94,23.07c0.39,0.14,0.6,0.56,0.46,0.96
				C828.76,387.07,828.47,387.26,828.16,387.26z"/>
		</g>
		<g>
			<path class="st3" d="M903.39,382.94c-0.37,0-0.69-0.27-0.74-0.65c-0.05-0.41,0.23-0.79,0.64-0.84c0.09-0.01,9-1.32,16.3-10.95
				c0.25-0.33,0.72-0.4,1.05-0.14c0.33,0.25,0.39,0.72,0.14,1.05c-7.7,10.15-16.91,11.48-17.29,11.53
				C903.45,382.94,903.42,382.94,903.39,382.94z"/>
		</g>
		<g>
			<path class="st3" d="M776.59,198.53c-0.28,0-0.55-0.16-0.68-0.43c-3.17-6.74-7.24-13.02-12.09-18.67
				c-0.27-0.31-0.23-0.79,0.08-1.06c0.31-0.27,0.79-0.23,1.06,0.08c4.94,5.75,9.09,12.14,12.31,19.01c0.18,0.38,0.02,0.82-0.36,1
				C776.81,198.51,776.7,198.53,776.59,198.53z"/>
		</g>
		<g>
			<path class="st3" d="M930.66,198.13c-0.14,0-0.29-0.04-0.42-0.13c-0.34-0.23-0.44-0.7-0.21-1.04c2.18-3.27,5.37-5.93,8.98-7.49
				c0.38-0.17,0.82,0.01,0.99,0.39c0.16,0.38-0.01,0.82-0.39,0.99c-3.35,1.44-6.3,3.91-8.32,6.94
				C931.14,198.01,930.91,198.13,930.66,198.13z"/>
		</g>
	</g>
	<g>
		<g>
			<g>
				<path class="st8" d="M995.68,249.37c2.52,5.83,6.76,10.46,12.12,13.61c0,0,0,0,0.01,0.01c0.54,0.38,17.39,11.33,48.53,3.92
					c0.58-0.14,0.66-0.94,0.12-1.18c-1.68-0.75-4.33-2.17-6.95-4.56c-0.32-0.29-0.26-0.8,0.12-1.01
					c17.41-9.91,25.28-26.97,18.73-42.15c-7.15-16.58-27.85-22.39-48.86-13.32C998.5,213.75,988.52,232.78,995.68,249.37z"/>
			</g>
		</g>
		<g>
			<g>
				<path class="st2" d="M1030.99,255.22c-1.08,0.09-2.19-0.12-3.22-0.66l-20.64-10.85c-2.9-1.52-4.01-5.1-2.49-8
					c1.52-2.9,5.1-4.01,8-2.49l15.75,8.27l17.29-28.06c1.72-2.79,5.37-3.65,8.15-1.94c2.79,1.72,3.65,5.37,1.94,8.15l-20.19,32.77
					C1034.55,254.09,1032.82,255.08,1030.99,255.22z"/>
			</g>
		</g>
		<g>
			<g>
				<path class="st3" d="M1035.49,270.24c-18.39,0-27.98-6.55-28.1-6.64c-0.01,0-0.01-0.01-0.02-0.01
					c-5.61-3.32-9.87-8.13-12.37-13.92l0,0c-3.56-8.25-3.07-17.42,1.38-25.81c4.44-8.37,12.55-15.42,22.84-19.86
					c10.29-4.44,20.99-5.5,30.12-2.99c9.16,2.52,16.16,8.45,19.72,16.71c6.67,15.45-0.93,32.72-18.91,43.01
					c2.48,2.23,4.96,3.58,6.62,4.32c0.54,0.24,0.86,0.78,0.81,1.38c-0.06,0.6-0.47,1.08-1.05,1.21
					C1048.57,269.53,1041.55,270.24,1035.49,270.24z M1008.26,262.38c0.57,0.38,17.26,10.98,47.57,3.88
					c-1.78-0.83-4.31-2.25-6.81-4.54c-0.33-0.3-0.49-0.74-0.44-1.18c0.05-0.44,0.31-0.82,0.69-1.04
					c17.38-9.89,24.78-26.44,18.41-41.2c-3.38-7.83-10.03-13.46-18.74-15.85c-8.81-2.42-19.15-1.38-29.13,2.92
					c-9.98,4.31-17.83,11.12-22.11,19.18c-4.23,7.98-4.7,16.68-1.33,24.51l0,0c2.39,5.54,6.47,10.12,11.81,13.26
					C1008.21,262.34,1008.23,262.36,1008.26,262.38z M1050.01,260.81C1050,260.81,1050.01,260.81,1050.01,260.81
					C1050.01,260.81,1050.01,260.81,1050.01,260.81z"/>
			</g>
		</g>
	</g>
	<g>
		<g>
			<g>
				<path class="st8" d="M735.24,106.98c-1.51,6.86-5.16,12.77-10.32,17.32c0,0,0,0-0.01,0.01c-0.51,0.53-16.52,15.94-51.9,14.4
					c-0.66-0.03-0.91-0.88-0.37-1.26c1.67-1.17,4.25-3.27,6.59-6.4c0.28-0.38,0.11-0.92-0.34-1.07
					c-20.98-7.12-33.1-24.01-29.16-41.87c4.31-19.51,25.57-30.14,50.29-24.68C724.74,68.88,739.55,87.47,735.24,106.98z"/>
			</g>
		</g>
		<g>
			<g>
				<path class="st2" d="M681.7,111.64c-0.88-0.62-1.59-1.49-2.03-2.56l-8.84-21.42c-1.24-3.01,0.19-6.45,3.2-7.69
					c3.01-1.24,6.45,0.19,7.69,3.2l6.74,16.34l31.06-10.39c3.09-1.03,6.42,0.63,7.45,3.72c1.03,3.08-0.63,6.42-3.72,7.45
					l-36.27,12.14C685.14,113.04,683.19,112.69,681.7,111.64z"/>
			</g>
		</g>
		<g>
			<g>
				<path class="st3" d="M677.96,139.57c-1.62,0-3.29-0.04-5-0.11c-0.63-0.03-1.15-0.44-1.33-1.04c-0.18-0.6,0.04-1.22,0.56-1.58
					c1.68-1.17,4.15-3.2,6.42-6.24c-21.73-7.3-33.64-24.47-29.63-42.66c4.39-19.87,26.39-30.73,51.19-25.25
					c12.09,2.67,22.36,8.62,28.92,16.77c6.57,8.16,9.01,17.99,6.88,27.68l0,0c-1.51,6.83-5.14,12.94-10.52,17.68c0,0,0,0-0.01,0.01
					C725.29,124.99,710.79,139.57,677.96,139.57z M673.2,137.97c35.11,1.48,50.6-13.61,51.15-14.17c0.04-0.05,0.09-0.09,0.13-0.12
					c5.09-4.49,8.58-10.33,10.02-16.86l0,0c2.04-9.23-0.3-18.62-6.58-26.42c-6.35-7.88-16.32-13.65-28.08-16.25
					c-24.35-5.38-45.13,4.77-49.4,24.11c-3.84,17.4,7.68,33.88,28.67,41c0.43,0.14,0.78,0.49,0.92,0.93
					c0.14,0.44,0.06,0.93-0.21,1.3C677.5,134.61,674.96,136.72,673.2,137.97z M724.9,124.31L724.9,124.31L724.9,124.31z"/>
			</g>
		</g>
	</g>
	<g>
		<defs>
			<rect id="SVGID_1_" x="601.3" y="-26.81" width="500" height="500"/>
		</defs>
		<clipPath id="SVGID_2_">
			<use xlink:href="#SVGID_1_"  style="overflow:visible;"/>
		</clipPath>
		<g class="st9">
			<g>
				<path class="st0" d="M1111.01,384.91c0,0-38.78-18.41-45.36-21.26c-6.59-2.86-16.98-1.63-23.57-1.75s-15.12,2.34-21.03,2.94
					c-5.91,0.59-10.59-1.71-12.46-3.57c-1.87-1.87-3.01-5.87-3.01-5.87s-3.29-2.5-4.37-4.92c-1.07-2.41-0.87-5.95-0.87-5.95
					s-1.94-3.89-2.7-5.87c-0.75-1.99,0.96-6.03,0.96-6.03l-1.28-2.06c-1.66-3.81-0.39-8.26,3.81-11.03
					c4.2-2.78,16.15-3.37,17.38-5.63c1.22-2.26-1.47-5.72-6.91-16.9c-3.61-7.45-0.8-12.87,1.7-14.58c1.25-0.86,2.42-0.79,2.66,0.45
					c0.19,0.98,1.09,2.82,2.37,5.04c3.56,6.2,10.04,15.36,11.99,16.94c2.66,2.14,10.28,11.51,12.78,15.55
					c2.5,4.05,12.38,10.36,22.38,13.23c10,2.87,40.95,4.02,40.95,4.02L1111.01,384.91z"/>
			</g>
			<g>
				<path class="st1" d="M1018.34,287.9c-0.09,0.39-0.29,0.73-0.73,0.86c-0.68,0.21-1.34-0.26-1.84-0.66c-0.56-0.45-1.01-1-1.38-1.6
					c-0.75-1.23-1.06-2.66-1.09-4.09c1.25-0.86,2.42-0.79,2.66,0.45C1016.16,283.83,1017.06,285.67,1018.34,287.9z"/>
			</g>
			<g>
				<path class="st3" d="M1111.01,385.66c-0.11,0-0.22-0.02-0.32-0.07c-0.39-0.18-38.84-18.44-45.34-21.25
					c-4.87-2.11-12.14-1.91-17.99-1.76c-1.9,0.05-3.71,0.1-5.29,0.07c-4.01-0.08-8.69,0.81-13.23,1.67
					c-2.79,0.53-5.43,1.03-7.72,1.26c-5.79,0.58-10.83-1.56-13.06-3.79c-1.73-1.73-2.85-5.04-3.13-5.96c-0.75-0.6-3.4-2.82-4.4-5.06
					c-0.99-2.24-0.97-5.28-0.95-6.09c-0.39-0.79-1.96-3.99-2.64-5.76c-0.72-1.9,0.39-5.1,0.82-6.22l-1.08-1.74
					c-0.02-0.03-0.04-0.06-0.05-0.09c-1.88-4.3-0.23-9.11,4.09-11.96c2.19-1.45,6.12-2.28,9.91-3.09c3.02-0.64,6.77-1.44,7.23-2.28
					c0.7-1.29-0.49-3.57-3.08-8.58c-1.05-2.03-2.35-4.55-3.85-7.63c-3.77-7.77-0.8-13.64,1.96-15.52c0.98-0.67,1.93-0.88,2.69-0.57
					c0.59,0.24,0.99,0.77,1.13,1.49c0.09,0.48,0.51,1.74,2.29,4.81c3.53,6.15,9.93,15.22,11.81,16.73
					c2.82,2.26,10.45,11.71,12.94,15.74c2.34,3.8,11.93,10.03,21.95,12.9c9.8,2.81,40.46,3.99,40.77,4c0.38,0.01,0.68,0.3,0.72,0.68
					l4.57,47.26c0.03,0.27-0.09,0.53-0.32,0.69C1111.31,385.62,1111.16,385.66,1111.01,385.66z M1052.46,360.99
					c4.75,0,9.72,0.34,13.49,1.97c5.87,2.54,37.6,17.58,44.19,20.71l-4.38-45.29c-4.64-0.19-31.19-1.36-40.48-4.03
					c-10.5-3.01-20.27-9.44-22.81-13.56c-2.58-4.18-10.13-13.37-12.61-15.36c-2.18-1.76-8.81-11.31-12.17-17.15
					c-1.44-2.49-2.26-4.27-2.46-5.28c-0.04-0.21-0.12-0.34-0.22-0.38c-0.21-0.08-0.69,0.01-1.28,0.41
					c-2.35,1.6-4.81,6.71-1.46,13.63c1.49,3.07,2.79,5.58,3.83,7.6c2.93,5.66,4.14,8,3.06,9.99c-0.75,1.38-3.62,2.05-8.23,3.03
					c-3.49,0.74-7.44,1.58-9.4,2.87c-3.73,2.46-5.12,6.4-3.56,10.06l1.25,2.02c0.13,0.21,0.15,0.46,0.05,0.69
					c-0.44,1.05-1.48,4.08-0.95,5.47c0.73,1.92,2.65,5.76,2.67,5.8c0.06,0.12,0.09,0.25,0.08,0.38c0,0.03-0.17,3.39,0.81,5.61
					c0.99,2.21,4.1,4.61,4.14,4.63c0.13,0.1,0.22,0.23,0.27,0.39c0.01,0.04,1.12,3.85,2.82,5.55c1.43,1.43,5.76,3.96,11.85,3.35
					c2.22-0.23,4.83-0.72,7.59-1.24c4.61-0.87,9.38-1.76,13.53-1.7c1.55,0.03,3.33-0.02,5.22-0.07
					C1048.95,361.04,1050.69,360.99,1052.46,360.99z"/>
			</g>
		</g>
		<g class="st9">
			<g>
				<g>
					<path class="st0" d="M713.48,335.73c0,0,1.94,3.61,0.27,6.8c-1.67,3.2-4.4,5.2-4.4,5.2s1.8,2.53,0,4.94
						c-1.79,2.4-5.47,3.66-10.93,2.67c-5.46-1.01-21.85-3.4-31.05-0.67c-9.2,2.73-69.97,46.24-69.97,46.24l-8-47.31
						c0,0,42.77-13.86,53.04-20.39c10.26-6.53,19.86-9.59,22.39-16.52c2.53-6.93,3.13-11.66,5.86-14.27c2.73-2.6,6.14-3.99,8-8.66
						c1.77-4.41,3.12-6.87,3.76-12.25c0.04-0.3,0.08-0.61,0.11-0.94c0.6-6.06-0.39-7,2.41-8c0.29-0.11,0.59-0.13,0.91-0.1
						c2.75,0.32,6.39,5.61,6.68,10.76c0.34,5.73-3.47,18.79-1.74,21.59c1.74,2.8,17.8,1,21.32,3.86c3.53,2.87,5.2,4.66,5.06,7.46
						c-0.13,2.8-3.73,6.93-3.73,6.93s2.35,1.47,3.74,3.86C718.61,329.33,716.48,333.87,713.48,335.73z"/>
				</g>
				<g>
					<path class="st1" d="M685.94,274.97c-0.08,1.41-0.22,2.98-0.75,4.31c-0.31,0.77-0.75,1.49-1.51,1.88
						c-0.4,0.21-0.82,0.33-1.24,0.35c0.04-0.3,0.08-0.61,0.11-0.94c0.6-6.06-0.39-7,2.41-8c0.29-0.11,0.59-0.13,0.91-0.1
						C686.04,273.31,685.97,274.26,685.94,274.97z"/>
				</g>
				<g>
					<path class="st1" d="M687.66,338.43c-0.6-0.34-1.13-0.87-1.45-1.5c-0.66-1.29-0.49-3.04,0.76-3.93
						c1.29-0.91,3.11-0.35,3.84,0.99c0.57,1.02,0.44,2.13-0.03,3.12c-0.15,0.6-0.43,1.18-0.95,1.49
						C689.16,339,688.31,338.79,687.66,338.43z"/>
				</g>
				<g>
					<path class="st1" d="M692.26,343.61c0.35,1.31-0.71,2.54-2.03,2.56c-1.3,0.02-2.51-1.06-2.74-2.33
						c-0.12-0.67,0.01-1.32,0.43-1.86c0.05-0.07,0.12-0.12,0.18-0.18c0.04-0.05,0.09-0.1,0.13-0.13v-0.01
						c0.34-0.33,0.8-0.51,1.28-0.51c0.65,0.01,1.24,0.32,1.7,0.77C691.67,342.37,692.09,342.99,692.26,343.61z"/>
				</g>
				<g>
					<path class="st1" d="M693.59,327.65c0.34,0.59,0.35,1.3,0.29,1.96c-0.07,0.7-0.18,1.42-0.64,1.98
						c-0.44,0.55-1.2,0.75-1.87,0.67c-0.51-0.06-0.96-0.25-1.39-0.49c-0.94-0.2-1.75-0.81-2.04-1.83c-0.18-0.63-0.09-1.33,0.31-1.86
						c0.41-0.55,1.02-0.85,1.65-1.05C691.1,326.63,692.84,326.32,693.59,327.65z"/>
				</g>
				<g>
					<path class="st1" d="M695.12,323.99c-0.53,0.82-1.34,1.18-2.22,1.32c-0.14,0.07-0.3,0.13-0.45,0.19
						c-0.78,0.29-1.7,0.47-2.53,0.31c-0.79-0.15-1.33-0.75-1.43-1.54c-0.09-0.77,0.25-1.51,0.76-2.07c0.54-0.59,1.28-0.96,2.03-1.18
						c0.73-0.2,1.54-0.34,2.29-0.25c0.74,0.09,1.42,0.45,1.73,1.15C695.58,322.58,695.5,323.39,695.12,323.99z"/>
				</g>
				<g>
					<path class="st3" d="M597.4,401.65c-0.1,0-0.19-0.02-0.29-0.06c-0.24-0.1-0.41-0.31-0.45-0.57l-8-47.31
						c-0.06-0.37,0.15-0.72,0.51-0.84c0.43-0.14,42.8-13.91,52.87-20.31c2.95-1.88,5.79-3.44,8.53-4.95
						c6.62-3.64,11.85-6.51,13.56-11.2c0.78-2.13,1.38-4.07,1.91-5.78c1.23-3.97,2.11-6.84,4.14-8.77c0.79-0.75,1.63-1.41,2.45-2.04
						c2.11-1.63,4.1-3.18,5.37-6.35c0.3-0.74,0.58-1.42,0.85-2.08c1.35-3.25,2.33-5.6,2.86-9.99c0.04-0.29,0.08-0.6,0.1-0.92
						c0.16-1.63,0.21-2.87,0.24-3.87c0.1-2.74,0.14-3.87,2.66-4.76c0.39-0.14,0.81-0.19,1.25-0.13c3.33,0.38,7.04,6.17,7.34,11.46
						c0.15,2.56-0.49,6.49-1.11,10.29c-0.74,4.5-1.57,9.6-0.73,10.95c0.66,1.07,5.53,1.34,9.44,1.56c5.03,0.28,9.78,0.54,11.72,2.12
						c3.23,2.62,5.5,4.74,5.34,8.08c-0.11,2.36-2.34,5.43-3.39,6.75c0.85,0.65,2.3,1.91,3.3,3.63c1.59,2.74-0.51,7.26-3.44,9.43
						c0.51,1.25,1.41,4.16-0.01,6.88c-1.3,2.49-3.18,4.26-4.09,5.03c0.61,1.23,1.04,3.32-0.37,5.21c-2.16,2.88-6.3,3.93-11.67,2.95
						c-2.09-0.39-20.66-3.67-30.7-0.69c-8.97,2.67-69.14,45.7-69.74,46.14C597.71,401.6,597.56,401.65,597.4,401.65z M590.25,354.11
						l7.69,45.49c8.13-5.8,60.54-43.08,69.21-45.66c10.38-3.08,29.28,0.26,31.4,0.65c4.71,0.86,8.42-0.01,10.19-2.38
						c1.46-1.95,0-4.03-0.01-4.05c-0.24-0.33-0.16-0.8,0.17-1.04c0.03-0.02,2.62-1.94,4.18-4.94c1.46-2.79-0.25-6.07-0.26-6.1
						c-0.19-0.35-0.07-0.78,0.27-0.99c2.75-1.7,4.61-5.85,3.49-7.78c-1.27-2.2-3.47-3.59-3.49-3.6c-0.19-0.12-0.31-0.31-0.34-0.53
						c-0.03-0.22,0.03-0.44,0.18-0.6c0.95-1.1,3.45-4.4,3.55-6.48c0.12-2.45-1.32-4.02-4.79-6.84c-1.57-1.28-6.51-1.55-10.86-1.79
						c-5.92-0.33-9.6-0.61-10.63-2.26c-1.13-1.83-0.36-6.54,0.53-11.99c0.61-3.72,1.24-7.56,1.1-9.96
						c-0.28-4.77-3.68-9.79-6.02-10.06c-0.21-0.03-0.4-0.01-0.57,0.05c-1.57,0.56-1.57,0.77-1.67,3.41
						c-0.04,1.02-0.08,2.29-0.25,3.96c-0.03,0.33-0.07,0.66-0.11,0.96c-0.55,4.59-1.61,7.14-2.96,10.38
						c-0.27,0.65-0.55,1.32-0.85,2.06c-1.42,3.56-3.67,5.3-5.84,6.98c-0.82,0.64-1.6,1.24-2.34,1.94c-1.74,1.66-2.58,4.38-3.74,8.13
						c-0.53,1.73-1.14,3.68-1.93,5.85c-1.9,5.21-7.35,8.21-14.24,12c-2.72,1.5-5.53,3.04-8.45,4.9
						C633.17,339.99,595.74,352.31,590.25,354.11z"/>
				</g>
				<g>
					<path class="st3" d="M667.19,341.86c-0.37,0-0.69-0.28-0.74-0.65c-0.69-5.26-2.08-10.4-4.14-15.29
						c-0.16-0.38,0.02-0.82,0.4-0.98c0.38-0.16,0.82,0.02,0.98,0.4c2.11,5.01,3.54,10.28,4.24,15.67c0.05,0.41-0.24,0.79-0.65,0.84
						C667.26,341.86,667.23,341.86,667.19,341.86z"/>
				</g>
				<g>
					<path class="st3" d="M700.59,326.65c-1.17,0-2.55-0.04-3.98-0.09c-2.49-0.08-5.07-0.16-6.63,0c-1.34,0.14-2.39-0.76-2.66-2.28
						c-0.4-2.31,0.98-5.24,3.67-5.93c3.82-0.98,7.15-1.78,7.15-1.78c4.28-1.08,9.06-3.03,9.3-4.3c0.08-0.41,0.48-0.68,0.88-0.59
						c0.41,0.08,0.67,0.47,0.59,0.88c-0.54,2.78-8.11,4.89-10.42,5.47c-0.01,0-3.34,0.8-7.14,1.78c-2.04,0.52-2.81,2.83-2.57,4.22
						c0.13,0.75,0.49,1.09,1.03,1.05c1.66-0.16,4.28-0.08,6.82,0c1.98,0.06,3.86,0.12,5.19,0.06c2.97-0.12,11.32-2.74,11.4-2.77
						c0.4-0.13,0.82,0.09,0.94,0.49c0.12,0.4-0.09,0.82-0.49,0.94c-0.35,0.11-8.62,2.71-11.79,2.84
						C701.51,326.64,701.07,326.65,700.59,326.65z"/>
				</g>
				<g>
					<path class="st3" d="M704.48,315.99c-0.36,0-0.68-0.26-0.74-0.62l-0.73-4.34c-0.07-0.41,0.21-0.8,0.62-0.86
						c0.4-0.08,0.79,0.21,0.86,0.61l0.73,4.34c0.07,0.41-0.21,0.8-0.62,0.86C704.56,315.98,704.52,315.99,704.48,315.99z"/>
				</g>
				<g>
					<path class="st3" d="M699.38,317.76c-0.3,0-0.59-0.19-0.7-0.49l-1.31-3.54c-0.14-0.39,0.05-0.82,0.44-0.96
						c0.39-0.14,0.82,0.05,0.96,0.44l1.31,3.54c0.14,0.39-0.05,0.82-0.44,0.96C699.55,317.75,699.46,317.76,699.38,317.76z"/>
				</g>
				<g>
					<path class="st3" d="M707.5,336.82c-1.77,0-3.8-0.09-5.89-0.34c-5.85-0.72-9.82-2.08-12.14-4.16
						c-1.08-0.97-2.31-2.07-2.14-3.47c0.13-1.13,1.12-2.13,3.19-3.24c0.36-0.19,0.82-0.06,1.02,0.31c0.2,0.37,0.06,0.82-0.31,1.02
						c-1.91,1.02-2.36,1.7-2.41,2.09c-0.07,0.58,0.71,1.33,1.65,2.17c2.08,1.87,5.79,3.11,11.32,3.78c5.97,0.73,11.53,0.01,11.58,0
						c0.41-0.06,0.79,0.23,0.84,0.64c0.05,0.41-0.23,0.79-0.64,0.84C713.42,336.49,710.94,336.82,707.5,336.82z"/>
				</g>
				<g>
					<path class="st3" d="M708.55,348.17c-0.04,0-0.07,0-0.11-0.01c-0.04-0.01-4.23-0.65-9.26-2.06c-4.24-1.19-7.09-3.13-9.31-4.87
						c-0.92-0.72-1.84-1.49-2.69-2.22c-2.29-1.95-2.38-4.22-1.7-5.7c0.78-1.69,2.64-2.61,4.63-2.29c0.41,0.07,0.69,0.45,0.62,0.86
						c-0.07,0.41-0.45,0.69-0.86,0.62c-1.33-0.22-2.52,0.35-3.02,1.44c-0.45,0.97-0.34,2.52,1.31,3.92
						c0.84,0.71,1.74,1.47,2.64,2.18c2.22,1.73,4.82,3.49,8.8,4.61c4.94,1.39,9.04,2.02,9.08,2.02c0.41,0.06,0.69,0.44,0.63,0.85
						C709.23,347.9,708.91,348.17,708.55,348.17z"/>
				</g>
				<g>
					<path class="st3" d="M699.38,355.81c-0.11,0-0.23-0.03-0.34-0.08c-1.42-0.72-8.59-4.41-9.79-6.31c-0.2-0.32-0.46-0.7-0.75-1.11
						c-1.52-2.21-3.42-4.96-2.14-6.6c1.35-1.72,3.82-1.83,3.93-1.83c0.41-0.02,0.76,0.31,0.78,0.72c0.01,0.41-0.31,0.76-0.72,0.78
						c-0.02,0-1.88,0.09-2.8,1.26c-0.6,0.77,1.28,3.5,2.19,4.82c0.3,0.43,0.57,0.83,0.78,1.16c0.76,1.2,6.04,4.18,9.2,5.77
						c0.37,0.19,0.52,0.64,0.33,1.01C699.91,355.66,699.65,355.81,699.38,355.81z"/>
				</g>
			</g>
			<g>
				<path class="st2" d="M654.71,323.31c0,0,8.17,17.63,11.41,37.42l-11.41,5.76c0,0-7.92-29.83-11.21-37.02L654.71,323.31z"/>
			</g>
			<g>
				<polygon class="st1" points="638.98,331.7 645.77,371.84 643.51,373.59 636.41,332.27 				"/>
			</g>
		</g>
		<g class="st9">
			<g>
				<g>
					<path class="st0" d="M713.22,218.14c-0.94,1.37-0.95,5.19-1.91,6.44c-0.95,1.25-6.71,3.8-6.71,3.8s-0.75,3.17-2.86,4.36
						c-2.11,1.19-6.56,0.4-13.68-2.37c-7.11-2.77-10.26-7.39-18.16-10.21c-7.89-2.81-61.98-8.63-71.38-4.72l12.56-39.19
						c0,0,22.54,8.15,35.59,9.54c13.05,1.39,26,1.28,33.61-1.06c7.62-2.35,12.96-7.19,16.65-10.26c3.69-3.07,5.15-3.02,10.03-6.63
						c2.14-1.59,4.62-3.66,6.81-5.64c2.79-2.53,5.14-4.89,5.78-5.87c0.62-0.95,2.27-0.16,3.22,1.72c0.82,1.57,1.14,3.93-0.04,6.65
						c-2.58,5.94-14.78,15.22-15.76,18.81c-0.96,3.59-0.86,5.47,2.44,6.7c3.31,1.23,11.82,3.23,13.25,6.16
						c1.44,2.94,0.66,6.17-0.08,7.49c-0.74,1.33-3.19,2.45-3.41,3.54c-0.22,1.09,1.46,3.53,0.15,5.41
						C718.02,214.68,714.16,216.76,713.22,218.14z"/>
				</g>
				<g>
					<path class="st1" d="M722.71,158.25c-0.5,1.34-1.4,2.65-2.44,3.63c-1.06,1.01-2.49,1.62-3.97,1.46
						c-0.92-0.1-1.86-0.5-2.52-1.14c2.79-2.53,5.14-4.89,5.78-5.87c0.62-0.95,2.27-0.16,3.22,1.72
						C722.76,158.11,722.74,158.18,722.71,158.25z"/>
				</g>
				<g>
					<path class="st3" d="M699.21,234.01c-2.6,0-6.33-0.97-11.42-2.95c-3.45-1.35-6.03-3.14-8.52-4.88
						c-2.73-1.9-5.55-3.87-9.61-5.32c-8.29-2.95-61.71-8.53-70.84-4.74c-0.27,0.11-0.58,0.06-0.8-0.14c-0.21-0.2-0.3-0.5-0.21-0.78
						l12.56-39.19c0.06-0.19,0.2-0.35,0.38-0.44c0.18-0.09,0.39-0.1,0.59-0.03c0.22,0.08,22.61,8.13,35.42,9.5
						c13.92,1.49,26.37,1.1,33.31-1.04c6.87-2.12,11.85-6.3,15.48-9.36l0.91-0.76c1.96-1.63,3.3-2.4,4.84-3.28
						c1.36-0.78,2.91-1.66,5.22-3.37c1.99-1.47,4.45-3.51,6.75-5.59c2.8-2.53,5.07-4.83,5.65-5.72c0.33-0.5,0.87-0.77,1.48-0.74
						c1.1,0.06,2.29,1.05,3.03,2.53c1.09,2.09,1.08,4.75-0.02,7.29c-1.43,3.29-5.6,7.47-9.29,11.17c-2.96,2.97-6.03,6.05-6.43,7.54
						c-0.99,3.7-0.61,4.84,1.98,5.8c0.7,0.26,1.63,0.55,2.71,0.89c4.32,1.36,9.69,3.05,10.96,5.64c1.53,3.14,0.78,6.62-0.1,8.19
						c-0.42,0.76-1.21,1.39-1.98,2c-0.51,0.41-1.29,1.02-1.35,1.33c-0.04,0.2,0.12,0.75,0.24,1.2c0.36,1.26,0.85,2.98-0.22,4.49
						c-0.77,1.1-2.22,2.18-3.63,3.22c-1.04,0.77-2.11,1.57-2.48,2.1c0,0,0,0,0,0c-0.38,0.54-0.61,1.81-0.82,2.92
						c-0.27,1.43-0.52,2.77-1.11,3.55c-0.93,1.22-5.21,3.22-6.68,3.88c-0.28,0.93-1.19,3.38-3.11,4.47
						C701.38,233.81,700.42,234.01,699.21,234.01z M611.59,213.42c19.5,0,52.21,3.76,58.57,6.03c4.25,1.51,7.16,3.54,9.97,5.5
						c2.53,1.77,4.93,3.43,8.21,4.71c6.8,2.65,11.19,3.46,13.04,2.42c1.79-1.01,2.49-3.85,2.5-3.88c0.05-0.23,0.21-0.42,0.43-0.51
						c2.32-1.03,5.84-2.81,6.42-3.57c0.38-0.49,0.62-1.78,0.83-2.91c0.26-1.38,0.5-2.69,1.06-3.5c0.51-0.74,1.58-1.54,2.82-2.46
						c1.25-0.93,2.66-1.97,3.29-2.88c0.65-0.93,0.31-2.15,0-3.22c-0.21-0.72-0.38-1.35-0.27-1.9c0.17-0.84,1.01-1.5,1.89-2.21
						c0.62-0.49,1.32-1.05,1.6-1.55c0.7-1.25,1.33-4.2,0.06-6.8c-0.98-2.01-6.45-3.73-10.06-4.87c-1.1-0.35-2.05-0.65-2.78-0.92
						c-4.15-1.55-3.77-4.36-2.9-7.6c0.51-1.88,3.43-4.81,6.82-8.21c3.59-3.6,7.66-7.68,8.97-10.71c1.31-3.01,0.48-5.2,0.06-6
						c-0.62-1.22-1.42-1.7-1.78-1.72c-0.1-0.01-0.12,0.02-0.14,0.06c-0.79,1.22-3.57,3.91-5.9,6.02c-2.37,2.14-4.81,4.16-6.87,5.69
						c-2.38,1.76-3.97,2.67-5.37,3.47c-1.48,0.85-2.76,1.58-4.63,3.13l-0.9,0.76c-3.73,3.14-8.84,7.44-16.01,9.64
						c-7.23,2.22-19.6,2.62-33.91,1.09c-11.66-1.25-31.04-7.91-35.04-9.32l-11.89,37.08C602.27,213.68,606.47,213.42,611.59,213.42z
						 M713.22,218.14L713.22,218.14L713.22,218.14z"/>
				</g>
			</g>
			<g>
				<path class="st1" d="M614.24,168.63c0,0,13.48,1.29,15.83,7c0,0,12.8-0.03,15.39,5.13c0,0-9.82,11.87-9.23,19.2
					c0.59,7.33,3.96,20.37,3.96,20.37s-9.23,3.15-14.95,0.73c0,0-25.06,13.19-31.66,4.1l2.64-58.48
					C596.22,166.7,607.14,161.92,614.24,168.63z"/>
			</g>
			<g>
				<path class="st3" d="M619.62,212.53c-0.25,0-0.49-0.13-0.63-0.35c-7.09-11.12-9.92-24.97-7.77-37.98
					c0.07-0.41,0.45-0.68,0.86-0.62c0.41,0.07,0.69,0.45,0.62,0.86c-1.96,11.87,0.35,24.45,6.33,34.89
					c0.67-10.47,1.86-22.87,8.33-32.54c0.23-0.34,0.7-0.44,1.04-0.21c0.34,0.23,0.44,0.7,0.21,1.04
					c-6.75,10.07-7.57,23.44-8.23,34.19c-0.02,0.32-0.25,0.6-0.56,0.68C619.75,212.52,619.68,212.53,619.62,212.53z"/>
			</g>
		</g>
		<g class="st9">
			<g>
				<g>
					<path class="st0" d="M1090.36,133.87l-2.27,40.61l-11.68-5.56c-10.81-6.13-45.04-22.95-48.66-23.74
						c-3.61-0.78-17.36,1.8-21.68,2.73c-4.32,0.94-8.33,2.06-12.12,3.23c-3.79,1.16-5.6,0.15-7.05-1.01
						c-1.46-1.15-1.63-4.15-1.63-4.15s-4.57-2.02-5.67-3.6c-1.09-1.59-0.03-6.06-0.03-6.06s-2.32-0.96-4.08-3.31
						c-1.76-2.36,1.21-7.25,1.21-7.25c-3.84-1.78-4.57-5.69-4.07-7.84c0.5-2.16,4.7-6.62,9.17-8.06c4.47-1.44,9.93-2.11,11.49-3.93
						c1.55-1.82-0.35-4.83-1.4-8.18c-1.06-3.36-3.54-11.02-2.48-16.68c0.74-4.04,3.38-4.96,5.02-4.89l0.01,0
						c0.65,0.02,1.14,0.2,1.29,0.4c0.43,0.58,0.23,3.12,0.73,6.34c0.1,0.63,0.22,1.29,0.39,1.96c1.01,4.11,3.13,6.76,8.6,11.85
						c5.46,5.09,6.25,8.06,9.8,13.41c3.54,5.35,10.41,6.63,24.15,11.05C1053.12,125.57,1090.36,133.87,1090.36,133.87z"/>
				</g>
				<g>
					<path class="st1" d="M997.9,130.21c-0.48,0.13-1.01,0.01-1.4-0.3c-0.55-0.44-0.76-1.06-0.77-1.7
						c-0.12-0.41-0.17-0.83-0.04-1.25c0.2-0.64,0.74-0.91,1.3-1.19c0.48-0.25,0.96-0.51,1.51-0.29c0.44,0.18,0.77,0.57,0.99,0.98
						c0.27,0.48,0.45,1.05,0.52,1.6c0.04,0.27,0.05,0.55-0.07,0.81c-0.11,0.25-0.32,0.43-0.53,0.59
						C998.95,129.76,998.44,130.08,997.9,130.21z"/>
				</g>
				<g>
					<path class="st1" d="M995.66,124.38c-0.55,0.12-1.12,0.06-1.54-0.32c-0.45-0.39-0.63-0.96-0.64-1.54c0-0.58,0.16-1.22,0.4-1.73
						c0.25-0.53,0.69-0.9,1.24-1.09c0.61-0.22,1.25-0.22,1.89-0.2c0.17,0.01,0.28,0.09,0.33,0.21c0.01,0,0.02,0,0.03,0
						c0.58,0.18,1.07,0.64,1.29,1.2c0.43,1.17-0.27,2.24-1.27,2.81C996.85,124.01,996.24,124.24,995.66,124.38z"/>
				</g>
				<g>
					<path class="st1" d="M997.66,133.19c-0.19-0.5-0.24-1.08,0.01-1.56c0.12-0.25,0.31-0.47,0.53-0.64
						c0.06-0.05,0.11-0.11,0.17-0.15c0.46-0.38,1.03-0.59,1.62-0.58c1.03,0.02,1.97,0.84,2.02,1.89c0.07,1.16-0.91,1.98-1.94,2.3
						C999.06,134.76,998.02,134.15,997.66,133.19z"/>
				</g>
				<g>
					<path class="st1" d="M1003.33,140.65c-0.41,0.9-1.44,1.48-2.41,1.5c-0.97,0.03-1.62-0.85-1.59-1.78
						c0.03-0.73,0.51-1.33,1.1-1.73c0.1-0.16,0.21-0.32,0.37-0.44c0.49-0.42,1.13-0.3,1.63,0c0.42,0.24,0.8,0.59,0.96,1.05
						C1003.55,139.7,1003.53,140.21,1003.33,140.65z"/>
				</g>
				<g>
					<path class="st1" d="M996.45,82.89c-1.14-0.76-1.77-2.06-2.01-3.39c-0.2-1.08-0.24-2.25-0.01-3.34l0.01,0
						c0.65,0.02,1.14,0.2,1.29,0.4C996.15,77.13,995.95,79.67,996.45,82.89z"/>
				</g>
				<g>
					<path class="st3" d="M1088.09,175.23c-0.11,0-0.22-0.02-0.32-0.07l-11.68-5.56c-11.61-6.58-45.12-22.95-48.5-23.69
						c-3.24-0.7-16.02,1.58-21.36,2.73c-3.79,0.82-7.62,1.84-12.06,3.21c-4,1.22-6.08,0.18-7.74-1.14
						c-1.36-1.07-1.76-3.26-1.88-4.24c-1.22-0.56-4.56-2.21-5.58-3.68c-1.02-1.49-0.54-4.71-0.27-6.07
						c-0.85-0.45-2.48-1.48-3.82-3.28c-1.63-2.19-0.04-5.83,0.78-7.39c-3.65-2.13-4.28-6.15-3.77-8.32c0.56-2.39,4.87-7.06,9.67-8.6
						c1.47-0.47,3.02-0.86,4.52-1.23c2.82-0.7,5.73-1.42,6.63-2.48c0.88-1.03,0.16-2.88-0.66-5.02c-0.3-0.79-0.62-1.6-0.89-2.45
						l-0.08-0.26c-1.13-3.6-3.48-11.08-2.42-16.78c0.77-4.19,3.56-5.58,5.75-5.5c0.02,0,0.03,0,0.05,0c0.41,0.02,1.42,0.11,1.86,0.7
						c0.36,0.49,0.41,1.3,0.49,2.77c0.06,1.08,0.14,2.42,0.38,3.9c0.1,0.64,0.22,1.27,0.37,1.9c0.92,3.74,2.72,6.21,8.38,11.48
						c4,3.72,5.58,6.4,7.42,9.5c0.74,1.25,1.5,2.54,2.5,4.04c2.81,4.24,8.01,5.85,17.46,8.77c1.92,0.59,4.01,1.24,6.29,1.98
						c13.54,4.35,50.54,12.61,50.91,12.7c0.36,0.08,0.61,0.41,0.59,0.77l-2.27,40.61c-0.01,0.25-0.15,0.48-0.37,0.6
						C1088.36,175.19,1088.23,175.23,1088.09,175.23z M1025.88,144.28c0.82,0,1.51,0.05,2.03,0.16
						c3.73,0.81,38.23,17.78,48.87,23.82l10.62,5.05l2.17-38.86c-4.93-1.11-37.79-8.53-50.42-12.59c-2.28-0.73-4.36-1.38-6.28-1.97
						c-9.78-3.02-15.16-4.69-18.26-9.38c-1.01-1.53-1.79-2.84-2.54-4.1c-1.85-3.13-3.31-5.59-7.15-9.17
						c-5.32-4.95-7.72-7.74-8.82-12.22c-0.16-0.67-0.3-1.35-0.4-2.02c-0.25-1.55-0.33-2.93-0.39-4.04c-0.05-0.77-0.1-1.63-0.19-1.93
						c-0.11-0.05-0.34-0.11-0.68-0.13c-0.02,0-0.03,0-0.05,0c-0.59-0.03-3.47,0.06-4.25,4.27c-0.99,5.34,1.28,12.58,2.38,16.06
						l0.08,0.26c0.25,0.8,0.56,1.59,0.85,2.36c0.96,2.48,1.86,4.82,0.41,6.53c-1.21,1.42-4.08,2.13-7.41,2.96
						c-1.48,0.37-3.01,0.75-4.43,1.2c-4.39,1.41-8.25,5.72-8.67,7.52c-0.43,1.85,0.18,5.38,3.65,6.99c0.19,0.09,0.34,0.26,0.4,0.46
						c0.06,0.2,0.04,0.42-0.08,0.61c-0.75,1.24-2.44,4.82-1.25,6.42c1.62,2.17,3.74,3.06,3.76,3.07c0.34,0.14,0.53,0.51,0.44,0.87
						c-0.38,1.61-0.74,4.51-0.08,5.47c0.71,1.02,3.66,2.59,5.35,3.34c0.26,0.11,0.43,0.36,0.45,0.64c0.04,0.74,0.37,2.84,1.35,3.6
						c1.3,1.03,2.86,1.95,6.37,0.88c4.48-1.38,8.35-2.41,12.18-3.24C1006.07,147.14,1019.65,144.28,1025.88,144.28z"/>
				</g>
				<g>
					<path class="st3" d="M989.46,127.02c-0.77,0-1.64-0.11-2.65-0.36c-3.85-0.96-9.95-0.18-10.01-0.17
						c-0.4,0.05-0.79-0.23-0.84-0.65c-0.05-0.41,0.23-0.79,0.65-0.84c0.26-0.03,6.44-0.83,10.57,0.2c2.81,0.7,4.2,0.11,6.11-0.7
						c0.62-0.27,1.33-0.57,2.13-0.84c1.09-0.37,2.37-0.86,2.58-1.4c0.12-0.31-0.04-0.88-0.51-1.74c-1.21-2.2-4.39-2-6.18-1.68
						c-1.68,0.3-3.72-0.72-5.7-1.71c-1.38-0.69-2.81-1.41-3.7-1.41c-0.01,0-0.02,0-0.03,0c-0.41,0-0.75-0.33-0.75-0.74
						c0-0.41,0.33-0.75,0.74-0.76c1.26-0.01,2.78,0.75,4.41,1.56c1.67,0.84,3.57,1.79,4.76,1.58c3.78-0.68,6.54,0.19,7.76,2.43
						c0.51,0.93,0.98,2.02,0.59,3c-0.41,1.05-1.59,1.63-3.5,2.27c-0.75,0.25-1.4,0.53-2.03,0.8
						C992.47,126.48,991.2,127.02,989.46,127.02z"/>
				</g>
				<g>
					<path class="st3" d="M985.64,117.08c-0.32,0-0.62-0.21-0.72-0.54l-0.8-2.72c-0.12-0.4,0.11-0.81,0.51-0.93
						c0.4-0.12,0.81,0.11,0.93,0.51l0.8,2.72c0.12,0.4-0.11,0.81-0.51,0.93C985.78,117.07,985.71,117.08,985.64,117.08z"/>
				</g>
				<g>
					<path class="st3" d="M979.57,137.06c-0.37,0-0.69-0.28-0.74-0.65c-0.05-0.41,0.24-0.79,0.65-0.84
						c5.29-0.68,14.17-2.11,15.44-3.01c0.85-0.6,1.42-1.25,1.98-1.89c0.65-0.74,1.26-1.43,2.17-1.89c0.36-0.18,0.42-0.29,0.42-0.29
						c0.01-0.09-0.15-0.44-0.27-0.7c-0.14-0.32-0.31-0.68-0.45-1.11c-0.28-0.87-2.29-1.43-3.22-1.56c-0.41-0.06-0.69-0.44-0.63-0.85
						c0.06-0.41,0.43-0.69,0.85-0.64c0.39,0.06,3.79,0.6,4.43,2.58c0.12,0.37,0.26,0.68,0.39,0.95c0.39,0.87,0.93,2.05-0.84,2.95
						c-0.65,0.33-1.15,0.89-1.72,1.54c-0.59,0.67-1.25,1.42-2.24,2.12c-2,1.41-14.68,3.08-16.12,3.27
						C979.63,137.06,979.6,137.06,979.57,137.06z"/>
				</g>
				<g>
					<path class="st3" d="M985.26,146.73c-0.34,0-0.65-0.23-0.73-0.58c-0.1-0.4,0.15-0.81,0.56-0.9c0.02-0.01,2.34-0.56,4.45-1.43
						c1.1-0.45,2.8-1.37,4.45-2.26c1.62-0.88,3.15-1.7,4.17-2.13c1.69-0.71,2.71-5.46,3.08-7.26c-0.08-0.26-0.31-0.9-0.86-1.23
						c-0.43-0.26-1.01-0.3-1.72-0.1c-0.4,0.12-0.81-0.12-0.93-0.52c-0.11-0.4,0.12-0.81,0.52-0.93c1.14-0.32,2.12-0.23,2.93,0.27
						c1.26,0.78,1.55,2.28,1.56,2.35c0.02,0.09,0.02,0.19,0,0.29c-0.75,3.7-1.82,7.6-4.01,8.51c-0.95,0.4-2.52,1.25-4.03,2.06
						c-1.68,0.91-3.42,1.85-4.59,2.33c-2.23,0.92-4.58,1.48-4.68,1.51C985.38,146.72,985.32,146.73,985.26,146.73z"/>
				</g>
				<g>
					<path class="st3" d="M996.2,151.21c-0.24,0-0.48-0.12-0.63-0.34c-0.23-0.35-0.13-0.81,0.21-1.04c0.92-0.6,3.38-2.5,3.8-4
						c0.31-1.12,1.1-2.22,1.87-3.28c0.65-0.91,1.39-1.93,1.36-2.46c-0.03-0.57-0.38-1.16-0.89-1.51c-0.34-0.23-0.7-0.31-0.98-0.22
						c-0.4,0.13-0.82-0.09-0.95-0.48c-0.13-0.39,0.09-0.82,0.48-0.95c0.73-0.24,1.56-0.09,2.29,0.41c0.89,0.61,1.49,1.63,1.54,2.66
						c0.06,1.06-0.73,2.15-1.64,3.42c-0.69,0.95-1.4,1.94-1.64,2.8c-0.64,2.31-4.04,4.6-4.42,4.85
						C996.48,151.17,996.34,151.21,996.2,151.21z"/>
				</g>
				<g>
					<path class="st3" d="M1022.99,139.81c-0.3,0-0.57-0.17-0.69-0.46c-1.89-4.59-2.61-9.63-2.06-14.57
						c0.04-0.41,0.41-0.71,0.83-0.66c0.41,0.05,0.71,0.42,0.66,0.83c-0.51,4.69,0.16,9.47,1.96,13.83c0.16,0.38-0.02,0.82-0.41,0.98
						C1023.18,139.79,1023.08,139.81,1022.99,139.81z"/>
				</g>
				<g>
					<path class="st3" d="M1009.85,134.94c-0.08,0-0.16-0.01-0.24-0.04c-4.15-1.4-7.78-4.38-9.97-8.18
						c-0.21-0.36-0.08-0.82,0.27-1.02c0.36-0.21,0.82-0.08,1.02,0.28c2.01,3.48,5.34,6.22,9.15,7.5c0.39,0.13,0.6,0.56,0.47,0.95
						C1010.46,134.75,1010.16,134.94,1009.85,134.94z"/>
				</g>
			</g>
			<g>
				<path class="st2" d="M1105.45,130.25c0,0-25.41-7.24-30.6-8.74c-5.18-1.5-13.84-5.81-19.67-5.61
					c-5.82,0.2-10.71,0.63-10.71,0.63l-5.36-1.13c0,0-11.75,22.25-8.02,35.58l7.96,3.44c0,0,5.61,5,8.16,7.87
					c2.55,2.87,16.86,7.7,16.86,7.7s11.02,6.41,14.5,7.82c3.48,1.41,32.43,8.21,32.43,8.21L1105.45,130.25z"/>
			</g>
			<g>
				<path class="st3" d="M1038.62,152.29c-0.03,0-0.06,0-0.09-0.01c-0.41-0.05-0.7-0.42-0.65-0.83c1.33-11.05,4.43-21.75,9.2-31.81
					c0.18-0.37,0.62-0.53,1-0.36c0.37,0.18,0.53,0.62,0.36,1c-4.7,9.91-7.75,20.46-9.07,31.35
					C1039.31,152.01,1038.99,152.29,1038.62,152.29z"/>
			</g>
		</g>
	</g>
	<g>
		<g>
			<polygon class="st4" points="910.28,97.53 957.84,89.9 951.8,75.42 			"/>
		</g>
		<g>
			<polygon class="st4" points="913.52,103.68 944.16,112.59 944.26,101.56 			"/>
		</g>
		<g>
			<polygon class="st4" points="908.63,92.53 930.97,74.66 923.51,67.77 			"/>
		</g>
	</g>
</g>
</svg>
